<mxfile host="app.diagrams.net" modified="2023-08-16T12:10:27.099Z" agent="Mozilla/5.0 (X11; Linux x86_64) AppleWebKit/537.36 (KHTML, like Gecko) Chrome/115.0.0.0 Safari/537.36" etag="Y3kOoQfywnx0nUK0adEs" version="21.6.8" type="device" pages="3">
  <diagram name="source" id="XBjdlvFGctFZOFH6YXaR">
    <mxGraphModel dx="1154" dy="559" grid="1" gridSize="10" guides="1" tooltips="1" connect="1" arrows="1" fold="1" page="1" pageScale="1" pageWidth="850" pageHeight="1100" math="0" shadow="0">
      <root>
        <mxCell id="0" />
        <mxCell id="1" parent="0" />
        <mxCell id="ijN-LjG9Q1Vtept6cL2q-1" value="MySql Database" style="image;sketch=0;aspect=fixed;html=1;points=[];align=center;fontSize=12;image=img/lib/mscae/Azure_Database_for_MySQL_servers.svg;" vertex="1" parent="1">
          <mxGeometry x="120" y="160" width="68.4" height="90" as="geometry" />
        </mxCell>
        <mxCell id="ijN-LjG9Q1Vtept6cL2q-2" value="Kafka" style="shape=image;verticalLabelPosition=bottom;labelBackgroundColor=default;verticalAlign=top;aspect=fixed;imageAspect=0;image=data:image/webp,UklGRsQnAABXRUJQVlA4WAoAAAAYAAAAOgEA/wEAQUxQSHYcAAABoEZb1zKnuTMTmyS4S3B3hyoUaji0QNEKUgpFmgruDsXdrcVdSqHQQnEN7loggQQN8WRm7o+2kHnu/d7hZ0RMAGmaq/YXwxZuOXjpzoMnTx7evXr0t2Vjvv6gsI1ed+ZoNmFPNKfzi8Oz2hd+beGsP/0Kez1yaeusrx+CW65PZFDXX12zv1aotSiOodO2Nna8JgjsdJYF3h+Y9TVApkEPWWjCzAI+XujApyw4ZWYeH87+dTQLTxwZ4qu9c5oVvN/OJ8s038M6/lHY92oQyWom9LL5Vs5ZrOrvuX2pUhdY2ZgPfKdPXrC67gE2H2kEq7ze6QsFrmClj+X0fTLsY7VvFfN1shxnxaPK+DbZz7Lqjyr5MpkjWPmY0r5L6BFWP7KIr+L3O1vg9ew+yjy2xENBPsn3bJErfZH3XFbB4b5H/mi2zLR3fQ37PrbQ+1l9jP5sqRt8i8qp1sJf+RJ+EWyxz3L7EH3Zctf7DgUTrYcb+Axr2YKv+PsI77LIxwcXjxvUu0f/MXP23BfB4T7CUbxb81vnppfO2GDiabwnGX2CRgz+bO6blK4lRt0B46E+QQRWZHgIpbv9s3NYz7P4AB8zcux3geRV2yd3kHiQD7AbaWVu8nrw6BSgh4HGV5FxY1sQZLWbONzZ+ObhRBQl0EwbcCJML+QFzK4QgrVNgeGqhteJUVf5E3JfmLmGtxdlo4OwB6E89Te6PG6QfYGEPgOEGxhdT8a8mYng7TtAlhndHoyUqiQw+32MJw6DC0nB6E0i33FD8BsG15ghj9pl0ByM4QY3FcJVhYRmjoY4ZHAnIOaT2K8hkgONLSQNIa2wnIC7CPy2sb3LiMtJcE+IH42tF0QVSc5YhOXGthDhPIlejHDG2I4i9JFVByHFYWqPEIrIssUAcEFDC2XAOyR8LUIdQyuLsERaN4SvDO0DhC7SKiAMMLTWCO9Ic7oBJhlaD4Qc0ug2wDJDGwTwgsTvAdhiaCMB7snbALDT0MYDXJa3FGCvoU0GOCFvJsAhQxsLcFbefIC/DG0QwC15qwC2GVo4wCN52wFWGdrXAO5AcREACw2tHQCXlWaLB5hmaE0QPpUWxoCjDK0ywghpjRC6GlomhIPSJiN8YGj0BCA1RNgZhKKmdgKAm8jK4wFw+ZnaWoR1sn5iwFtk6iMQkjOLOoewy9gaInBPSTUZcYSxZYO46y9oG8THxkbXELiTnIqM6Mlsbssh7gSL2QFxicy9GwSPkfIJQy40uCIYKaVlhN7FaGNwdA6CTweJ+JUhUzKa3AgMniuhM2P+TiZfGYQ74tVMBPna6OgOiKsxWqnHjOnOZXbjQTixDlbBfxj0bzL7oh4QTmqOVD6SUdsZHu1CYVc3nPeeM2p0gOk1g2H+NRTDPtjFsGPI9B33cPhKTYSCuxnXVUAxZ8Vm3035deeJyzfvRf1z/cKhLYtHdXm/sE0dGgDEnvlZvRUwIIGBN5POgW/1WXvFxekbd2TuVyV0yfAYiPnJoEze8O94naGrKWSrPODvZPZ29OovculBfaCYn48tkV45v7vD2BtJW9ub0yIZ1HM0PL8WwdFYzHy0Z6lXy9t+exqDu8spk3/oHYb27G0bqAKFwzFz5IoBn5TN6SQKyFa8Qfj8KyxwBalad6uL8R//nF+DoNsC/jcthcWmFVPE3jaChaatKC+PGsqRPJbUtLW6xII9q0uJo/XWcz1IjXcjWLhrfk5peWMtpx4pWWAtKxj7g58s6mk1y0lHe6841vFsNVn2v6zlYXYdShxmNV0/B0qiPNFW4q5LKnaJZ03PlJFEH3osZBhpmHE9K5vYRRKNsY49dg1KX2F9FwYKcuy1ige5SMHGcazxiTxyKMsla4ivQQr2crPO/5STQwWjrCCtPik4kdV+XkcOVYmzgC9Jvn0eK55YXw59nKLeAJJvX86qpzSTQ/WTlBtN8m2LWfmU+nKoXoJq/UjBmax+Yh059PYLvTzfkoKD2QJjy8uhGg+1cn1BCrZjS7ybVw6FndLp6Yek4Jsp1sCnnHLIuVqjc0VIwdxRbJXLBBH1d6uzJoQU9NvP1tldEtW+o0vyD6TiaLbQ5IqSKOMSTU6UIRXfcVsJX3RKImoWo0XKID9SMcMdttYZsij7HJcKxyqQkrPZYj1vySIqv0fe7TY2UvJtj9XwpUBhRE2vyXr2UyBp6XeRrXewOHK0Pi3n6ZhspGdPtuD4fOKI6ON9Mm72CCFFsz4RkXJx44wxA77vO3LujutuCfyrBkTVZj1Bc+/91E6qTmT42M29yjnoZUNqDz7ohvNUUoEo4JPNqUAnf8hHyuZJBEvb3iqI0jN373NgvFUJIsrWbtkDhNSDQ0qQvtMZOmlmAUr/Or9jcQ01iMhWsc9jr7hPjP84hDTOkYTknpubvPvWMahNmhDRSa9cIK2HMfCpGuR1W5fnQO7ixhcUg+MZ4yDEsH04PMf4OjDs448I1DEOJz6D6R2AuV2CcL9IReGvDa8Uo57PS8iNk1FOGN4olGs5CLtRKgiXNLvrIFGFCP1zlCFGV4Uxk6sQ/hiQS0Y3HKQ7CbTvweDiJnccYz2JzPsEo5fBZXdDPM8lg77E2GFwrRiyJ0k9AJHgZ27TIC44xFSH4BrmdhKiLcndDBFubM40hBsOQbUg1hpbNUbsRZKPIVwxto4IqdlFdUFwOU1tMsIWEp0lFYCrmtpWhA6yaBdCK1M7h5BP2HcIfU3tBcBVEl4FYY6hhTLgYmmOJIAthlYQoY80OgVw0NCqIjQVtxrgiqHVQygnbhxAtKE1RMgv7keA54bWHCGTuC4ASYbWCsEh7nMAt+8SJO4rgFRD+xQhh7juAHGG1gChiLjBAE8M7R2EN8XNBrhraOUQOorbCXDa0HIjjBd3F2C3oTlcADulZWfAlYZG9wDi/IU1QRhnagcA+C1hMxC6ahF03iv/VAvSZzHCCGG3ED5UwF6xx9Jzaexl16WVvas6VOmDcMsmqjojFpBWvPfWpwwb98dP5fVogMDviJqF8Iwk296efI3h783/yE+HfBDLJIU+RzggqOqkeyz08YK6NgXoAUJaQUHhjDhVSpaeZ1j0rcFh8jYi8Gw5zgcQLWWUW5TE4t1b6kgLh0guJmYAQ+aR8OEfrGREez9RlSB4p5R8cRDXCb/+EVb0xld+gmwxENxSyBaGnAFX5xgre7ODTQztwHicX0RHxmwIVnorK3yqjpDMqxj0oJ+AsvEYicFQGaelsc6bC0l47y7DzsDLdp0x1xNyuwesdkI/f7SAiR4G7o/mPMigLYDCdrHqF2pglTvL2F2xgn5n0DgnTudYVt410h/HFp7M6P2QMvzJqAsINdtWtsDTZVDy7WGBUx0wYWcZtgZK7ftsiQlfYrR8yiL/zgvyfgzDniVM20A3W+XSYO9lXM5SY5oiOCd6GPdLjNANbKFnCnrrnTsseGshrzW4zsCRARBFLrClxrztFf9xbhadODmvV2rtZug+hFgzhi025QsvlI5g8clzq6SXX/N9jB0dgtA8ka23X7r1SGQVz/epYHulgHqzHjL69wTY2c1WPM2WLnl+Zz1j1g74tFwWPyJy5KzeZsyf8Yx/3wnQ28PWvMyeDs0fs75JT+M9LLU9eb8/W/avjlcJXcxmecTmvR/Ywlc5Xu6Nm2yWrmrk9W/Z0he9jN9IFxvmZPJ6e4+18YT/K3GcTfNWsNfeT2Wr/+m/vklg03TXIW9XjGXL93xKRDm3sXmOJW/nuscGmFCNGkezeR7z91bAITbCqEVsoI8KkLcX8GtLVz3y9lf8+rI3ebtMgpklWcI08rbzApt4av+81y1gk91r09nEL1chKnRfvd2B5O26HhOb5SQiKv1AuYPB5O0Md9i8H9Sn/y5xX7W/QsnrM9i8N2Wn/y9yW7Hfgsjr1dwKeP75a8OymWNHTVu8btfVNP3iOtNL5zml1lJ/8rrjFMt2R0z8rFIwvbR/ySZD9yVrdqQovWLoDqWGEGBXlvxsfvOslM7O98ffVSptqINe2TFRo/jWBJgxWk7atpaB5FVb3aVxCl2vSenaKl6da+UIcRxLTZicjwBDf3qozYIQSufSZ5RZmYkQ8yUJiR2dnUCDetzVJKYppX/ARI8isR0IcxaL9CzNQcBBw5PV+C0XebX2VTV+K0CYYSkizr9D4MV26pDYnbwdNCpVhei2hDqbBbpH+BF++zgFTpYiwFLb5KX8nJFQcyQJeFiPRJY8J809xp8w652W5VldnHCHMf7e3CTUuUDW7bcJ1tbstBzPpgoE7IzBW+FPcvtJWpaRoBv9KSN5URmC/orhp9hIckeXlCctCb7cvBdwNwfkJvAjcANIeJNkGbvzkcTgdn+4gZ4trmcj9PKMPprEf+oWkBxuI6nZv9qcAHFvfqMAEjgNbT4p+A3e2XIkOrD2sH0JXolc27ssyXREg21yaEBD0WYFknx76XYTNp1LeKXooysHNCpAcj9i7EshpONGsG9Jzywl327ermO3nl2/atugRtEQkr4MK6EsKZn5NtZ+RZT1f47VkdSskQrlzmUodRl6DSnaF4q7GMoUqNg8mvhdgNpqKNehepOq70LFBxhJAUY+7dCFliNxXSP5Eup9UjZvMtJoI1mGdJTUnYN02EhuITXWp1AaUIrTQLIz8FmbPrQUiN82kPpInUnhKkg/GMhgoKSMGtEFoJUGsh5oNancF+iygVwEqq9TPjeOK9A4/FJxYh060UEcrmAcJRl3Gyk9AqiFcdQHCteqDlA/4/gaqKJWgYk4c41jJM4zm1a0F2eHcSzBOUxqz8I5axzbcZbo1RMn2jgO4fTT60OcNJtpXMZprlcBHM5gGg9waurlD5TfNJ7hlNWLknFKmEYCTgHFHuFUNI1UnCyK3cKpZhoenADFzuHUNI00HKdil3Cqm0YCTibFbuJUNo1nOGGKPcYpbRoPcSrrZXfjFDCNqzj19crNuJlN4whON73ewHHbTWMHzkS92uE8JtP8BWeXXuNwLhnHWJwHeu3A2W0c3XG4oFa2pziLjKMxUFutyjDuYOMoD7RYq95AbY0jyI0TZVNqJ1A146AbOFxLp0wpOJ5Q89gGNFmnLxj3FpnnaKAHfirtBtpoIM2B+BONiniABhpIfqQ/NfqZgd83EHoAxJX1yRgL5M5oIuuQ1ukzgIEjyES7I3kqapPpKdIUIymNxLu0GcvIjYyEopC4kS5Fk5FSQs1kIdStYFV2MvJuMtOmUDxZk/YM3ctQgpOg3O/pUeAZVkFDoc1QfC+7Fn77GfokmWorLN7tUGISY/9kLM4XWDxJhw4MXkiNXDU+/Xbo1IUr1qxdsWTu+J86flzaKYyWgfG3GtRJQTtQSF7gG70WH3/B6eiJ3PVz++KCaqO528qrGsvwse1F+dUedTCZvRu9sUdRIXQZjNNaSKv4mCWuzCTF2WLVc8a8NrG6iHA0dn0uq9ZTlvnPuxJs7y2PY+SbIwvhZUlAY08/SU0SWKp7rD9apvBrDO/e1dQORjPgmBcFivnRzYJPloTKO/EFy7zWzYlVxIXHxwvKyLCGZSd0xck3K5nlRvUIQKK1Avh5awm1brL4LTkwMo1LYtn/fG4DKu8RwLwhD1rwJBcr+PBjAFunGJZ/7A0cWiOCn//gD9XyDuvomR7krfKHWUXP/Ewwpd0imK+1tcPUPsB6XqjoFb+hqaxlZFMUWiyE+WLHAARbg72savIPtvQrcYI1XRgCkideCvPDccW8leOHy6zunnzp1SGedb1WGYMGy2HmEz+VSr+8nXelscZPPk2XwPmsbtJXGM7bkpj59pLOFQJexV78sxlnWe/Foa+W5whrPMcPgRoI+3fq5R1zRvTq1L5dx2+HTNt0JoGVv1HrVcrfZZ13ZUSgdfIsN22I46XqxLLW5/Ij5HlmWsyHCr9E02TW+3YRAGpnXvzii/9plcaa3y8FQOvNi3lNln+1SGPdo4oCZI8yML73HlHDVNb+Tpj3qI7LwNg9oXYi638lq/doiIlZ5f5A79l3vrbgFd6jLNfMwGMi/L33qFSsEbTrFG8gabW9Rx+nGcBIomLHzIMf5vAefWV9y4mI/Ea4jIO3AdAgq/vd/19Eb902Du4GQFOs7VAI/W/G5cYRVxCAZlvZyUz0sp89Mwz+HcG20LpOZqGXD9tnGNwagGwzrepwJnpVe99Us7gXDEA0xpr+DKV0rHpFGU/UyV2bN2zbe+GFDB4OQT94LGh9IKVr8Bw9Ipd9Xc1J/5/rg4G7kvAS80BQiyTLmWqn9G4co0LU+CqUjs7m61LAeAYG1Yq2lrTu5MVcO+QdbuFH6Z1jUDRWchgGhZ2wkkd1ybs9kmSd+oC8GtznORLPBKGgxdZxoiB5u+wZQc++tpO3cyxDSsgKQtQx3iJmBpL3AyZ6pOzKS4gNHuLwIBgqGWEFj5sTZr37Itz9bYSZax9OlB8MBYxzqfdbbkLNul5AfCOC9ZsPw01xiKpf0O3Zl4T8VRza05qEPBJmOxIFDE1SbE1uwi56BOt5VcIehuLKiURUZLtWVz8keL/hLqCktwh9Ogh3xyJqdFGjp+H+JPHNWzitCd6+HeRvNHJ0uq9N4vjMJDTDMpRJJDDzDQxPTjSioF73NUmclpsE78M45S+BaqRBcAc8osBuN7V4Pi4XSQ5IgEgtTzLHYqyQQGRvuleD670ykOzaDDmWhAbdgngkg4jKT3ssK3X9hzaSPhTiYagUagnBpaQQBbbamizmaO8cpOAfEL1IrC0CopMcIsrYYWsCnvvgj4VJRVsswqMgOdQCYpEoIgr6aOolpMhf2uUgLUsw4igSbL+NECHt3zmaTz4U7z3XuYUdS5CmLRHcBSXRQIRkhwL/tpfs452l1Z2k7XCEfSS6EAKXVoKomnd6kL6rEL6VRScQmpjaCYQiwoYj9Da1RwD/kPA6CFMNLYgBV0tzugDWG1oBhP7S6DLAPkOrjNBM3CaA84b2HkIlcVMAogytMUJecf0BnhpaSwSnuK4ACYbWGsEh7ksAl6G1fJ3TFMEpritAgqHVR8grrj/AU0Org1BZ3BSASEOrgNBc3GaA84aWD6G/uCsA+wwtEGGNtGAXwHpDo0cAd6W9x4BTTO04ABcVNgKht6mtRegh7CRCE1MbhfC3rMKMWNrUPkPwFBI1CCHJYWqlEXiUJMdthFNkao54hMdOQS0ZcZGx0V8I/J0c2xmITuY2EiI6g5jPGLKkuX0IweOlOO9AxJC5OZMgUisIGc+Qvxoc7YTg0wEiaqVhtDe5Xhg8VUKWWwzpzmFyYR4Mbovn2MGY+8jk6BBI8jtwsxi0m9n1AuHYamAjGNSV0+xypIDw8zegxjDqVjI7WovCCc1w/JcwbBPTex+G3UNsIHkOMmykw/RsF2GY9+SHaBzDuAPJ9KgTEMd2d3gt9woGjs9qfoEPgZjPNvBO6MAXjDydVLW38s74IKXoeyjm46380i3n0EcMnZxfkdI/7IhlL6ccHF7LrlFQJBbzw4nVbekQ0nJDKoNPIy1rTLzFoI8Wf+ynDnVHY+YHv3xTI+Ql8nw4eHcywyfk0iH/4JsM/XhaBW38LuH9Z3TE7q0bt++/FM8yh5CG9ba4Gf9oW39V6GMhwv9xynO0PcdCI38I0YS2WVArkm5vf40FP+rrVKRAnOVsJ+kfnWHhkZ3talBPq4kLE1ZkGysY8aYa9r8tpiuJ9huQxCp6FmVWggo8s5TNJLryGVYzqqkS9JmVRGWXZO+bypouCNGBZllH2jskOOefrOzV8jr4H7aM3iT4rUhWN6GDCpT3vkUsJ8GdUlnjyXYNqFKcJewNkGObwEpvC9WA6qdZwKXMJNZ/Bat9PJsG1Nat3u38JNa5gxW/nF8D6uxRLrIIiXXuYdVvhGlAXT2q3StJYoP2sPI382tAHVyK3SxEYv22svqXsmlAzRLVOpOX5C5jCzweogHVjFZqRwaSO5QtcatdAyp8TqUZDpLbmi1ysgoUvFKfxA4kuFKiVXB7FYh6JitzpSIJznKTLTOhgg5U/rwq84JJ8ka20KshOlDQBJca9xuT6K5sqQuUIKoSoYNndkYSXSzBWriJFuT49rECh2uQbNvfbLFRmbUgyjI1WdjttiT9G7bcRXoQhc1LFXSvqz9Jz/HMejxvKEJUcEqckMudA0n+QrbgCLsmRJl/uobn3tHYRgpW8ohIubB94YSRI8bN3XgqTgR31IWI6ix/AXVtaBjp+AfDP1v7TQU/eklb0XYL7uHdd2pDFNR85VOQS+Mqk5Z1GTxldQN/Ss+aM56BcR99iMjx5oh9iV6KWvdNQVL0b6wnw3NSuju/uYkVE6zRv/1rfjvv8PP0cN/dMa5tEdL1HUZOGpWRvOrXNQaJw7X678yVm3XpP3HukpVrflk0e8z3X3xYPIAU3oa0qxB5PdMcD9BdP9WssZgHJ6ErQdaLxOHPjG8aw94oT6A59+IcMr3AJzAHshGs30IYLmN4rRn19yBCngAzyfB2oOwKJOyfUR46jC5bGsixYEJfCsJ1ja4LY97PRfD++0HmGt12jLRaJDD3Q4wom8EFJWIMJpH1MbiKwX3MkBF+MmgJxkCDGw/hqUlCsz2F2GNwRyBWkNhwiAR/YwtKRXAVkxN0H4FrGVtNRlxNgn+E6GFs3SHelJQxHmGJsc1FuECiFyNEGNvfCP1lvY8QbzO1aIQSshxPATjM0EIY8BYJX41Q29BKIiyR1h2hvaHVQ+gqrTJCP0Nrg/CGtEAXwGRD646QTRrdAlhiaAMA4kj8XwCbDW0UwC15awD+MLTxAKflzQPYZ2iTAY7Jmw5wyNAmApyUNwvggKGNATgvbzHAHkMbBhApbzPAb4bWByDNIe4owDpD6wTABcVFA8w1tKYI9aVlZ8BRhvYWwgBp7yN8Z2hhCNulDUX4xNDsqQAv/IUdQKhsaHQDgOvJyupCyGxqvyHMk9WZAaPJ1MciPHOKOoCw29jaIPCXksow4iRjKwFxVtJiiPbGRo8QuJmcImkQhc1tM8RFh5gVjHifzP0HCO4l5S2GXGVw5TBehMkIuIjxpcHRPQj+0ybiZ4b05Da5eRg8SEIDD0YEmfwHIO6GeCWfMmZ/o3PEYHB8NbRcNxm0iNHRbBB+XAEr2zkGPUFmXx2Fn9RAynuBUbsbHp1B4YSmOBXuMmpCJtPrDsOeEXaQtgkMu5RMP/QpDPOBIgiZlzFwJeOjsUCc0DfAa22iGHgPmX/eZCDmm587vFLvCEN/5APQDCjmmz0zp1dAq6OMfZh8wTyJWMyJa1pkfLWAenMeMXo9n4AmoDFz6uGJ7atm/a/Qcp8O/yOO8f8i3zBTDN5/pz68czsqkYW6K/kI1FWK7AXkK9pPWc/TnD4DVU6znI7kQ463mj3kSwZdsJbYQj4FVUi2lHbkY/a2kl/J51xrHedDfI/Qi1bxvBj5oMUfW4OrPvmkbydbQjfyUVt7LGA8+axd9ZtHPmy4divsvgyF67bMQb5tF7dis23k67ZMUms4+cBvPtIp9QvyiYue0yi6DvnIwSv1OZqffOfuibp4pgaQL13mjCYPPiIfO2BEqhq/ZCffu9wRHW5/TD657YsoefGDgshXDx3xQlbaonzky2cbnyDH/Usx8vWzDY6WkTCzCL0ODPryEN7Vn7LRa8MyE+4gPVn4Lr1etNWaeBHj3oIG/vQ6skDnZTe9E73x+3L0OjN3/b6/nnj0ai/ObRj2SVF6PZqhzLvNO/f6ceDgPr27tqxbIRv5tlZQOCBmCgAAsF8AnQEqOwEAAj5tNJFHJCMhoSva2NCADYlnbuFmzoP+R/gB+gH4Rn5Rpf0/R853SXW9iObD65uB/0vVLz7PSR/zfRJ5z3nm77r/VfUY85v1k/8Xk4HgD+AfgL+AH7+9/gnnijMOoAwFp3qa/PfwdcU3c5u5zcsdlGwrpVeAzXRHh26vJaXuQnW3fvBY6jFYB+CANo8O3WCxaeB4BHWaLXTeyaAiA32Bvhg1yiij2aPtzq1N3ObucxbTrgaV3tCosFpxmZAXknS85pcipyPm/0LcgnmSZc+zyH1yYhOgm5ZqAquUc4nVSCIf4rkE2TclRJ2ajMZtyCMpJ67kxi3r6d7gYl4uYzkEeCnG2WbRMzRYtTiPBUfffQqH92fVCughu0M1MX6eH8Fsxy4CHV1/+MCY4zPy8NMmHoV2Zmgdb3W7WaRQ3q2x+UNhIHDFfn9nFtykjK0dIrzkBc+TSNs1Y5+09qY3gy57XV3ZneuH6eU+41CWt9Wrlb515N2bLsgcKUJHVxpQZ66+Igf9hOGG4qcTrIqS1KMXUc4Q5Bb992+VJhhOfViIhqFyjCui2Sg7AA5+Q3wPrKBbR4dc7JsttmQT77q5pTnftBgErw+mdCER2aSdgGh7gBx4UH3DtSRnyIV182TvBlV+KujQESgMmdNZBj1SrFIIEIeHXRYhr1edpsflExvDOMm5KbSct8KKOauSX58hACCn4GjXQHoZrQu30z4dRJxKZTl8jXh0MlVxLO9Kyy0SYvOKgDEAbJV+dWpiaAhNyx2ZCCG0wW+ZFOiLdtsyd5q6FwIZTpFeePXK3E3WQsnSpUvgV9wMM3lx7cYNytzIIjeDm47BWplVg9TPcBPr6d7cKRivX/drAKHvq4iduwLda1gNZtuZa6pyN3inPppXF6AK9XuXw9Tl/AaBOLYAWFtbwI2bQMK6LaJYvzc3CG4vvGsH3tAwrotogu3b0HbkUjFeLitldR+10W0eHTgei3IRGjq8yOc3c5u5zCsArrccqA+MYrttlmy2jw7dYKgAAPZHNmftX69EZdyH4nzR65emB4JXrL68ozdOfcFgEwQhMSg4keSXHh8eOjQc226KdVHbJivd87X6EIjxzMgAANqJ4o080PpBusRejj8U5ZSQDBfFaBSghyRAAJu/U87oGMJ4ZbEkc8FAyLRLMubarhJ/c6WbSZLhoW422YedyR2zlKLchawZs3AgAGuCBTy61bkXw9uyJxyOQErPfONVfUmVGsWal+FOrqaLaF6RYIAAdCvSPtkHcBR77oM6EJfFvSIGjOpaNLx1bZ3YACQmsoK9vF4bO03B1XHiV5EPEnMMNu7x38bnulHv6I4UF6DKI81EmpzWY6j9l4k/t//7YyjqmfSgzIqsRpTf3felR9L4dyH65QNRLttsBruZyv2nn+WTCueWGgVP67b60CTP8woAzecsr5z+42pTwxc/a/ffDOq/s39Hm++h6UVgc1fAHxlBWYX1PMZhmJtj4QQTcbaaoPvds9GnwWjdDNREnL9dDPp8i+WGU1BhZOGrJRx+/5UaLlDI1AAMgmF4qD/oouWx6Wb7jqrr9+C/gsR9S57jsCHScSaV7HWWac1K/m8/fQVV1EBnsW13q6tYv2eWyl8KA7YJS17aD5slIUbisjWv/HbjrsAawcngV4RlKyD0B45Du+wRnf5i685WCh145P6Qd5Mi93tOib/ucylZ/+5gAjtI/1mTw4qbgwpPVzgEP+Zu+2EmMpiHQtlM1Avre35EuT/zQLsgsdoy4Tm5s3x8k8vWDINfQLKmCWxEe9Zv0OedX6uCeV4mVD2UpQgJAr5tRHbEy+nkVGz3szPDU4jHem0BCe9gB0hDuwilxCEyVAQijLM5aMTKARrVgTHZ648oO4DM3Vb2vxkGNTmUZeToZ98nUkw6looOhBgh+uC9G7fr6SwMx4vs0roaVycNWSjj9m40X4b5Y6wAADEaDP+9m3L/YCpVemh09RPc7wxkABsyyryHnq1oEZSWnv+FHXXp56f57BVKNc7RCywWkjnW2vpISHSU16KCrJLwhzFAaNb8Rj0/A3CDV2LMiyIiMypVs3ptDrJZ6Rra9Uars9z2z6ELLsM0ayiL0etLtJAp8GzOThl/GxvyB8vPDITOg/ET/ShJGhdbn/ZOfvdgrkb5se/hZWk2KrzOjbdvVloJlr4isdnVIZrRL/YAZ2n9f4A5NEdfMoZX/5z6rF657DfryVfImKZTTpoCTZPD4ZzHnXGpqAeaMeKEroZ5Eg2lTST/AF4WMbfMPXEsLUqPwT6ilsAYDwWyYiwX6RzSlHgT+ArrAAB6c1yQAP5/5qJsQSRYxNuMjob2n+PQM0yeCfmQAAi09qYfkfAlDOcwW3QwmEllGJ1e6ehcqXDZZBSu5v0C8ya4JlXXRKApuVEFh9KoxmirRSiU/2O7U81Lq6tXrV2dQJT787jBcQT/OjGXl1HL52/wHKqDjkcsxE3Xd72lma79MWLhXcy9uFNAh0F1HSCHC3DF9UASmZlgsXantGM3aqJndhDzQW1PUGFNevFizBnhFjOWT4PhkfcLyskd4uvc/aGOGbbK+xtJSz0oyAAVr4Dy6YGg3GsOWIBdYOp13b5I0aq6yAQS/lIqblOBZlgkkHan3IeNGOOfM43c8mzRM1QxbKKLcEFn4hDYnQpxhB4Ry449yvWBMZD3Wmw1N5691nB/ntpykAC6DC+bOIyamT7HTkdmN2JOvzuM2Y0UTo5FSLdGHLtuP+E6A+7LBREUcbUbp3ONbzpvZB5MyikCyylgJpngsupS+FBnjY870m893SY/56XB2AsRVpMRBBFAOswGGAlfDaRT3avuTF3oOMwq0wADX7e2iSF2fDJV9E0N2iW1D1kP84TGQ+QqPfH/1tQxWj/n3obstKogVUjYxkluTue9/pFm5/J21GPjZFi0WmNGvptRkhxV+y1+c4h4w/4t8eaqPYmGmTpewn8PW28T1APYnTkw/V4ehKjsCqtlSKcjn3yHAx7VN7AZzRsDSyIlDdyfpt9vxofQopG+zDBrRGYOB3xNqF6diJSR/p0+9oAHW+dU6Y4xzjzqRQkz/FuBn91xOnKc+qn94IhCwJ9htPhPzVdedxnntRBjb3CWWJWMTIkzpLC6v/k9qn3sWfC7SdIUfJIRxvDJfvDJBSCyXg6OYYQO7VL+UOOvpQ/VCp2Y5NrCw9XzjCNdRjRCQzMCWNGCz35x80/rpgTyaUpo/PqCM18NWqo9rPhg3NGWzqylsO4Dy91Bw0SHt7Z+6EvgdZHmHkbSMaYv3HYSk9l/kXk3elC/IIIYDq/AY83Ee96mk8ZnNIyWgAANkhExQL3VYI5EFO/JlH9YhBiaFjVju9Tbq80Aizy7qAA31R9S38KJ4tCUHcBma0Q2RNc5Jqm+q6XByX17JgtY0fzqSFBhGovZOmBcsxkAAPbQdKkZC3pwA104vyfoAXj3rrWPRHQOfb3/7LtQ5gAAgKXS3yh59ho0g3paH4YLqttLA0CCExfybi45lwdLSsQ1Nfi2TzLj/VWpz8QQAAAAAEVYSUa6AAAARXhpZgAASUkqAAgAAAAGABIBAwABAAAAAQAAABoBBQABAAAAVgAAABsBBQABAAAAXgAAACgBAwABAAAAAgAAABMCAwABAAAAAQAAAGmHBAABAAAAZgAAAAAAAABIAAAAAQAAAEgAAAABAAAABgAAkAcABAAAADAyMTABkQcABAAAAAECAwAAoAcABAAAADAxMDABoAMAAQAAAP//AAACoAQAAQAAADsBAAADoAQAAQAAAAACAAAAAAAA;" vertex="1" parent="1">
          <mxGeometry x="530" y="160" width="58.4" height="94.92" as="geometry" />
        </mxCell>
        <mxCell id="ijN-LjG9Q1Vtept6cL2q-6" style="edgeStyle=orthogonalEdgeStyle;rounded=0;orthogonalLoop=1;jettySize=auto;html=1;" edge="1" parent="1" source="ijN-LjG9Q1Vtept6cL2q-4">
          <mxGeometry relative="1" as="geometry">
            <mxPoint x="190" y="200" as="targetPoint" />
          </mxGeometry>
        </mxCell>
        <mxCell id="ijN-LjG9Q1Vtept6cL2q-7" style="edgeStyle=orthogonalEdgeStyle;rounded=0;orthogonalLoop=1;jettySize=auto;html=1;entryX=0;entryY=0.421;entryDx=0;entryDy=0;entryPerimeter=0;" edge="1" parent="1" source="ijN-LjG9Q1Vtept6cL2q-4" target="ijN-LjG9Q1Vtept6cL2q-2">
          <mxGeometry relative="1" as="geometry" />
        </mxCell>
        <mxCell id="ijN-LjG9Q1Vtept6cL2q-4" value="Debezium&#xa;Kafka Connect" style="shape=image;verticalLabelPosition=bottom;labelBackgroundColor=default;verticalAlign=top;aspect=fixed;imageAspect=0;image=data:image/webp,UklGRpAMAABXRUJQVlA4WAoAAAAYAAAAawAAawAAQUxQSMsGAAABoEbb2jE5et6qaluxbYxj27aTmokzthnbtlFjW7Ftt5G0q77v+dHv+/V33/BnREzAbi68cXHXiNKCClkziwuf+d/UJsFUyNBTXHjzhmdceUFyOwrenlYSx8zev3q5YAWTF1bEMF/s4dCAOX9rUR2Ybw93YNj7slMH5uM1tGDj8wAM577o1ILPlNGCvZ84MJzdTQ/+LVwL9vUH8dVIPcy3hBZ8vQyIP9KDk0roYc4ToCtxevA7evDt0iCjpybHnHrwSBAv1CSzmiYbUH8F6GH00uQc6ly4HjxJkzxUYrQmL2rCqKSYxyPb7w/vKY6jFoLSYmUlM0AzZAF/oiaCuJzMcQ20RUZrUM/6QK1ltAP0j0v2AiryFOg1xTDQtWKyGmkg+sDEfK2IuYnxNZYJD6pkAiY5Qibew/CHMmqAovEGxBgko5gjmDN+MrECFbAdwj/4yeiZDAi3lVGxQyAq+hskp7GC+mRCvnLIqOZlEEXs9AH4B5eCOt5E5HZRUKW9JoYCX4wHGP1UVON7n318IEJBsTMzMSTKT7vltYuvllFRQJfvc0y7+HOhIOeTq5MNBBEFt3xjxR6Px+P5+dDlLGv8bYSKSJQbOG2rp+A/J+MNa3ndVEQU2eX99R4bLVh1xtUZuC7BirnEYcFySNkmb/7ts8C3GlnR3BE5cJ9XwcbsQFsK+teYmaji+Ab3ChEF9DuqYN+6KLuIqPTCuwqO7+q4Z4ii5+XLmP+uZR85m59Q8J0PnPcOie7xCr7zbpRtRJGbfDI2/2vqumeInrmpYD4xLtY2CppqyphztjVw3TPU4KaKjesL2oY67SG/maaCOeufiZX8HPa0dRd6RKf6xYQVanRHVfDu38vedRcc1qZqmBUKWG2qCl7eM/NFd8E+z5V2WtjNNnqv7uwfbIEmGJYsZx6bXluoKPaANatm/LcjwxDM7DvZzaUK2GkXM2euKaWiZ3JtYmbj3EB/CLN3SbiCaibZx3yts0MhZtjHbGyOxTB/G6ugWQjO6K2gcjcAzL8VAfGOUEWxuwjO6aSgzyH8exjIfF8h1kL4aiVFlWwIzxEYzqkuow4YXueUiV8xmQ1BvE3I4i5hvE/JaBKGv/UHpVSRia8wvExRG5RVB8TjZfQB6FawLOomht9AbROy/iYmt4EscC/oB9TBYFnLfIw5WCY8oOuo65GyWlkYflFGm0EmKilGVlOXeSB+PLROkxqZoKm6TAXlFJVFpYLmKd5BDQFxTRmdAnkUPUxQtWxQX8VC0KEgWYUkUOAfoKmKFiYmrbxMfAuiET7MPkXwPgz3lFF3VPABTHY1GXXPw6wXMvEXiJpmQczXFX4bMSmRMnomFeR4zYfgYxEyij0F4XEK8Xwehlwf5yHMYQqqeARyLlpGNDEXQ64JdwB8NkJBZb9BGC8LhWNYIoZEvW/z7OPPhIICx18xbeP4KgoSFbfnQIhEy5Xn8+3Kaqciih7/y227+NcgBZF4av6pLAQRxdTtOsbtdrvHf7bxcL4lvlDZApGrdIMeY9xut3vy9C8vWzOnulREFFGt7WB34a1YFa64XtuSLfCholYsO/yrvbY/R8X5rzit6F7+/Zsq/ruCPQX9W233KTj/Zdc9Q6LMQkPBp5+0jciv4wkF588PuWeIqO05Bd+dEGIbUcjsXBnz3rri3qEKvyrY93sTYRs5h6UrOOWLIvcORe8yZcxZX7ULFjaR6JihYL7xSWXXvUKR36uY+fyCLlUjbSHqnqFizvvpjSZlgm1501P4rTOGVLJCxc9aYTbTz+392uPxeHYuHP+U04oY77XAzL74k3s9BXdMHVDCwm6208z5o1+QihresWQ9/9yLcSpyrLZm2bz7dVN/BDObvzylcnxk2sXMF3q6FBR3xS5m9m4qj2FO6a+gqLMAzpnhr6DRpn3Ml58Bce4Ih4xGIJi3+CtC9yI4ox2IMzspQq5AzA+EjMYYCL5dFcQ3YmT0MYSzOigiEyH8SwCIFwhZ3WwIHwiR0TqM4UYlVZSFHcdwT8VADB8MA/GrMloN+kHIynkxRivUr/6yyaD04rLwcxieg0qKkXX2YbztZH6/gf5HcWVZg1wMvyCjnaBU2FOymlmgFxUrQHyfmfeotuuBslyTCnc0mY16X5OgZE1eQnXRhP7UpKUXVCpBk7c1ibsKcmzRpGq+HrQMRE2z9XBu0KRWHsi5QQ+ql6oHLQRRyat6iBcNPYocBVGzJC3IsdLUgupfB4l2SVpQ2EpDC2pwDUNU62+fDuQ3IVULKv+1F0MhE86ZGhDV2pChA/kPP2RAiKI7rziVjyNXlcnfxOOIwlos2J9pBwBWUDgg3AQAADAVAJ0BKmwAbAA+bS6SRaQioZbcldhABsS1E4DfA81WoVytSq3f775r1hf2n9r5Sq5fG/6o/zj7AvO68wH68ftz71n+L/aP3DedB51/sAegB+4Hpu+xz/aPOW6gBXuoAPaJqAfxPpKegp+qpbVBjXlSoV+VeXNa7nB0T52eHTihteeRJJdzgW6C+NRbFjEypGe2d8LSy4nCrhcwAMEkQRhMNxLl55DfVuQfjutp5hZPN4AA/vBF3/9NI/TSP00jZD/QWrxU1qcFTTGBJKiYWj9M3Q36xim/WR4uQN/jvYOrATtsibFJswXBkaRGvTtEyO+KMuwRHy8zwOr0KLbr6ODc35E+NO9Z03F8XtCgI5JZ+gqj64kwZfm45VqQfbgky4kTekf+57wZUqS20bEeawaH6Qc3445K7zFffc8wS4eldeG5QeoQEasNIW5li75LiesZ3kRrC+HCvYY4+NcFaQfEzck74YZ9GzA36lFuTIBrcFxo6tSsAlxBCXSasMk/5z6ZHujxi97/mQXPeIt3tSK9dkvhzS75qxP5EjX1TFIjDoNEpx8UmLBxelk+WFm0IWFevpuUs/FdoCw2Y/JAWgSuwhwE2BHOjW35dx4IcgoR0kJBBhIaAJNEGQ4t5eYWydJWTBaiIUGVmjIbiV2GnC8dfQIkGJhinl0Aff4b02BGIXjKaanvQIdfe3keTvsR/+3TVFgl2noNCWH1NgajVQB32HB1KWda7KNKR+8dd3LrD8hBeGo53hPx2bAd6ySxrBh/ylx9PX7g1N0iukKAWUtp3/nKu+QzA1YyUSW6SaGs7NRr1DWSknxUqDD4DOEydN36qW2D3HBrphc+xCannxp8Z/tMQTnVwzOebIUA+AnF/5sA1Ya255P/Q5ESlpdzcYdbqeuGVTexu9Ti34/NuwrN5VpJgbAi9mux2rd71kslSqq0fUi15ku9zQtIdEPpAdMWDdtawM8y/w/fol2X7fgiyaKHfOFC6UMuf/n3UsNjs3geldFQJbcR4ps1I5h/oidANvGIGyra6NVvyqruHAAsuH5+j1qe5bbS7Jx1qTXRVwdoxywFa8Mi3kmkjZ0Avcsu5zjSRX3xEepYPcjMSBJyHpR3jw9FJOMwwjUjNasAz8LaaLf0eAjeUzbRRRNu462HOndCVneRe7xC4bM71kD6VihNAhdLMq+3en7EpAXqRjWMqRMQBu8ojlNaIHr3INuSvgeVCLMWAmoxHhrbkJe5j4omQz6+t21DyBJGXmWJQ+ZCfbDeZ99Y/MB3oOou94M3T+pzjUKYN3zB/VFV0+IU8cVqRAuVcyT54WkZBDxNE1iMCYZxBSGKDvIUpJUSwEcWv/xtTh0xyNBXFjZ2u5Jsjk/wUiUalzjKFagvPH11qJgq6cd7Uxb4n0lzZNCLM6A/waU/DMUQqam3Rrlr5ELidDfuARRYkRA8niFQ0hTsJqv3MStAjUCeEaPRy/psngqBS4I54+eLFFU3DL865V1IFoBhwpimmhf4l5Gn7ZEJPHB4sRDVpkaqsFkfjQlwlU3x9i39oLUnWceMDgMqRiA90IDWGvCH+12P/Q5180ee0mVgG7Fio5S9XvNAmXSu9bmMwcZZ/o3/ti4jg9hXuaCZ2oOy5xWKrL1Shl0eRPnZiHqNmpbnpwAAAAAARVhJRroAAABFeGlmAABJSSoACAAAAAYAEgEDAAEAAAABAAAAGgEFAAEAAABWAAAAGwEFAAEAAABeAAAAKAEDAAEAAAACAAAAEwIDAAEAAAABAAAAaYcEAAEAAABmAAAAAAAAAEgAAAABAAAASAAAAAEAAAAGAACQBwAEAAAAMDIxMAGRBwAEAAAAAQIDAACgBwAEAAAAMDEwMAGgAwABAAAA//8AAAKgBAABAAAAbAAAAAOgBAABAAAAbAAAAAAAAAA=;" vertex="1" parent="1">
          <mxGeometry x="340" y="165" width="70" height="70" as="geometry" />
        </mxCell>
      </root>
    </mxGraphModel>
  </diagram>
  <diagram id="ZSKRw4NZ6i0zhw78_F4v" name="sink">
    <mxGraphModel dx="2314" dy="811" grid="1" gridSize="10" guides="1" tooltips="1" connect="1" arrows="1" fold="1" page="1" pageScale="1" pageWidth="850" pageHeight="1100" math="0" shadow="0">
      <root>
        <mxCell id="0" />
        <mxCell id="1" parent="0" />
        <mxCell id="3N7rxfqaKrxfOFPJ_rLn-5" style="edgeStyle=orthogonalEdgeStyle;rounded=0;orthogonalLoop=1;jettySize=auto;html=1;" edge="1" parent="1" source="3N7rxfqaKrxfOFPJ_rLn-1" target="3N7rxfqaKrxfOFPJ_rLn-3">
          <mxGeometry relative="1" as="geometry">
            <Array as="points">
              <mxPoint x="290" y="207" />
              <mxPoint x="290" y="207" />
            </Array>
          </mxGeometry>
        </mxCell>
        <mxCell id="3N7rxfqaKrxfOFPJ_rLn-6" value="Kafka Sink Connector" style="edgeLabel;html=1;align=center;verticalAlign=middle;resizable=0;points=[];" vertex="1" connectable="0" parent="3N7rxfqaKrxfOFPJ_rLn-5">
          <mxGeometry x="0.0923" y="1" relative="1" as="geometry">
            <mxPoint x="-11" y="1" as="offset" />
          </mxGeometry>
        </mxCell>
        <mxCell id="3N7rxfqaKrxfOFPJ_rLn-1" value="Kafka" style="shape=image;verticalLabelPosition=bottom;labelBackgroundColor=default;verticalAlign=top;aspect=fixed;imageAspect=0;image=data:image/webp,UklGRsQnAABXRUJQVlA4WAoAAAAYAAAAOgEA/wEAQUxQSHYcAAABoEZb1zKnuTMTmyS4S3B3hyoUaji0QNEKUgpFmgruDsXdrcVdSqHQQnEN7loggQQN8WRm7o+2kHnu/d7hZ0RMAGmaq/YXwxZuOXjpzoMnTx7evXr0t2Vjvv6gsI1ed+ZoNmFPNKfzi8Oz2hd+beGsP/0Kez1yaeusrx+CW65PZFDXX12zv1aotSiOodO2Nna8JgjsdJYF3h+Y9TVApkEPWWjCzAI+XujApyw4ZWYeH87+dTQLTxwZ4qu9c5oVvN/OJ8s038M6/lHY92oQyWom9LL5Vs5ZrOrvuX2pUhdY2ZgPfKdPXrC67gE2H2kEq7ze6QsFrmClj+X0fTLsY7VvFfN1shxnxaPK+DbZz7Lqjyr5MpkjWPmY0r5L6BFWP7KIr+L3O1vg9ew+yjy2xENBPsn3bJErfZH3XFbB4b5H/mi2zLR3fQ37PrbQ+1l9jP5sqRt8i8qp1sJf+RJ+EWyxz3L7EH3Zctf7DgUTrYcb+Axr2YKv+PsI77LIxwcXjxvUu0f/MXP23BfB4T7CUbxb81vnppfO2GDiabwnGX2CRgz+bO6blK4lRt0B46E+QQRWZHgIpbv9s3NYz7P4AB8zcux3geRV2yd3kHiQD7AbaWVu8nrw6BSgh4HGV5FxY1sQZLWbONzZ+ObhRBQl0EwbcCJML+QFzK4QgrVNgeGqhteJUVf5E3JfmLmGtxdlo4OwB6E89Te6PG6QfYGEPgOEGxhdT8a8mYng7TtAlhndHoyUqiQw+32MJw6DC0nB6E0i33FD8BsG15ghj9pl0ByM4QY3FcJVhYRmjoY4ZHAnIOaT2K8hkgONLSQNIa2wnIC7CPy2sb3LiMtJcE+IH42tF0QVSc5YhOXGthDhPIlejHDG2I4i9JFVByHFYWqPEIrIssUAcEFDC2XAOyR8LUIdQyuLsERaN4SvDO0DhC7SKiAMMLTWCO9Ic7oBJhlaD4Qc0ug2wDJDGwTwgsTvAdhiaCMB7snbALDT0MYDXJa3FGCvoU0GOCFvJsAhQxsLcFbefIC/DG0QwC15qwC2GVo4wCN52wFWGdrXAO5AcREACw2tHQCXlWaLB5hmaE0QPpUWxoCjDK0ywghpjRC6GlomhIPSJiN8YGj0BCA1RNgZhKKmdgKAm8jK4wFw+ZnaWoR1sn5iwFtk6iMQkjOLOoewy9gaInBPSTUZcYSxZYO46y9oG8THxkbXELiTnIqM6Mlsbssh7gSL2QFxicy9GwSPkfIJQy40uCIYKaVlhN7FaGNwdA6CTweJ+JUhUzKa3AgMniuhM2P+TiZfGYQ74tVMBPna6OgOiKsxWqnHjOnOZXbjQTixDlbBfxj0bzL7oh4QTmqOVD6SUdsZHu1CYVc3nPeeM2p0gOk1g2H+NRTDPtjFsGPI9B33cPhKTYSCuxnXVUAxZ8Vm3035deeJyzfvRf1z/cKhLYtHdXm/sE0dGgDEnvlZvRUwIIGBN5POgW/1WXvFxekbd2TuVyV0yfAYiPnJoEze8O94naGrKWSrPODvZPZ29OovculBfaCYn48tkV45v7vD2BtJW9ub0yIZ1HM0PL8WwdFYzHy0Z6lXy9t+exqDu8spk3/oHYb27G0bqAKFwzFz5IoBn5TN6SQKyFa8Qfj8KyxwBalad6uL8R//nF+DoNsC/jcthcWmFVPE3jaChaatKC+PGsqRPJbUtLW6xII9q0uJo/XWcz1IjXcjWLhrfk5peWMtpx4pWWAtKxj7g58s6mk1y0lHe6841vFsNVn2v6zlYXYdShxmNV0/B0qiPNFW4q5LKnaJZ03PlJFEH3osZBhpmHE9K5vYRRKNsY49dg1KX2F9FwYKcuy1ige5SMHGcazxiTxyKMsla4ivQQr2crPO/5STQwWjrCCtPik4kdV+XkcOVYmzgC9Jvn0eK55YXw59nKLeAJJvX86qpzSTQ/WTlBtN8m2LWfmU+nKoXoJq/UjBmax+Yh059PYLvTzfkoKD2QJjy8uhGg+1cn1BCrZjS7ybVw6FndLp6Yek4Jsp1sCnnHLIuVqjc0VIwdxRbJXLBBH1d6uzJoQU9NvP1tldEtW+o0vyD6TiaLbQ5IqSKOMSTU6UIRXfcVsJX3RKImoWo0XKID9SMcMdttYZsij7HJcKxyqQkrPZYj1vySIqv0fe7TY2UvJtj9XwpUBhRE2vyXr2UyBp6XeRrXewOHK0Pi3n6ZhspGdPtuD4fOKI6ON9Mm72CCFFsz4RkXJx44wxA77vO3LujutuCfyrBkTVZj1Bc+/91E6qTmT42M29yjnoZUNqDz7ohvNUUoEo4JPNqUAnf8hHyuZJBEvb3iqI0jN373NgvFUJIsrWbtkDhNSDQ0qQvtMZOmlmAUr/Or9jcQ01iMhWsc9jr7hPjP84hDTOkYTknpubvPvWMahNmhDRSa9cIK2HMfCpGuR1W5fnQO7ixhcUg+MZ4yDEsH04PMf4OjDs448I1DEOJz6D6R2AuV2CcL9IReGvDa8Uo57PS8iNk1FOGN4olGs5CLtRKgiXNLvrIFGFCP1zlCFGV4Uxk6sQ/hiQS0Y3HKQ7CbTvweDiJnccYz2JzPsEo5fBZXdDPM8lg77E2GFwrRiyJ0k9AJHgZ27TIC44xFSH4BrmdhKiLcndDBFubM40hBsOQbUg1hpbNUbsRZKPIVwxto4IqdlFdUFwOU1tMsIWEp0lFYCrmtpWhA6yaBdCK1M7h5BP2HcIfU3tBcBVEl4FYY6hhTLgYmmOJIAthlYQoY80OgVw0NCqIjQVtxrgiqHVQygnbhxAtKE1RMgv7keA54bWHCGTuC4ASYbWCsEh7nMAt+8SJO4rgFRD+xQhh7juAHGG1gChiLjBAE8M7R2EN8XNBrhraOUQOorbCXDa0HIjjBd3F2C3oTlcADulZWfAlYZG9wDi/IU1QRhnagcA+C1hMxC6ahF03iv/VAvSZzHCCGG3ED5UwF6xx9Jzaexl16WVvas6VOmDcMsmqjojFpBWvPfWpwwb98dP5fVogMDviJqF8Iwk296efI3h783/yE+HfBDLJIU+RzggqOqkeyz08YK6NgXoAUJaQUHhjDhVSpaeZ1j0rcFh8jYi8Gw5zgcQLWWUW5TE4t1b6kgLh0guJmYAQ+aR8OEfrGREez9RlSB4p5R8cRDXCb/+EVb0xld+gmwxENxSyBaGnAFX5xgre7ODTQztwHicX0RHxmwIVnorK3yqjpDMqxj0oJ+AsvEYicFQGaelsc6bC0l47y7DzsDLdp0x1xNyuwesdkI/f7SAiR4G7o/mPMigLYDCdrHqF2pglTvL2F2xgn5n0DgnTudYVt410h/HFp7M6P2QMvzJqAsINdtWtsDTZVDy7WGBUx0wYWcZtgZK7ftsiQlfYrR8yiL/zgvyfgzDniVM20A3W+XSYO9lXM5SY5oiOCd6GPdLjNANbKFnCnrrnTsseGshrzW4zsCRARBFLrClxrztFf9xbhadODmvV2rtZug+hFgzhi025QsvlI5g8clzq6SXX/N9jB0dgtA8ka23X7r1SGQVz/epYHulgHqzHjL69wTY2c1WPM2WLnl+Zz1j1g74tFwWPyJy5KzeZsyf8Yx/3wnQ28PWvMyeDs0fs75JT+M9LLU9eb8/W/avjlcJXcxmecTmvR/Ywlc5Xu6Nm2yWrmrk9W/Z0he9jN9IFxvmZPJ6e4+18YT/K3GcTfNWsNfeT2Wr/+m/vklg03TXIW9XjGXL93xKRDm3sXmOJW/nuscGmFCNGkezeR7z91bAITbCqEVsoI8KkLcX8GtLVz3y9lf8+rI3ebtMgpklWcI08rbzApt4av+81y1gk91r09nEL1chKnRfvd2B5O26HhOb5SQiKv1AuYPB5O0Md9i8H9Sn/y5xX7W/QsnrM9i8N2Wn/y9yW7Hfgsjr1dwKeP75a8OymWNHTVu8btfVNP3iOtNL5zml1lJ/8rrjFMt2R0z8rFIwvbR/ySZD9yVrdqQovWLoDqWGEGBXlvxsfvOslM7O98ffVSptqINe2TFRo/jWBJgxWk7atpaB5FVb3aVxCl2vSenaKl6da+UIcRxLTZicjwBDf3qozYIQSufSZ5RZmYkQ8yUJiR2dnUCDetzVJKYppX/ARI8isR0IcxaL9CzNQcBBw5PV+C0XebX2VTV+K0CYYSkizr9D4MV26pDYnbwdNCpVhei2hDqbBbpH+BF++zgFTpYiwFLb5KX8nJFQcyQJeFiPRJY8J809xp8w652W5VldnHCHMf7e3CTUuUDW7bcJ1tbstBzPpgoE7IzBW+FPcvtJWpaRoBv9KSN5URmC/orhp9hIckeXlCctCb7cvBdwNwfkJvAjcANIeJNkGbvzkcTgdn+4gZ4trmcj9PKMPprEf+oWkBxuI6nZv9qcAHFvfqMAEjgNbT4p+A3e2XIkOrD2sH0JXolc27ssyXREg21yaEBD0WYFknx76XYTNp1LeKXooysHNCpAcj9i7EshpONGsG9Jzywl327ermO3nl2/atugRtEQkr4MK6EsKZn5NtZ+RZT1f47VkdSskQrlzmUodRl6DSnaF4q7GMoUqNg8mvhdgNpqKNehepOq70LFBxhJAUY+7dCFliNxXSP5Eup9UjZvMtJoI1mGdJTUnYN02EhuITXWp1AaUIrTQLIz8FmbPrQUiN82kPpInUnhKkg/GMhgoKSMGtEFoJUGsh5oNancF+iygVwEqq9TPjeOK9A4/FJxYh060UEcrmAcJRl3Gyk9AqiFcdQHCteqDlA/4/gaqKJWgYk4c41jJM4zm1a0F2eHcSzBOUxqz8I5axzbcZbo1RMn2jgO4fTT60OcNJtpXMZprlcBHM5gGg9waurlD5TfNJ7hlNWLknFKmEYCTgHFHuFUNI1UnCyK3cKpZhoenADFzuHUNI00HKdil3Cqm0YCTibFbuJUNo1nOGGKPcYpbRoPcSrrZXfjFDCNqzj19crNuJlN4whON73ewHHbTWMHzkS92uE8JtP8BWeXXuNwLhnHWJwHeu3A2W0c3XG4oFa2pziLjKMxUFutyjDuYOMoD7RYq95AbY0jyI0TZVNqJ1A146AbOFxLp0wpOJ5Q89gGNFmnLxj3FpnnaKAHfirtBtpoIM2B+BONiniABhpIfqQ/NfqZgd83EHoAxJX1yRgL5M5oIuuQ1ukzgIEjyES7I3kqapPpKdIUIymNxLu0GcvIjYyEopC4kS5Fk5FSQs1kIdStYFV2MvJuMtOmUDxZk/YM3ctQgpOg3O/pUeAZVkFDoc1QfC+7Fn77GfokmWorLN7tUGISY/9kLM4XWDxJhw4MXkiNXDU+/Xbo1IUr1qxdsWTu+J86flzaKYyWgfG3GtRJQTtQSF7gG70WH3/B6eiJ3PVz++KCaqO528qrGsvwse1F+dUedTCZvRu9sUdRIXQZjNNaSKv4mCWuzCTF2WLVc8a8NrG6iHA0dn0uq9ZTlvnPuxJs7y2PY+SbIwvhZUlAY08/SU0SWKp7rD9apvBrDO/e1dQORjPgmBcFivnRzYJPloTKO/EFy7zWzYlVxIXHxwvKyLCGZSd0xck3K5nlRvUIQKK1Avh5awm1brL4LTkwMo1LYtn/fG4DKu8RwLwhD1rwJBcr+PBjAFunGJZ/7A0cWiOCn//gD9XyDuvomR7krfKHWUXP/Ewwpd0imK+1tcPUPsB6XqjoFb+hqaxlZFMUWiyE+WLHAARbg72savIPtvQrcYI1XRgCkideCvPDccW8leOHy6zunnzp1SGedb1WGYMGy2HmEz+VSr+8nXelscZPPk2XwPmsbtJXGM7bkpj59pLOFQJexV78sxlnWe/Foa+W5whrPMcPgRoI+3fq5R1zRvTq1L5dx2+HTNt0JoGVv1HrVcrfZZ13ZUSgdfIsN22I46XqxLLW5/Ij5HlmWsyHCr9E02TW+3YRAGpnXvzii/9plcaa3y8FQOvNi3lNln+1SGPdo4oCZI8yML73HlHDVNb+Tpj3qI7LwNg9oXYi638lq/doiIlZ5f5A79l3vrbgFd6jLNfMwGMi/L33qFSsEbTrFG8gabW9Rx+nGcBIomLHzIMf5vAefWV9y4mI/Ea4jIO3AdAgq/vd/19Eb902Du4GQFOs7VAI/W/G5cYRVxCAZlvZyUz0sp89Mwz+HcG20LpOZqGXD9tnGNwagGwzrepwJnpVe99Us7gXDEA0xpr+DKV0rHpFGU/UyV2bN2zbe+GFDB4OQT94LGh9IKVr8Bw9Ipd9Xc1J/5/rg4G7kvAS80BQiyTLmWqn9G4co0LU+CqUjs7m61LAeAYG1Yq2lrTu5MVcO+QdbuFH6Z1jUDRWchgGhZ2wkkd1ybs9kmSd+oC8GtznORLPBKGgxdZxoiB5u+wZQc++tpO3cyxDSsgKQtQx3iJmBpL3AyZ6pOzKS4gNHuLwIBgqGWEFj5sTZr37Itz9bYSZax9OlB8MBYxzqfdbbkLNul5AfCOC9ZsPw01xiKpf0O3Zl4T8VRza05qEPBJmOxIFDE1SbE1uwi56BOt5VcIehuLKiURUZLtWVz8keL/hLqCktwh9Ogh3xyJqdFGjp+H+JPHNWzitCd6+HeRvNHJ0uq9N4vjMJDTDMpRJJDDzDQxPTjSioF73NUmclpsE78M45S+BaqRBcAc8osBuN7V4Pi4XSQ5IgEgtTzLHYqyQQGRvuleD670ykOzaDDmWhAbdgngkg4jKT3ssK3X9hzaSPhTiYagUagnBpaQQBbbamizmaO8cpOAfEL1IrC0CopMcIsrYYWsCnvvgj4VJRVsswqMgOdQCYpEoIgr6aOolpMhf2uUgLUsw4igSbL+NECHt3zmaTz4U7z3XuYUdS5CmLRHcBSXRQIRkhwL/tpfs452l1Z2k7XCEfSS6EAKXVoKomnd6kL6rEL6VRScQmpjaCYQiwoYj9Da1RwD/kPA6CFMNLYgBV0tzugDWG1oBhP7S6DLAPkOrjNBM3CaA84b2HkIlcVMAogytMUJecf0BnhpaSwSnuK4ACYbWGsEh7ksAl6G1fJ3TFMEpritAgqHVR8grrj/AU0Org1BZ3BSASEOrgNBc3GaA84aWD6G/uCsA+wwtEGGNtGAXwHpDo0cAd6W9x4BTTO04ABcVNgKht6mtRegh7CRCE1MbhfC3rMKMWNrUPkPwFBI1CCHJYWqlEXiUJMdthFNkao54hMdOQS0ZcZGx0V8I/J0c2xmITuY2EiI6g5jPGLKkuX0IweOlOO9AxJC5OZMgUisIGc+Qvxoc7YTg0wEiaqVhtDe5Xhg8VUKWWwzpzmFyYR4Mbovn2MGY+8jk6BBI8jtwsxi0m9n1AuHYamAjGNSV0+xypIDw8zegxjDqVjI7WovCCc1w/JcwbBPTex+G3UNsIHkOMmykw/RsF2GY9+SHaBzDuAPJ9KgTEMd2d3gt9woGjs9qfoEPgZjPNvBO6MAXjDydVLW38s74IKXoeyjm46380i3n0EcMnZxfkdI/7IhlL6ccHF7LrlFQJBbzw4nVbekQ0nJDKoNPIy1rTLzFoI8Wf+ynDnVHY+YHv3xTI+Ql8nw4eHcywyfk0iH/4JsM/XhaBW38LuH9Z3TE7q0bt++/FM8yh5CG9ba4Gf9oW39V6GMhwv9xynO0PcdCI38I0YS2WVArkm5vf40FP+rrVKRAnOVsJ+kfnWHhkZ3talBPq4kLE1ZkGysY8aYa9r8tpiuJ9huQxCp6FmVWggo8s5TNJLryGVYzqqkS9JmVRGWXZO+bypouCNGBZllH2jskOOefrOzV8jr4H7aM3iT4rUhWN6GDCpT3vkUsJ8GdUlnjyXYNqFKcJewNkGObwEpvC9WA6qdZwKXMJNZ/Bat9PJsG1Nat3u38JNa5gxW/nF8D6uxRLrIIiXXuYdVvhGlAXT2q3StJYoP2sPI382tAHVyK3SxEYv22svqXsmlAzRLVOpOX5C5jCzweogHVjFZqRwaSO5QtcatdAyp8TqUZDpLbmi1ysgoUvFKfxA4kuFKiVXB7FYh6JitzpSIJznKTLTOhgg5U/rwq84JJ8ka20KshOlDQBJca9xuT6K5sqQuUIKoSoYNndkYSXSzBWriJFuT49rECh2uQbNvfbLFRmbUgyjI1WdjttiT9G7bcRXoQhc1LFXSvqz9Jz/HMejxvKEJUcEqckMudA0n+QrbgCLsmRJl/uobn3tHYRgpW8ohIubB94YSRI8bN3XgqTgR31IWI6ix/AXVtaBjp+AfDP1v7TQU/eklb0XYL7uHdd2pDFNR85VOQS+Mqk5Z1GTxldQN/Ss+aM56BcR99iMjx5oh9iV6KWvdNQVL0b6wnw3NSuju/uYkVE6zRv/1rfjvv8PP0cN/dMa5tEdL1HUZOGpWRvOrXNQaJw7X678yVm3XpP3HukpVrflk0e8z3X3xYPIAU3oa0qxB5PdMcD9BdP9WssZgHJ6ErQdaLxOHPjG8aw94oT6A59+IcMr3AJzAHshGs30IYLmN4rRn19yBCngAzyfB2oOwKJOyfUR46jC5bGsixYEJfCsJ1ja4LY97PRfD++0HmGt12jLRaJDD3Q4wom8EFJWIMJpH1MbiKwX3MkBF+MmgJxkCDGw/hqUlCsz2F2GNwRyBWkNhwiAR/YwtKRXAVkxN0H4FrGVtNRlxNgn+E6GFs3SHelJQxHmGJsc1FuECiFyNEGNvfCP1lvY8QbzO1aIQSshxPATjM0EIY8BYJX41Q29BKIiyR1h2hvaHVQ+gqrTJCP0Nrg/CGtEAXwGRD646QTRrdAlhiaAMA4kj8XwCbDW0UwC15awD+MLTxAKflzQPYZ2iTAY7Jmw5wyNAmApyUNwvggKGNATgvbzHAHkMbBhApbzPAb4bWByDNIe4owDpD6wTABcVFA8w1tKYI9aVlZ8BRhvYWwgBp7yN8Z2hhCNulDUX4xNDsqQAv/IUdQKhsaHQDgOvJyupCyGxqvyHMk9WZAaPJ1MciPHOKOoCw29jaIPCXksow4iRjKwFxVtJiiPbGRo8QuJmcImkQhc1tM8RFh5gVjHifzP0HCO4l5S2GXGVw5TBehMkIuIjxpcHRPQj+0ybiZ4b05Da5eRg8SEIDD0YEmfwHIO6GeCWfMmZ/o3PEYHB8NbRcNxm0iNHRbBB+XAEr2zkGPUFmXx2Fn9RAynuBUbsbHp1B4YSmOBXuMmpCJtPrDsOeEXaQtgkMu5RMP/QpDPOBIgiZlzFwJeOjsUCc0DfAa22iGHgPmX/eZCDmm587vFLvCEN/5APQDCjmmz0zp1dAq6OMfZh8wTyJWMyJa1pkfLWAenMeMXo9n4AmoDFz6uGJ7atm/a/Qcp8O/yOO8f8i3zBTDN5/pz68czsqkYW6K/kI1FWK7AXkK9pPWc/TnD4DVU6znI7kQ463mj3kSwZdsJbYQj4FVUi2lHbkY/a2kl/J51xrHedDfI/Qi1bxvBj5oMUfW4OrPvmkbydbQjfyUVt7LGA8+axd9ZtHPmy4divsvgyF67bMQb5tF7dis23k67ZMUms4+cBvPtIp9QvyiYue0yi6DvnIwSv1OZqffOfuibp4pgaQL13mjCYPPiIfO2BEqhq/ZCffu9wRHW5/TD657YsoefGDgshXDx3xQlbaonzky2cbnyDH/Usx8vWzDY6WkTCzCL0ODPryEN7Vn7LRa8MyE+4gPVn4Lr1etNWaeBHj3oIG/vQ6skDnZTe9E73x+3L0OjN3/b6/nnj0ai/ObRj2SVF6PZqhzLvNO/f6ceDgPr27tqxbIRv5tlZQOCBmCgAAsF8AnQEqOwEAAj5tNJFHJCMhoSva2NCADYlnbuFmzoP+R/gB+gH4Rn5Rpf0/R853SXW9iObD65uB/0vVLz7PSR/zfRJ5z3nm77r/VfUY85v1k/8Xk4HgD+AfgL+AH7+9/gnnijMOoAwFp3qa/PfwdcU3c5u5zcsdlGwrpVeAzXRHh26vJaXuQnW3fvBY6jFYB+CANo8O3WCxaeB4BHWaLXTeyaAiA32Bvhg1yiij2aPtzq1N3ObucxbTrgaV3tCosFpxmZAXknS85pcipyPm/0LcgnmSZc+zyH1yYhOgm5ZqAquUc4nVSCIf4rkE2TclRJ2ajMZtyCMpJ67kxi3r6d7gYl4uYzkEeCnG2WbRMzRYtTiPBUfffQqH92fVCughu0M1MX6eH8Fsxy4CHV1/+MCY4zPy8NMmHoV2Zmgdb3W7WaRQ3q2x+UNhIHDFfn9nFtykjK0dIrzkBc+TSNs1Y5+09qY3gy57XV3ZneuH6eU+41CWt9Wrlb515N2bLsgcKUJHVxpQZ66+Igf9hOGG4qcTrIqS1KMXUc4Q5Bb992+VJhhOfViIhqFyjCui2Sg7AA5+Q3wPrKBbR4dc7JsttmQT77q5pTnftBgErw+mdCER2aSdgGh7gBx4UH3DtSRnyIV182TvBlV+KujQESgMmdNZBj1SrFIIEIeHXRYhr1edpsflExvDOMm5KbSct8KKOauSX58hACCn4GjXQHoZrQu30z4dRJxKZTl8jXh0MlVxLO9Kyy0SYvOKgDEAbJV+dWpiaAhNyx2ZCCG0wW+ZFOiLdtsyd5q6FwIZTpFeePXK3E3WQsnSpUvgV9wMM3lx7cYNytzIIjeDm47BWplVg9TPcBPr6d7cKRivX/drAKHvq4iduwLda1gNZtuZa6pyN3inPppXF6AK9XuXw9Tl/AaBOLYAWFtbwI2bQMK6LaJYvzc3CG4vvGsH3tAwrotogu3b0HbkUjFeLitldR+10W0eHTgei3IRGjq8yOc3c5u5zCsArrccqA+MYrttlmy2jw7dYKgAAPZHNmftX69EZdyH4nzR65emB4JXrL68ozdOfcFgEwQhMSg4keSXHh8eOjQc226KdVHbJivd87X6EIjxzMgAANqJ4o080PpBusRejj8U5ZSQDBfFaBSghyRAAJu/U87oGMJ4ZbEkc8FAyLRLMubarhJ/c6WbSZLhoW422YedyR2zlKLchawZs3AgAGuCBTy61bkXw9uyJxyOQErPfONVfUmVGsWal+FOrqaLaF6RYIAAdCvSPtkHcBR77oM6EJfFvSIGjOpaNLx1bZ3YACQmsoK9vF4bO03B1XHiV5EPEnMMNu7x38bnulHv6I4UF6DKI81EmpzWY6j9l4k/t//7YyjqmfSgzIqsRpTf3felR9L4dyH65QNRLttsBruZyv2nn+WTCueWGgVP67b60CTP8woAzecsr5z+42pTwxc/a/ffDOq/s39Hm++h6UVgc1fAHxlBWYX1PMZhmJtj4QQTcbaaoPvds9GnwWjdDNREnL9dDPp8i+WGU1BhZOGrJRx+/5UaLlDI1AAMgmF4qD/oouWx6Wb7jqrr9+C/gsR9S57jsCHScSaV7HWWac1K/m8/fQVV1EBnsW13q6tYv2eWyl8KA7YJS17aD5slIUbisjWv/HbjrsAawcngV4RlKyD0B45Du+wRnf5i685WCh145P6Qd5Mi93tOib/ucylZ/+5gAjtI/1mTw4qbgwpPVzgEP+Zu+2EmMpiHQtlM1Avre35EuT/zQLsgsdoy4Tm5s3x8k8vWDINfQLKmCWxEe9Zv0OedX6uCeV4mVD2UpQgJAr5tRHbEy+nkVGz3szPDU4jHem0BCe9gB0hDuwilxCEyVAQijLM5aMTKARrVgTHZ648oO4DM3Vb2vxkGNTmUZeToZ98nUkw6looOhBgh+uC9G7fr6SwMx4vs0roaVycNWSjj9m40X4b5Y6wAADEaDP+9m3L/YCpVemh09RPc7wxkABsyyryHnq1oEZSWnv+FHXXp56f57BVKNc7RCywWkjnW2vpISHSU16KCrJLwhzFAaNb8Rj0/A3CDV2LMiyIiMypVs3ptDrJZ6Rra9Uars9z2z6ELLsM0ayiL0etLtJAp8GzOThl/GxvyB8vPDITOg/ET/ShJGhdbn/ZOfvdgrkb5se/hZWk2KrzOjbdvVloJlr4isdnVIZrRL/YAZ2n9f4A5NEdfMoZX/5z6rF657DfryVfImKZTTpoCTZPD4ZzHnXGpqAeaMeKEroZ5Eg2lTST/AF4WMbfMPXEsLUqPwT6ilsAYDwWyYiwX6RzSlHgT+ArrAAB6c1yQAP5/5qJsQSRYxNuMjob2n+PQM0yeCfmQAAi09qYfkfAlDOcwW3QwmEllGJ1e6ehcqXDZZBSu5v0C8ya4JlXXRKApuVEFh9KoxmirRSiU/2O7U81Lq6tXrV2dQJT787jBcQT/OjGXl1HL52/wHKqDjkcsxE3Xd72lma79MWLhXcy9uFNAh0F1HSCHC3DF9UASmZlgsXantGM3aqJndhDzQW1PUGFNevFizBnhFjOWT4PhkfcLyskd4uvc/aGOGbbK+xtJSz0oyAAVr4Dy6YGg3GsOWIBdYOp13b5I0aq6yAQS/lIqblOBZlgkkHan3IeNGOOfM43c8mzRM1QxbKKLcEFn4hDYnQpxhB4Ry449yvWBMZD3Wmw1N5691nB/ntpykAC6DC+bOIyamT7HTkdmN2JOvzuM2Y0UTo5FSLdGHLtuP+E6A+7LBREUcbUbp3ONbzpvZB5MyikCyylgJpngsupS+FBnjY870m893SY/56XB2AsRVpMRBBFAOswGGAlfDaRT3avuTF3oOMwq0wADX7e2iSF2fDJV9E0N2iW1D1kP84TGQ+QqPfH/1tQxWj/n3obstKogVUjYxkluTue9/pFm5/J21GPjZFi0WmNGvptRkhxV+y1+c4h4w/4t8eaqPYmGmTpewn8PW28T1APYnTkw/V4ehKjsCqtlSKcjn3yHAx7VN7AZzRsDSyIlDdyfpt9vxofQopG+zDBrRGYOB3xNqF6diJSR/p0+9oAHW+dU6Y4xzjzqRQkz/FuBn91xOnKc+qn94IhCwJ9htPhPzVdedxnntRBjb3CWWJWMTIkzpLC6v/k9qn3sWfC7SdIUfJIRxvDJfvDJBSCyXg6OYYQO7VL+UOOvpQ/VCp2Y5NrCw9XzjCNdRjRCQzMCWNGCz35x80/rpgTyaUpo/PqCM18NWqo9rPhg3NGWzqylsO4Dy91Bw0SHt7Z+6EvgdZHmHkbSMaYv3HYSk9l/kXk3elC/IIIYDq/AY83Ee96mk8ZnNIyWgAANkhExQL3VYI5EFO/JlH9YhBiaFjVju9Tbq80Aizy7qAA31R9S38KJ4tCUHcBma0Q2RNc5Jqm+q6XByX17JgtY0fzqSFBhGovZOmBcsxkAAPbQdKkZC3pwA104vyfoAXj3rrWPRHQOfb3/7LtQ5gAAgKXS3yh59ho0g3paH4YLqttLA0CCExfybi45lwdLSsQ1Nfi2TzLj/VWpz8QQAAAAAEVYSUa6AAAARXhpZgAASUkqAAgAAAAGABIBAwABAAAAAQAAABoBBQABAAAAVgAAABsBBQABAAAAXgAAACgBAwABAAAAAgAAABMCAwABAAAAAQAAAGmHBAABAAAAZgAAAAAAAABIAAAAAQAAAEgAAAABAAAABgAAkAcABAAAADAyMTABkQcABAAAAAECAwAAoAcABAAAADAxMDABoAMAAQAAAP//AAACoAQAAQAAADsBAAADoAQAAQAAAAACAAAAAAAA;" vertex="1" parent="1">
          <mxGeometry x="120" y="160" width="58.4" height="94.92" as="geometry" />
        </mxCell>
        <mxCell id="3N7rxfqaKrxfOFPJ_rLn-7" style="edgeStyle=orthogonalEdgeStyle;rounded=0;orthogonalLoop=1;jettySize=auto;html=1;" edge="1" parent="1" source="3N7rxfqaKrxfOFPJ_rLn-2" target="3N7rxfqaKrxfOFPJ_rLn-3">
          <mxGeometry relative="1" as="geometry">
            <Array as="points">
              <mxPoint x="520" y="202" />
              <mxPoint x="520" y="202" />
            </Array>
          </mxGeometry>
        </mxCell>
        <mxCell id="3N7rxfqaKrxfOFPJ_rLn-8" value="Visualize" style="edgeLabel;html=1;align=center;verticalAlign=middle;resizable=0;points=[];" vertex="1" connectable="0" parent="3N7rxfqaKrxfOFPJ_rLn-7">
          <mxGeometry x="-0.1809" y="-1" relative="1" as="geometry">
            <mxPoint as="offset" />
          </mxGeometry>
        </mxCell>
        <mxCell id="3N7rxfqaKrxfOFPJ_rLn-2" value="Kibana" style="shape=image;verticalLabelPosition=bottom;labelBackgroundColor=default;verticalAlign=top;aspect=fixed;imageAspect=0;image=data:image/png,iVBORw0KGgoAAAANSUhEUgAABQAAAAUACAYAAAAY5P/3AAAABGdBTUEAALGPC/xhBQAAACBjSFJNAAB6JgAAgIQAAPoAAACA6AAAdTAAAOpgAAA6mAAAF3CculE8AAAABmJLR0QAAAAAAAD5Q7t/AAAACXBIWXMAAA4sAAAOLAH5m+4QAAAAB3RJTUUH5AMNEyc1Zt06VgAAgABJREFUeNrs/XmYnWd9J3h/7+c559SqkmTJKtnG7GB2DN6wwTadvN2T6e5Jz0zP2zPdPd39ZrqvznT3dDppwAuL2bIHEgh7VgIxawKGBJBsbJNMQkhCCCH7wm4MGPCmtarOee73D9lggsGSLempU/X5wCUkuVT6Vl1G9Zyvfvf9SwAAAAAAAAAAAAAAAAAAAAAAAAAAAAAAAAAAAAAAAAAAAAAAAAAAAAAAAAAAAAAAAAAAAAAAAAAAAAAAAAAAAAAAAAAAAAAAAAAAAAAAAAAAAAAAAAAAAAAAAAAAAAAAAAAAAAAAAAAAAAAAAAAAAAAAAAAAAAAAAAAAAAAAAAAAAAAAAAAAAAAAAAAAAAAAAAAAAAAAAAAAAAAAAAAAAAAAAAAAAAAAAAAAAAAAAAAAAAAAAAAAAAAAAAAAAAAAAAAAAAAAAAAAAAAAAAAAAAAAAAAAAAAAAAAAAAAAAAAAAAAAAAAAAAAAAAAAAAAAAAAAAAAAAAAAAAAAAAAAAAAAAAAAAAAAAAAAAAAAAAAAAAAAAAAAAAAAAAAAAAAAAAAAAAAAAAAAAAAAAAAAAAAAAAAAAAAAAAAAAAAAAAAAAAAAAAAAAAAAAAAAAAAAAAAAAAAAAAAAAAAAAAAAAAAAAAAAAAAAAAAAAAAAAAAAAAAAAAAAAAAAAAAAAAAAAAAAAAAAAAAAAAAAAAAAAAAAAAAAAAAAAAAAAAAAAAAAAAAAAAAAAAAAAAAAAAAAAAAAAAAAAAAAAAAAAAAAAAAAAAAAAAAAAAAAAAAAAAAAAAAAAAAAAAAAAAAAAAAAAAAAAAAAAAAAAAAAAAAAAAAAAAAAAAAAAAAAAAAAAAAAAAAAAAAAAAAAAAAAAAAAAAAAAAAAAAAAAAAAAAAAAAAAAAAAAAAAAAAAAAAAAAAAAAAAAAAAAAAAAAAAAAAAAAAAAAAAAAAAAAAAAAAAAAAAAAAAAAAAAAAAAAAAAAAAAAAAAAAAAAAAAAAAAAAAAAAAAAAAAAAAAAAAAAAAAAAAAAAAAAAAAAAAAAAAAAAAAAAAAAAAAAAAAAAAAAAAAAAAAAAAAAAAAAAAAAAAAAAAAAAAAAAAAAAAAAAAAAAAAAAAAAAAAAAAAAAAAAAAAAAAAAAAAAAAAAAAAAAAAAAAAAAAAAAAAAAAAAAAAAAAAAAAAAAAAAAAAAAAAAAAAAAAAAAAAAAAAAAAAAAAAAAAAAAAAAAAAAAAAAAAAAAAAAAAAAAAAAAAAAAAAAAAAAAAAAAAAAAAAAAAAAAAAAAAAAAAAAAAAAAAAAAAAAAAAAAAAAAAAAAAAAAAAAAAAAAAAAAAAAAAAAAAAAAAAAAAAAAAAAAAAAAAAAAAAAAAAAAAAAAAAAAAAAAAAAAAAAAAAAAAAAAAAAAAAAAAAAAAAAAAAAAAAAAAAAAAAAAAAAAAAAAAAAAAAAAAAAAAAAAAAAAAAAAAAAAAAAAAAAAAAAAAAAAAAAAAANhESt8BAI7Gl/+Hn0qSmSQ7+84CAMCmVpJMkvKVJOPlvc/uOw/AfRr0HQDgGDw5yduTDPsOAgDAplWSvLeWXJ7kzr7DABwNBSAwTWaSnBEFIAAA/flYSn1dSb1zec9lfWcBOCpN3wEAAABgSnw6yXPaOvzEpI77zgJw1EwAAgAAwH27NclVg7J246TWnL73uX3nAThqCkAAAAD4zg6n5GWTpr69dsO6e+9z+s4DcEwUgAAAAPDtTZL8Uq3dq9tJWVtW/gFTSAEIAAAA3977SvLSkmbfLuUfMKUsAQEAAIB799Fa8tykfGncdH1nAbjfFIAAAADwrT6T5PK2Nn/epcvpH7i87zwA95sCEAAAAL7ZbUlesNRNbizpsnvvZX3nAXhAFIAAAADwDYeTvHzc5O23tW3d6d4/YAOwBAQAAACO6JL8Si31Zwdd1pZN/gEbhAIQAAAAjnhfSV6SWvYtm/wDNhBHgAEAACD5aE2u7JKblX/ARqMABAAAYLP7dJLL28noz1MmfWcBOO4cAQYAAGAzuzXJVd1kfGNtanbvuaLvPADHnQIQAACAzepwkpd3KW8v7bDu3vvsvvMAnBCOAAMAALAZdUl+JamvatKtKf+AjUwBCAAAwGb0gVrzkiT7uq70nQXghHIEGAAAgM3mj2pyRUpuXt57Wd9ZAE44E4AAAABsJp9Ncvlo0v7Znz/olr6zAJwUJgABAADYLG5N8oLJpLmhNpN89y/+VN95AE4KE4AAAABsBkc2/nblbU1T6+5rn9N3HoCTRgEIAADARtcleWNNeXVp6trua238BTYXR4ABAADY6N6fUn64JHcu7zH5B2w+JgABAADYyD6a5MpS6he6Se07C0AvFIAAAABsVJ9NckVbx3/WdU1Ou870H7A5KQABAADYiG5PygtW26Xrxxlk995n9Z0HoDcKQAAAADaaw0l+qtb6tuH4ztj4C2x2CkAAAAA2ki7Jm2rJq9JkTfkHYAswAAAAG8v7U8pLSrJvec+z+84CsC6YAAQAAGCj+GiS56bWLyj/AL5BAQgAAMBG8JmUXJlB+6fpur6zAKwrCkAAAACm3W1JXlRLrs9kkuXrLu87D8C64g5AAAAAptlKkpfXUt5aaqqjvwDfygQgAAAA06pL8saUvKqkrir/AO6dAhAAAIBp9YGavLjUeueXm8W+swCsWwpAAAAAptEfJbmiJF+speRJ7/9PfecBWLcUgAAAAEybzya5vKT82a1Jlvc8p+88AOuaAhAAAIBpcluSFx4ooxvGKXnsXuUfwH2xBRgAAIBpcTjJT6fkrQt1tS4r/wCOigIQAACAadAleVOSV5Wa1V3KP4Cj5ggwAAAA02BPTXlpkjuUfwDHRgEIAADAevdHSbmiNJObsjrbdxaAqaMABAAAYD37TJLLh93kT2vXZPnG/9p3HoCpowAEAABgvbo9yQsPdrl+tSnZ7egvwP1iCQgAAADr0UqSnym1vm2hJLv2XtZ3HoCpZQIQAACA9aZL8uZS84payuqpf/zHfecBmGomAAEAAFhvrkvKi7umu3P3HpN/AA+UCUAAAADWkz9JyRWp9SblH8DxoQAEAABgvfhcksvX2sHH227SdxaADcMRYAAAANaD25O8uBs31w7qJDs/eEXfeQA2DAUgAAAAfVtN8oq09Veb0tXlPc/pOw/AhqIABAAAoE9dkjfV5JWZlNXde5V/AMebAhAAAIA+7a21vKgktx/Oob6zAGxIloAAAADQl4+n5MqmlC/UdpKHXPuCvvMAbEgKQAAAAPrw+SSXl3H9ky5ddn/g8r7zAGxYCkAAAABOtjuS8sJx113XNYl7/wBOLAUgAAAAJ9ORjb+le8ugberuay/rOw/AhmcJCAAAACdLTfKrKeVnas2KyT+Ak0MBCAAAwMmyNzUvSuodyj+Ak8cRYAAAAE6Gj6fkitpOPr/lL/5h31kANhUFIAAAACfa55JcsX9l8CdtbTL/+bP7zgOwqTgCDAAAwIl0e5IXrY3H1y4Ma07dY+kHwMmmAAQAAOBEWUnyitT26mHb1uVr/3vfeQA2JUeAAQAAOBFqkqtLqa8ozXhV+QfQHxOAAAAAnAjX1uRFqc0dk4z7zgKwqSkAAQAAON7+JDVXlKZ+fnnPc/rOArDpOQIMAADA8XRTkstLN/z4eLSv7ywAxAQgAAAAx8/tSV44ztp1TdvljPe+tO88AEQBCAAAwPFxZONvaX51UEfd8t5n950HgLs4AgwAAMAD1SW5OskrU7tV5R/A+qIABAAA4IG6LsmLkty+vNfSD4D1RgEIAADAA/HxJFeUUj5f+04CwL1yByAAAAD3101JrqwpH0+t2W36D2BdMgEIAADA/XFnkhcemgz2jmuJo78A65cJQAAAAI7VapKfqcnVs+24mvwDWN8UgAAAAByLmuTqlPxM6bKyfK3yD2C9cwQYAACAY3FtTXlRkjuUfwDTQQEIAADA0fp4kiub2n3u4I6dfWcB4CgpAAEAADgan09y5dr+5o/LMHnY1d/Xdx4AjpICEAAAgPtyR5KXTGq5drBYc+r7Lus7DwDHwBIQAAAAvpPVJK+opXlzm9ot731233kAOEYmAAEAAPh2apKrS+ormjpZUf4BTCcTgAAAAHw719XkqppyeyZ9RwHg/jIBCAAAwL35k5RcXlJvStNk9wef03ceAO4nBSAAAAB/301JrqjjfDyjkt0feFbfeQB4ABSAAAAA3NMdSV5cx+Xa0iTLv2HyD2DaKQABAAC422qSV6bUN5dB1y1fq/wD2AgsAQEAACBJuiRXl1JfkZqVXXsv6zsPAMeJAhAAAIAkuT41L64pty3vNfkHsJE4AgwAAMCfJrmiaZvPjsfjvrMAcJwpAAEAADa3m5JcPntr87FJ7XLG9Vf2nQeA40wBCAAAsHntS/KSNgt7Vne02b3H0V+AjUgBCAAAsDkd2fhbmzdNukP11D0/2HceAE4QS0AAAAA2n5rkrUn56VrqyuLiat95ADiBFIAAAACbzw0p5YWp9bbdNv4CbHiOAAMAAGwuf5bkitT62WXlH8CmoAAEAADYPL6Q5MpDh4YfbdvadxYAThIFIAAAwOZwZ5KXNs3g/fPz4+x8/2V95wHgJFEAAgAAbHxrSV5VUt/YdeNu155n950HgJNIAQgAALCx1SRvKSU/nVJW3PsHsPnYAgwAALCxXZ+Uq1Jz61rc+wewGZkABAAA2Lj+NMkVXcnnSu1yhuk/gE1JAQgAALAx3ZzkyjIpf1S2Hsqp11r6AbBZOQIMAACw8exL8pIu+UBpa3a//QV95wGgRwpAAACAjWUtyatLrb/SJt0uk38Am54jwAAAABtHTfK2WvJTXSmHlX8AJApAAACAjeT6pFxVam7bbeEHAHdRAAIAAGwMf1aSK2o3/sziwva+swCwjigAAQAApt8XklzxhXzyj5pmmIV3/Ye+8wCwjlgCAgAAMN3uTPKSrssHTiuPyK5rn9V3HgDWGQUgAADA9FpL8qpSypvaNt2uPc/uOw8A65ACEAAAYHq9raS8PDWHd+1V/gFw79wBCAAAMJ1uSHJVSm4bZ9x3FgDWMROAAAAA0+fPk1yems+Y/APgvpgABAAAmC43J7lidWbto6NVMx0A3DcFIAAAwPS4M8lLxxm/f7DSZvuHfqjvPABMAX9dBAAAMB3Wkry6lO6Nw7Tdrj2X9Z0HgCmhAAQAAFj/apK3pZaX17SHl937B8AxcAQYAABg/bshyVW1dLfuyv+v7ywATBkFIAAAwPr2ZyW5okn3mZImZe/OvvMAMGUUgAAAAOvXF5NcebCMP1rTxtFfAO4PdwACAACsT/uSvKSMu/fPN212Xaf8A+D+MQEIAACw/qwleVVS3lgHbbfrOht/Abj/FIAAAADrz9ub5GVJbPwF4AFTAAIAAKwvNyS5qku5TfkHwPGgAAQAAFg//iw1V6R2nx4PZvvOAsAGoQAEAABYH25O8tzDSzN/WGrJGe/7f/rOA8AGoQAEAADo374kP1y6+r7ZO1di6QcAx9Og7wAAAACb3FqSV9eUN6ZJt7z3OX3nAWCDMQEIAADQn5rk7Sl5WUk9pPwD4ERQAAIAAPTnxlLyglqbW2cGa31nAWCDUgACAAD048+Tcnlq/UxKsu19z+07DwAblAIQAADg5PtikitKHX+0DobZvedZfecBYANTAAIAAJxc+5K8dNiO31+akuX3/VDfeQDY4GwBBgAAOHnWkrwmpfzy2mRg4y8AJ4UJQAAAgJOjJnlnSnlZaj2s/APgZFEAAgAAnBy/nZKrku5ryj8ATiYFIAAAwIn3F0m9vK3tJ7s66TsLAJuMAhAAAODE+lKSKw+uLf1+l3FO23tl33kA2GQsAQEAADhxDqTkh1fb7jdH7R3Z9f7L+84DwCakAAQAADgx1pK8uqb7peEk3e49yj8A+uEIMAAAwInxzpL8ZKnNoUFT+84CwCZmAhAAAOD4++1aclVqbrXxF4C+KQABAACOr79KcnlT88ldyj8A1gFHgAEAAI6fLyW58u9q8xEvtgBYL3xNAgAAOD72J/nRtSa/8fCmy07TfwCsE44AAwAAPHDjJK+tTf2FQc1k957L+s4DAF+nAAQAAHhgapK3l+SnSlcOufcPgPXGEWAAAIAH5rdryVWT5KtN23cUAPhWCkAAAID77y+TXN50zadK6bLz/ab/AFh/FIAAAAD3z5eSPLcdtr+/Numye8/lfecBgHvlDkAAAIBjt78mP9ql+Y261uWM603+AbB+mQAEAAA4NuMkr0+pv9BmMtm999l95wGA78gEIAAAwNGrSX6t1vxESTm0bOMvAFPABCAAAMDR++2aPD8lX1X+ATAtFIAAAABH5y+TXD6cNJ/cP7vadxYAOGoKQAAAgPv2xSTPPXhw6++vNTWPfM/z+s4DAEdNAQgAAPCd7U/yo12X35ibuyO7r7X0A4DpYgkIAADAtzdO8rou5ZfSxMZfAKaSAhAAAODb+7WU5iea5ODynmf1nQUA7hcFIAAAwL377STPT7qv1a7vKABw/ykAAQAAvtVfJ+XypPvk8p7L+s4CAA+IJSAAAADf7MtJubIp3UdqLX1nAYAHzAQgAADAN+xP8iNdV99bS8nua5/Tdx4AeMBMAAIAABwxTvL6WsovlDYT5R8AG4UJQAAAgKQm+bWU8pOl5tDyXuUfABuHCUAAAIDk/03KC9J1X1nbutB3FgA4rhSAAADAZvdXSS6vbfm7JHnQO/5T33kA4LhSAAIAAJvZLUme26zlI6XrsnztZX3nAYDjTgEIAABsVgeS/HBtynu7UbK8x71/AGxMCkAAAGAzGid5XUp+odQ6Uf4BsJEpAAEAgM3o12vy46k5pPwDYKNTAAIAAJvNbyd5fkm+trxX+QfAxqcABAAANpO/SnJFSf5u0ncSADhJFIAAAMBm8aUkz7thy4N+b5KS003/AbBJDPoOAAAAcBIcSPJjKXnPd+27KY7+ArCZmAAEAAA2uiMbf5NfSM1E+QfAZqMABAAANrpfryk/UZODyj8ANiMFIAAAsJH9dlKeV0r31TIe9p0FAHqhAAQAADaqv0pyeandJ2stWb7+B/vOAwC9UAACAAAb0S1Jnleb5iNN12W3o78AbGK2AAMAABvNgSQ/Xmr33jKp2fnBK/rOAwC9MgEIAABsJOMkP1dqfUMtzXjXtZf1nQcAeqcABAAANpJrkvLjXSk2/gLAXRSAAADARvHhlDwvpd7izj8A+AYFIAAAsBH8dWoum5T2b5pJ13cWAFhXFIAAAMC0uyXJ87/ymdnfbSZdTr3u8r7zAMC6ogAEAACm2cEkP5Z28u6djziY3dc+u+88ALDuDPoOAAAAcD+Nk7yhJj+XbjDZvUf5BwD3RgEIAABMq2tqLT9WkoOTOu47CwCsWwpAAABgGn04Jc8vyVeW95r8A4DvxB2AAADAtPnbJJfXte6vd13w0L6zAMC6pwAEAACmyS1Jed6dd3ztd9KWlJf8b33nAYB1TwEIAABMi4NJfqKW7t1L23Zk97WX9Z0HAKaCOwABAIBpME7yhjTlDaWW8bKNvwBw1BSAAADANHhXan48k3pg+drn9J0FAKaKI8AAAMB69+GUPL8OJrc0K4t9ZwGAqaMABAAA1rO/SXLZuCt/23ZNTv2t/9R3HgCYOgpAAABgvfpKkuft2nLG79aymlP3WPoBAPeHOwABAID16GCSHy/d6N1fuePLedB1z+07DwBMLROAAADAejNJ8gul1NenXZnsuu6H+s4DAFPNBCAAALDeXFOTH0ltDi7vfXbfWQBg6pkABAAA1pMPp5bnluQW5R8AHB8KQAAAYL34mySXldr+TTdY6TsLAGwYCkAAAGA9uCXJ8w/XAx/umrWc9r7n950HADYMdwACAAB9O5jkx2tp3j1bFuvyHkd/AeB4MgEIAAD0aZLk55L8XKndWPkHAMefAhAAAOjTNUl+rNZyYNf22/rOAgAbkgIQAADoy4eTPLckt6TUlLf9aN95AGBDcgcgAADQh08muSLJ3+za+5y+swDAhmYCEAAAONm+kuS5u7Z8+f8dVy9JAOBE89UWAAA4mQ4k+fEuedeX9y3njGuf1XceANjwFIAAAMDJMknyC6Wpb2iS8W5HfwHgpHAHIAAAcLJcU1N+rHY5oPwDgJPHBCAAAHAyfDgpz2u67svdaNR3FgDYVBSAAADAifa3SS7v1vLXGSan/8Z/6zsPAGwqCkAAAOBE+mqS5+86Zf/vlGGy6/2X9Z0HADYddwACAAAnysEkP1ab9l1fvn0pu/fa+AsAfVAAAgAAJ8IkyS80qW+o3Xi8a6/JPwDoiyPAAADAifCemvzIJOWA8g8A+qUABAAAjrcPp+S5Jbll997n9J0FADY9BSAAAHA8/W1Jrsgkf+3VBgCsD74kAwAAx8tXkrygW2l+JyVZ/oDpPwBYDxSAAADA8XAoyU90dfLrZWZSl69V/gHAemELMAAA8EBNkvx8KXlDU9rx8h7lHwCsJwpAAADggXpPan601uw3+QcA648jwAAAwAPxkdT63KYpX550k76zAAD3QgEIAADcX3+X5PLU8teT1Jz+wSv6zgMA3AsFIAAAcH98LclV+8ef/O22nclu9/4BwLqlAAQAAI7VoSQ/ma79tcX2Udm55wf6zgMAfAcKQAAA4FhMkvxiSl5bm25t+dpn9Z0HALgPCkAAAOBY/GZK+dHU7N+999l9ZwEAjoICEAAAOFp/kJQrU+sXl/e68w8ApoUCEAAAOBp/l+Sy1bXmL5um9p0FADgGg74DAAAA697XkrxgNJz/rZJDOfUDl/WdBwA4BiYAAQCA7+RQkp9oav218eqB7HLvHwBMHQUgAADw7UyS/GIp9XW1yfjUa03+AcA0cgQYAAD4dn4jKT+cWvZP4t4/AJhWCkAAAODe/EGS56XUL+/aY+MvAEwzR4ABAIC/79M1uTxd+YuMxn1nAQAeIAUgAABwT19L8vy15LdqU7P83iv7zgMAPEAKQAAA4G6HkvxUqfWdM0ndvdfRXwDYCBSAAABAcmTj7y+l5DW1KWu7lH8AsGEoAAEAgCR575GNv9m/bOkHAGwoCkAAAOD3S/K82k2+NBzO9J0FADjOFIAAALC5fSrJ5WsZ/2XTtDnlN3+g7zwAwHGmAAQAgM3ra0lecMfa4d9Kkl17n913HgDgBBj0HQAAAOjF4SQva0p5x7bRXHbtUf4BwEalAAQAgM2nS/LLJeXVtWZs8g8ANjZHgAEAYPP5zZr60pq6X/kHABufCUAAANhc/iApV5bki8t7n9N3FgDgJDABCAAAm8eRjb/DyV8M1tq+swAAJ4kCEAAANoevJnnBal39rcFayY4b/nvfeQCAk8QRYAAA2PgOJ/mp0tR3juqwLu+5rO88AMBJpAAEAICNbZLkl0otr8ukrC1fa+kHAGw2jgADAMDG9r4kL+1Kt29Q5vrOAgD0wAQgAABsXH9YkiuT+qWkySl7/0vfeQCAHigAAQBgY/pMksu75C9273XnHwBsZo4AAwDAxvO1JM9v963c2HS17ywAQM8UgAAAsLEcSvJTSXnHZMtsdl1n+g8ANjtHgAEAYOOYJPnlJvW1NVnbtfc5fecBANYBE4AAALBxvC/Jj3Qp+5R/AMDdFIAAALAx/EGS55ba3dw1w76zAADriAIQAACm36eTXFEH5c9TS077wA/2nQcAWEcUgAAAMN1uS/KC+Vv33VjWqqUfAMC3UAACAMD0OpzkJ2tp3nFgx9YsX+vePwDgWykAAQBgOnVJfjklry7p1nbveVbfeQCAdWrQdwAAAOB+eV8peWmtZf/y3mf3nQUAWMdMAAIAwPT5w6RcWWu+qPwDAO6LAhAAAKbLp5Ncnjr58zQe5wGA++aJAQAApsfXklw1Mzj8oaZJlj/g3j8A4L65AxAAAKbD4SQvL6W8fWU8W5f32vgLABwdE4AAALD+dUnemFJeU5M15R8AcCwUgAAAsP59ICUvTeqdy3ss/QAAjo0CEAAA1rePJvWKpjY3d3XSdxYAYAopAAEAYP36bJLLU5s/q5nktL1X9J0HAJhCCkAAAFifbkvJVV9dOHjD2mCcXXsv6zsPADClbAEGAID153CSn66ZvG3Hwdns3nN533kAgCmmAAQAgPWlS/IrJfnZUtvVXTb+AgAPkCPAAACwvuypyQ/X5E7lHwBwPCgAAQBg/fhYUq9ounrT7Q8d9p0FANggFIAAALA+fCbJZSs1f1qakrPe8IN95wEANggFIAAA9O+2mrzwUFtuGDYlpzr6CwAcR5aAAABAv1aSvKy2eetsrXX3HuUfAHB8KQABAKA/XZJfLsmr20nWLP0AAE4ER4ABAKA/e2rJSyfJncWTOQBwgpgABACAfnwsyZWllpt3731231kAgA3M3zMCAMDJ99kkV5RSPtF1te8sAMAGpwAEAICT67aavGicwQe7mpx2nXv/AIATSwEIAAAnz0qSn0mpVw+yVh39BQBOBncAAgDAydEl+ZVa87MlZW3Zxl8A4CQxAQgAACfHB2rykpTcofwDAE4mBSAAAJx4f1STKwdd+cLqYNJ3FgBgk1EAAgDAifXZJFc0ZfKn45I8+H1X9J0HANhkFIAAAHDi3J7khaurk+snk5Ld11r6AQCcfJaAAADAibGS5Ke7NG8djJp62t5n9Z0HANikFIAAAHD81SRvrqW8sklWl/co/wCA/jgCDAAAx98Hkry4pN6p/AMA+qYABACA4+tjSbkyyU3Le57TdxYAAAUgAAAcR59JyuWlKZ+ote8oAABHuAMQAACOj9uSvKibdNeXWrL7WtN/AMD6oAAEAIAHbiXJT9dS3toMSl3e8+y+8wAAfJ0jwAAA8MB0Sd6UUl5Val1V/gEA640CEAAAHpi9tZQXp6t3dDOjvrMAAHwLBSAAANx/f5zkilLyhaTmtPf+t77zAAB8C3cAAgDA/fP5JJcn+cTyBxz7BQDWLxOAAABw7G5LclXafDCl7ygAAN+ZAhAAAI7NSpKfSclb0qUu73lO33kAAL4jBSAAABy9LsmbasrPpmZV+QcATAMFIAAAHL09SV5SUu9Y3qv8AwCmgwIQAACOzseSXFlSb+r6TgIAcAwUgAAAcN8+l+TK2a77xCRNTjP9BwBMEQUgAAB8Z3ckeWFZnb/ucB3mtL3P7jsPAMAxUQACAMC3t5Lk5TV5Szc6WJc/+N/7zgMAcMwUgAAAcO9qkjfXlFcmWd3t2C8AMKUUgAAAcO/2pJYXldQ7lX8AwDQb9B0AAADWoT9OcmUp9Qu7lH8AwJQzAQgAAN/sc0mu6JrmT0rX9Z0FAOABMwEIAADfcEeSlza1+2CZ1Jx63eV95wEAeMBMAAIAwBGrSV7RdPXNNU2369rL+s4DAHBcKAABAODIxt+rk/KKrmlWdl3r3j8AYONQAAIAQHJdSl6YUm9f3vvsvrMAABxXCkAAADa7j5eay2ttPt9MLP0AADYeBSAAAJvZTUmuSJOPp3aWfgAAG5ICEACAzeqOJC/qRqvXdmWS3e79AwA2qEHfAQAAoAcrSV5ZS/nVsjZTd+9x7x8AsHEpAIGpMDgOA8v1GN+iHtVb1qN83wCsIzXJW2rNz5SaleVrlX8AwMamAASmwm+s/O0D+vUlqSVlnLu6upKkSZmUlO6uH6akdG0pkzala1K6Nk3XllLblLRpaluaDFJKmyaD0jSjNM2wtINR2uGwNKM2pUlKLUktpdz1eybl6/9JaVJKSUpSyr2Vh3f/jEIR4IS6LsmLS4mNvwDApqAABKbCqw589Hi8m+buYq1843++qX8rKe1dxV0tKbWkpDny/TSlpElJk1LalDIoTRmkaQalaYdpSptm3JSy0qasDNOMh6UZj0rbzWSQ+TIsW5rRYLGMZhbLaH6uDNphmtVRaVdHpZ2M0taZ0ma2DNq5DEazZTDbltKWuwvFIwXiXd/mrhLxG+Gr0hDgaP1JUi6vmXx2Jkt9ZwEAOCkUgMBUaO6u7O6/kqT9ez/Xfrs3rrl7Dq9mctePv7lhq3f/95tjJsMki/cVJElXUpomZdCW0gzS1GHazJS2mSuDZr4MMyzNyiDtgbkyOLxUZsZLzahZKjOjrWVmfqkZzcyWwcpsBmtzZVDnyrCdL4PZUWlHd5eF+XppeOQH3ygLE1OGwCb1uSSXd2X24009mO17/1PfeQAATgoFIMBRKN/mZx5ALdkkme1S09Wa1XRJxkm9u3ZMcqSgHN39+/y9Um/SpGR0ZGowC2WUpTLKQhmuzpbBvsUyOry1melOaeZGO8rc4pZmNDtbBqtzGazNlWGZK4PRTGlnmpR7/RCUhMAGdEeSF3eD8bXN5GCW917Wdx4AgJNGAQiwDpR7fK98u390DzUZTFIXD9VxDtZxvpZD97hRsAzvLgzLXUeWm5TJoDTjuQzWtjSjsq2ZbbeVmbX5MrpzazM6vL2Zy65mfn5HmVuaLYO1uTIcz5VBM1vamTbN4F5+/ygIgSmymuQVpW2ubrtR3bXnWX3nAQA4qRSAAFPuHncD3vWjb16Z3KWmSx2Ma7d0KOPcOjmUz0zuSE2tSdneJLU5suikGZSmG6ZZXWxGKzvKXLuznWu2ldmDS2Vm/85mru5uF7dsb2bnZzNYmyltnS2DwTDNMPdyxPgb3wL0qib51VrzijruVnZf+5y+8wAAnHQKQIBN5J7HiI/sEjlyD2JNMk6Xce2aw8nWOycr+UL2pY6TJKMmmWvT1FFp21Ha1bky2L+9mZ2c1i7O7yzzdWszc+dyszDe3S4sbi0zc3cvNhmVdtCmDO65rOTu3w/gJLmu1Lwopbu9jOf6zgIA0AsFIADfonzzUeQ2Sdul5lAd51DGc3fUlbkvdvvz5+OvJqldSdk6k7abLYPBbBmsLpThvp3NfHdGu2VxuVkopzRz+3e3C8OdZW5ppgzK8MikYdukaevX162oBYHj7hMluaKWfH557+V9ZwEA6I0CEICjVr7p+18/dtwkGa2ly2pdzZ11ZVCT+U9Nbk9dS0qyNkjTLJRhs3BkUcntu9r5lYe2W7fsahaG25vZ/ac2883OZn5pprRNm6YOUtrcday4qgaB++emJFeMm/rHM+P2Ab8zAIBppgAE4Lj55iPGXzfsUod31tXcUVeSZOffTm7N7+amJFkbpZ1bbEbNtjIz2dbMfu3Mdql7WLtt245mbryjmVvb2czNz5fhbJNSm5RSFIPAfbsjyYvLeG5v265lx3U/1HceAIBeKQABOCm+eVnJ1w3H6Ya3dYdyaw4lk+z+2NqXUpLapjm0WIZ1RzNftjezd+xqFvY9vN228KB2y+z2ZnZlRzM3O1+Gs/c4rlwcJQZyZOPvz5ame1OGB7vlPZf1nQcAoHcKQAB6V761Gixd6vwddTW3T1ZSJ5kpydYj24rL4cVmlOVmoZ7azN+5u1nc96jB9sXdzeLM1mZmbXszOztKO7rnOzMtCJtGl+RXk/LTtWtWl/fa+AsAkCgAAVjH7jE1+PV+cJI6d3u3Mndbdzh/ma/VkmwZpMmwNAe3ldm1M9ulwanN/L4Ht0srjxxs33ZKM5etZSZzZThX7no/d+8iVgrChvPB1PKiJLcvX6v8AwC4mwIQgKnz94rB0qVmpU4Wv1T3L97c7U+SmUFKRqXtFsrwzjPapebBzdLkjHbLvkcMti/sauZnF8uomy+DUZPSHjk6nCgFYar9SUouL133+clM03cWAIB1RQEIwIZRUnLXrs+2Jlmpk/Zwnez4ancoH8+XuzZldrYMykIZHtjdLK48fLBt4fRm8eBDB9vK6c3i0kIZ1rkyGHyjFFQIwpS4KckVbUYfHzcrOe03n913HgCAdUUBCMCGdo9pwSZJc7iOc6iOt36lO5hPjG+pTcpgvgzKYhmtLTcL+x4z3LH4oGZp9aHt1iy3C1vmyiCjtG1Jmi5mBGEdujPJi7t2cG1XxznN0g8AgG+hAARg0/l7R4hnDtZxDta10Ze7Awt/Mr6ltimDLWWU7c3s4TPaLfsfO9i5+KB2y+qZ7dJgR5lbHJY2g5Sm3nX8GOjNapKfTfLmZjLuLP0AALh3CkAANr1y17flGz+cvbOu5o7JyuxnJnds+d3Vm7phmmZ7M9fsaubveORg++pZgx1bTm8WV05vt8zPl8GoTVNKUkwJwklTk7w1JS+vtazs3uvYLwDAt6MABIB7cY8pwSRpJqkLX+kO5JbuwNyfjb+SkrK2UIbdae1id3qzeMvjh6cOH95um1luFrrtzezi3YVgkpgShBPig0lemJrblX8AAN+ZAhAAjlK5ZyWYDA/UteHfjm/N3+bWud9e/XwdlebQqc1CHtIs3fnIwSkHHzvYsXW5Xeh2NHOzo7TDu3+hQhAesE8kuTzJZx37BQC4bwpAALif/t5dgmWtdgs3Te7M5yd31g+vfWFpmGZtWzN74BGDbXlYu+2rTxicunB6u6Xd3swOZtLOJEfOMDoyDMfk80mumGvW/nj/ZNR3FgCAqaAABIDjqLlHIThON/OV7uDMl1cP1I/kC/OjMuiWyujOR7bbBw8fbL/zsYMdzYPbrQvbmpkyk3bm7jJQHQjf1u1JXtIlew92w5x+raO/AABHQwEIACdQSdKmlCTtWp20X62HdtzSHczvrX1hPFsGdWuZ2f+owSl5ZLv90FmDHeOHtEtLi80oM2mHNSkKQfi6Ixt/a/PmptRu2b1/AABHTQEIACfRXYVgkgxW6yS31IPbv7x6IL+Tz6/Nl2F3Spk9+MjhKePHD3a2j2pPqWe0W7bMlUEZphnYMMwmVpO8paa8IqXa+AsAcIwUgADQo3vcIzg8VMf5Qt03c9PKvvzWymdXt5SZbmczf+Bxgx1rTxyeOnhEu705tZlfHJW2lJTGdCCbyAeT8sLS1du6kcdXAIBj5QkKANaJcte3d20aHu2rq7lzsjL7qclt+cDKJw/vaOa605rF2548XC6PHexsH9JuHW5tZubuOmJcbBdmg/rTJFfUms+1bZfl9/1Q33kAAKaOAhAA1ql7TAemJrNf6Q7mlu7g/J+Mb6kzaQ+e1i7WR7Tbb3nKcPfcIwbbclqzODdTBsOSFNuF2SBuTnJ5KfnY6mrN7hsv7zsPAMBUUgACwJQo35gOLGvpFj4zuSOfmdyxcOPqZydLZXTwYYNthx872Hnrkwa7Fs9sl7K9mZ1vUpokMR3IFLojyYsmw+HeZjLJmTc+q+88AABTq/QdAOBonHfeeUlycZLrkwz7zgPrTU3SpdYmqcO0q6e1i4cfM9jRnT1c7h49OGX+1GZ+MEo7OvK2ZgNZ91aT/GST7odrysquvZf1nQcAYKqZAASADeCu7cIlSRmnm/3c5I7Zz0zu6G5Y+Uy31Mzsf8xgx9rjBjtvf/JgeX65XRgsltGoJBaJsB51Sd5Sa356UpqV3Xuf03ceAICppwAEgA2opKRNmklqc2t3eNvvrN5Uf2/1C5OFMlo7s92y/8nD5fZJg1O7h7bbFpeambZNGSgDWSeuT8qLSslty3uf3XcWAIANQQEIABvcPaYDB/vr6uAvxl+d+4vxV8fvKcNuZzN/8CnD5frEwandYwY75rc2s8NhGmUgfflESa5I6T5bJ23fWQAANgwFIABsIvfYLDw4VMf5/OSO0Wcnd9QP5JMru9r51ccMduw7Z3ja8DGDHYOdzdz8MG1Tk6IO5CT4QpIr69zkYznYZvk6Sz8AAI4XBSAAbFLlrm/bu+4NvGmyb/amyb6lG1c+d/jUZm7yiMEpX7tgeProsYMdZXe7sDhM2yQpNgpzAuxL8uLxZHVPc6DNade59w8A4HhSAAIASZLmrkqwps5+qTuQL60eWPi91ZvWdjRzKw9vt99+wej08vjBzsHp7eL8MG0bZSDHx2qSV6bkTYPBqFveo/wDADjeFIAAwLe4uwxMMvxqd3B4S3dw4Q/Xbu62NbMHHz04Zd+5w9MmTxycOntauzgapR0liTKQ++ltqXl5alaWr1X+AQCcCApAAOA7umujcEnS3tYd3vJ7q1+of7B6c7e1mTlw1mDHwXOGu29/8mDXwu52cagM5Bhdn1qvKqXcvmuv8g8A4ERRAAIAR+0eG4Xb27uVpd9b/UL9w9Wbu6Vm5sDjBjvXnjrcfcfZg+WFU9v5wSjtqCb2CfPt/GmSy1PKZ5V/AAAnlgIQALhf7i4D611l4O+s3lQ/snrzZHsze/AJg1MPnzc8bfLE4amLpzRzw0GaQVUF8g03J3neuB76o1HZ0ncWAIANTwEIADxg3ygD6+Br3aGlD61+tv7u6ufXdjbzh88eLh986nB3HjfYOb+tmR21Ka0jwpvanUl+OJPB+wfNQk7d+0N95wEA2PAUgADAcVWSlJQySR19qds/ev/K/vrBlc+snNYuHH7q8LQD5w53t2cNdswvluGwpDTKwE1lLcmrU/LGtOPJsqO/AAAnhQIQADhh7l4gMkk3+7nJnbOfm9xZ96x88vBDmq2HLhidvu+c4e7hQwdb52cyGCQpysANrSZ5e0rz8qQeWt777L7zAABsGgpAAOCkaFKSpKzUydxfT74299eHvtZdc/ivDz1qcMqdTx89KE8aLo9Oaxbm2zSt5SEb0oeS8oLaTW5dHO3sOwsAwKaiAAQATqq7jggnSbOvri380dqX5v947cuTnc3coccPTr3tGaMz28cMdsyc0szOlpTG8pAN4c+SXDbpymeGg2TxN/+vvvMAAGwqbd8BAI7GGWeckSQPSfLv4s8u2DDuvi8wSXOgrs18enLH3O+t3tR8dO1Lq1/sDuyfLe1ksYzqqLSDI2/NFPpiUv5brZPfaps2u/a49w8A4GQzAQgArAvlyFxgmaTOfHpy+8ynJ7d3H1j55OFHD045eNHwjP3njk6b29UsjAZphqYCp8a+JC8ddJMPdKXJqXuf1XceAIBNyRQNMBVMAMLmcqQMLGWcbvjFbv/sx9a+NPO7qzetfn5y5+FScnCpmWlnS9s0KUURuG6tJXlFaeoraylru/Ze1nceAIBNywQgALCu3VXyDb7aHVrau/Kp7rdWP7d2ZrN04KLRg3LB6PT2Qc2WhVFp25qqDFw/apK3pZSX1VoOL++x8RcAoE+maICpYAIQuPu+wHHq4Gv10Nwnxl8efnj1pvzN5NZ9SVa2NrOZK4PWVOC68KGS/PckNy/vdecfAEDfTAACAFPlHluEB7fXw4PfXb1p/vdXbz58Zrt0+OmjBx28YHT64CHt1oVRTAX25C9qcnmt5VNlOOk7CwAAMUUDTAkTgMC9ueuuwNRkcFs9PPuJ8S2zH169afI341sPlJKVpTLbzZXh0FTgSXNzkh9c/rNdNx5YPpDdH3DvHwDAeuBFNDAVFIDAfbl7cchKJqPPd3fO/d7qF5o/Wvviyh318P4tzajb0sw0gzT+/Dhx9iV5QWnq2w7sOlh3O/oLALBuOAIMAGwod98V2KXOfGpy+8ynD93e/cbhvztw9nD5zu+aeUjz2MGOuS1lZqYmpcZc4HGyluRVKfWNtZZueY/yDwBgPfG34MBUMAEI3B93TwUezmTmM5PbZz+8dlP7ibVbDh2s4wNbm5kslGFp0zR955xyNclbUstVqWW/pR8AAOuPCUAAYMO7ayqwWavdzJ+PvzrzV+Ovja85/NcHLxiefuiSmQc3j2i3L86VwcDSkPvlQyW5qqa7rR0M+84CAMC9UAACAJtKc9fSkFu6g0vvXfnbyQ2rn1197GDnnd8985By9nB5bmuZmUlK43jwUfnzJJfX1M8sX2vhBwDAeqUABAA2pbumAtsDdW3uD9dunv342pfXHtIuHbh05sEHLho+aGZ3uzjfprSdIvDb+WKS507S/OEw476zAADwHbhHC5gK7gAETpS7l4bU1PZr9dDcx9duGX5k7QvjL03275tvhmvbm9nW9uBvsS/JVU1T3tIkddde038AAOuZh1lgKigAgZPhyNKQtAfq6sxfT26d//DqF7q/Ht+6f1jalW3NbJktgzYppe+cPRsneWVb84qasrZr77P7zgMAwH3wIhqYCgpA4GS6e3vwarrRTd2dc7+3elP5xPgrh1czObCtmamLZTRoUjbjwpCa5C019YVdKfts/AUAmA5eRANTQQEI9OEbx4Mz+Ep3cPaP1r40+v3VL67c1h3av62Z7ZaambZN0/Sd8yS6MSk/VJIv7lb+AQBMDUtAAACOQpOSJIMvdvu2vuPwX06uW/30wacNz7jju0cPHTxisH1utgxGNRt6d/CfJ+WKcdt9ZmbV38MAAEwTT2/AVDABCKwXdx0Pbg7VyczfTm6d/fDaF/LJyW0HZkp7eHsz286UQZMjw4MbyReT/OBMM3Nj142z6zrTfwAA08SLaGAqKACB9ebu48Gr6Yafm9w595G1m5s/XfvK/iY5tKOdK7Nl2JaNUQTuS/KCtHnrJJO6e4+NvwAA08YRYACAB+DuInClTmb/dHzL7F+Nv7r60MPbDn73zEMPPn30oNmdzdxcUpopPRy8luS1pSu/nC7druts/AUAmEamaICpYAIQWO/uKgJTk/Zr9dDsx9a+NPzo2hdXDtS1A9ubucmWZjScws3Bb0/K82up+5avdewXAGBaeRENTAUFIDBNypGTv+3tdWX2E+NbZn5/7ebVW7tD+7Y1s93WZmbQpmmmoAj8UEl+sCQ3L9v4CwAw1byIBqaCAhCYRncvDDlQV2f+YvzVuQ+v3bR282T//qVmZrytmW0Gadbrn2d/keS/JPlz5R8AwPRzByAAwAl2pAhMc3u3suUDK59c+J3Vzx86b3j6Hf/j7MOHj253zM2UdlSzbm4JvDnJlWvbR384/NpK31kAADgO1uvfOgN8ExOAwEZwj83Bo09Pbp/78OpN9dOTOw5sKaOV7c1sOyxt33++7UtyVdK8rT08qe79AwDYGPp+yAQ4KgpAYCO5uwgcpxt+dnLH3O+tfSGfmtx+cL4MD5/SzLWj0jZ3vdnJtJbklW3qK0vq6i5HfwEANgwvooGpoAAENqqSUtbSDT83uXP2I2s3l78b37Z/rhms3F0E1pNXBL4tNVfVlDt3XXtZ358WAACOI3cAAgD07O6JwMN1PPuRtS/M/Mn4yyuPH5y67x/PPKKcPVxenC/DYZd6IovADyW5qqT72qQd9v3pAADgOFMAAgCsE98oAiezH1374uyfjb9y+AmDU/f9k9lHNmcPlhfmymDUHf9VIX+Z5PLU+qnaNDntA/+9708DAADHmQIQAGCduasIzMpdReCfjr9y+ImDU/f/09lH5uzB8uJsGRyvrcFfTnLF6szkD3Z8eSHzv/9f+/7QAQA4ARSAAADr1N1F4No9JgKfPNi1/5/MPrI8cbBrYe6BFYH7kry0K+37hquN8g8AYANTAAIATIEmJat1Mvv7azfP/Mn4lpUnDXbt/6ezjyxPGuxauB8TgWtJXptSfrHJZLK8x8ZfAICNTAEIADBFmpSyWiezf7B288wnxresPGWwvO97Zx/dPG64c3Em7fAo7gisSd5RUn+q1hxe3qv8AwDY6Nq+AwAcjTPOOCNJHpLk38WfXQApKWWSOvh8d+fcR9a+kM9O7ti/rZlZ3dHMDQZpmu9QA/5WUn4oKTcr/wAANgcTgAAAU6xJKQfreO63Vj83+7G1Lx26aPSg2//JzCNHDx9sWxikaf/eROBfJLk83eRTGXgMBADYLJq+AwAA8MCUHCkC99e1+b0rnzrlhft+u339gY/d9qnJ7XcmmZSUJPlikufu+vnn/EHTJssfeFbfsQEAOEkcowOmgiPAAPftrq3B5XDGo7+Z3Dr7+2s3r93Rrezf1SzsW2xnXrr8xduvvvW678nO667sOyoAACeRsx8AABtMSUlJmq91B7e88/Bfzdzw+IUvrz3jtIfcuXDKQ4f/8/d9+oJ3Pzi//7/+m75jAgBwkjgCDACwQZWa2jzyIePbznv06Qea7jnt4ZX31nf+/A+0Ge+68Nd+se94AACcJKXvAABH47zzzkuSi5Ncn2TYdx6Ada/WlNOXV8r3XNJm25ZB6l3LQEpZK6X5SGmb19TB4P1ZW9v3kf/9+/tOCwDACWQCEABgo6k1ZeuWQ+WS8+o3lX9H/tmwdpOLu/H4l7K6+iulaf7Bhe9+4+jCd72x79QAAJwgCkAAgI2k1mR2ZjUXn1tz+qkz31T+ffPbzdfJ5H/p1tbeUVdWfibd+AkX7nlbc9H7ru77IwAA4DhzBBiYCo4AAxylQTspTz9nrZz92JmUcrTPejVN86nSNL+YtnnTcOvszZMDq/XD//O/7/ujAQDgODABCACwcUzKE886VJ541vAYyr8kKem6R9TJ+KV1bfyutVsP/p/dOFue+tqfyD/50p/0/TEBAPAAKQABADaCWrvy8AcfKuc/eTbDQXv/3kfadN35dTJ5fdZW3zyzc/s/uP0jnxhe+Laf7/ujAwDgAVAAAgBMu1pTTt+1Vi49bzbzs4Nve+/f0b+/+dp1/6wbj98xOXzgp9PksU/7q+vyjBve3vdHCgDA/eAOQGAquAMQ4NuoNWVpy+Hyjy9NTt81+4DLv3tTyt+WpnldMxi8Zf+BQ1/evXxKrv2ef933Rw4AwFEyAQgAMK1qTWZGK3nGOZOcvmvmhJR/R36fR9XJ5Ce7tbV3LsyM/vn+Ow/PX/h2x4IBAKaFAhAAYFoN2klzwdm1PPqh86n1RJ/sGNSuu7jrJr/cTVZfX2t37tN+7Rfap71TEQgAsN4pAAEAplNXnvDolTz5rNExbvx9YGrdUrvu39Ru8q6srb0gXX3QGT/+g/meD/1m358PAAC+DXcAAlPBHYAA91BrVx525sHyj54xk4W54Qk7+nvfxqWUj6VpX5nSvqf9yy8eGD/lwfn9f/bv+v4MAQBwDyYAAQCmSa0pyzvXyqXn913+Jcmg1np+7SY/V7u1n5+cdep5zcpqe+Hbf67vzxIAAPegAAQAmBa1Jlu3rJRLz09O2dp3+XfPXAvpun9Za/fr3WT8/DqpD/rut78h57zl9X0nAwAgCkAAgOlw18bf5ulPHeeM5dG6Kf++OeOZ6bqrksm7DnTdvxw0ZeGCtyoBAQD6pgAEAJgGbTtpzn9Sl0c/bD7r+x7nptZ6Xu26n083+YWUnHfO21/dnPeWV/edCwBg01IAAgCsf115wqNXc/ZjZ07qxt8HZiG1/h/pul8fTNor26Y57fzXvDVPe4ciEADgZFMAAgCsZ7V25SFnHCxPO3uQ4XD6nt1qPTO1e3Ht6tuaU2773jpu5i54y2v7TgUAsKlM30MkAMBmUWuya8dqufT80TrY+PtAtKm5pHb1V5L8dEl97IW/9nPlaW93PyAAwMmgAAQAWI9qTZYWV5tLz2+yY9v6XPpx7Lal1u+vNb/erY7/767LtvOvNg0IAHCiKQABANaj0XClXPTUtTxo9zRP/t2bkuSxqfXlpZv8Skm99KK3va696G2KQACAE0UBCACw3jRlUs594qQ85uFzWd8bfx+IuSTfm+Stk0l31aTL6Re95ZU57y2OBQMAHG8KQACA9aWWxz96rTz18bNpms3wrHZakuel1rdP6uCflkxG57/lNX1nAgDYUDbDQyUAwHSotZaHnHGgPO3sNqNhs8GO/n4nbZJnJPmVUvOTpebhtSYXvuVVfecCANgQFIAAAOtBrcmppxwul5w3zOL8Rrv372idkuQHkrzzaW95zb8cZzB//lsdCQYAeKAUgAAAfas12bKw1lx6fpud22c2afl3t5LkqUneUGr3qnSTx1/01jeUC69+Xd+5AACmlgIQAKBPNclouNpc9NTVnHnaZp38uzdbSvJ9JXnnpBv/+y7d0kVvflXOe6siEADgWCkAAQD61JRxeerj17KxN/7eXyXJY5O8MsnrJk1zdp2knH/1a/vOBQAwVRSAAAD9qeVxjxyXc54wl3ZTbPy9v+aT/Mskb29L9x+bki0XXG1TMADA0fKgCQDQh1prOfO0Q+XCp7SZGTVx8ve+lCSPTvLTtdbXp+bJ3/XOn89FbzENCABwXxSAAAAnW63JKdsOlUvOa7Jlwb1/x2Y+yb9KydsPrK5+Xy11/vxfNQ0IAPCdKAABAE6mWpPFhbXyzAva7Noxq/y7385K8qquyytLySPPufpn8zR3AwIA3CsFIADAyXJk4+9ac9FT1spDTh8p/x6whST/IcnbBmn/5y515nx3AwIAfAsFIADAydKUcXnK4w7nsY+YjY2/x9M5SX6pJC9sm2b5wre8Nhe87fV9ZwIAWDcUgAAAJ0ctj3nEWjn3ifM2/p4Q25M8p+vqL3fJBW3blqcpAQEAkigAAQBOvCMbfw+Xi54yzMyotfH3hBkk9X9Mrb86WV37d5Muc+e++dV9ZwIA6J0CEADgRKo1ZfvWQ+Xic0uWFgfu/TspHpnUn21K/YnhaHDGhe94Q995AAB6pQAEADhRak3m59bKM89vs7zTxt+Ta0u67r90k+7q2pVLL7rxveWC97+t70wAAL1QAAIAnCjD4bhc9JRJHvogG3/70aTWS2s3vrq75Yv/uTl4YPHCX/uFvjMBAJx0CkAAgBNjXM5+7KHy+EeNYuNvv2o9o44nL6vjtdfU5JEP//Gr8sw9V/edCgDgpFEAAgAcb7XWctbDV8t5T5xP23reWhfqbJ1M/m3Wxm9dfsSD/+nquA4uvOaNfYcCADgpPJACABxPRzb+rpRnnDPK7Ezr6O/6UrvJud147Ze7gwevbAbtzqe9y5FgAGDjUwACABwvtSbbtx4qF58XG3/Xsa7bWcfj508OHvrFthk++ftrzXd/5Nq+UwEAnDAKQACA4+HIxt/Vcsl5Jbtt/F33ah3VtbXvnRw+9NZPvPuX//Wh274yc+FvvqnvVAAAJ4QCEADgeBgOJ83Tzu7Kwx6k/JsidTJ5bLey8tp64PBLBhnuvujnXp1LPnRN37EAAI4rBSAAwAM3KU8+61Ce8OhhSrHxd9p03VK3uvLfxwf3v6nu2nL+aNujytPf/46+UwEAHDcKQACAB6LWrjzqoYfL+U+ezaBt+47D/VTroFtb/Yf18KG3Hvjk739faTN70Xt/te9UAADHhQIQAOD+qjXljN1r5eJzZzI7Y+nHBlAnk4fX1ZWfnezb91NlUM688Nd/ue9IAAAPmAIQAOD+qDXZtnSoXHpezdYtyr8NpHbdQre68p8n+w/+ahm0F/+Tv/uz8l2/a0swADC9FIAAAMeq1mRudqW5+Lya3ada+rER1drUtdVLusOHfvW2P/3o96/tu23+4ve/te9UAAD3iwIQAOBYHdn4W/OIB88p/za2Oh4/uDt86GXj/ft/stZ6xikPTS790Pv7jgUAcEwUgAAAx6KUSXnSWYfzhEePUmLj7yZw15Hg/zQ5eOBXHvPKN104nJmUZ7zv6r5jAQAcNQUgAMDRqrUrDz/zUDn/SaMMB56jNpNam2519bu7w4euPvilr/27ZnZu7uIPOBIMAEwHD64AAEej1pTTd62Vi8+bzdzs0NHfzamOxw+bHD70yrXbb/+xyaQuP/3db+w7EgDAfVIAAgDcl1pTti4dLpeen2xfsvF3s+u6pW7l8H+thw68MYPBued8z7/PJZ/e03cqAIBvSwEIAPCd1JrMzKyUZ5wzyWm7Rso/ktx9JPh7JgcPvHXm+5/xL7pPHho+fe+v9Z0KAOBeKQABAL6TwWBSnnZ2zaMeOp9aLf3gm9Tx+JHd4cOvn9xx6/Pr6uFTLnrvm/uOBADwLRSAAADfXleedNZKedJZNv7ybdWu296trDy3O3ToDbWrZ33Pof15+t539h0LAODrFIAAAPem1i4PO/NgOf9JQxt/uU+1Dura2j/vDh+6+o4PvPMfd92h5sL3/HLfqQAAkigAAQC+Va0pp5262lx63kzm52z85SjVksn4nLpy+Jeyf+X/adrhlgvf/Yt9hwIAUAACAHyTWlO2blkpl5zfZPtW5R/HrHbdcre29mOTAwd/utZyxoXv+IW+IwEAm5wCEADgbrUmM6OV8vRzxjljl/KP+6/W+Toe//usrr45pZ7/3X95XXnG3l/tOxUAsEkpAAEA7ta2k3L+k7s8+qHzqZZ+8EDVUieTf9CN195y4BOf+lfjO/cNL3zn6/oOBQBsQgpAAIAjuvLEs1bL2Y+ZSSnKP46frj6iTiavqeM8LxnsuPAdP9d3IgBgk1EAAgDU2pWHPehgedqTBxkOPR9x/NW6NV333Doev77rukef97OvyIXv+fm+UwEAm4QHXABgc6s1ZXnnarnk/JGNv5xgw9p1/1u67urm1Jl/1K3U9oK3v6HvTADAJqAABAA2r1qTpS2r5dLzm5yydaT846So9dzU+suZTP5zOxnPP+0tr+07EQCwwSkAAYDNa2a00jz9qWs5Y9nkHydXraen6368S34syelPf8vrct7VikAA4MRQAAIAm1PTjJtznzjOWQ+bS2z8pRfztea/1OSXJqnnNF3K05SAAMAJoAAEADajWh7/qHGe8ri5NMXzEH1qU+v/UGu9Ok39F11Xhuf/qhIQADi+PPACAJtLrbU85IyD5cKz24yGTZz8ZX04K8lrStNdmXSnnH/1a/rOAwBsIApAAGDzqDU59ZTD5ZLzBlmYd+8f682OJM8vpbymJGc99R0/m2e88fV9ZwIANgAFIACwOdSaLC2uNZde0Gbn9hnlH+vUMMn/keTNw9XmH62Uw+35b/rZvjMBAFNOAQgAbHy1JqPRarnoqWs5c7fJP6bBeWnblw8Wtz6imZ3rOwsAMOUUgADAxtc043LO41fLWQ+fjY2/TIOmyWBp62OG27c/e2bnqadfesM1ueSGa/pOBQBMKQUgALDR1fL4R43LOU+Yt/GXqVBKBguLaefmB0n+r5q8vkt5XDua5BkffG/f6QCAKeQhGADYuGqt5cGnHyoXPuXIxl+YAu3cfNqFxa//MMn/VFJ/abIyeMZoMlMuvV4JCAAcGw/CAMDGVGuyY/uhcsn5TRZt/GU6NDOzabdsScq3nFS/IKX+0nh46J+njgeXXP/uvqMCAFNEAQgAbDy1JosLa80zL2hz6vZZ5R/ToAyHGSwtpTTtt3uTRyV5TW2a/7s2zewlN7yn78gAwJRQAAIAG0tNMhquNRc9dZwHnzZS/jENSttmsGVrymB4X2+6K8mPllqfX0q39ZIbTAICAPdNAQgAbCxNGZezH3c4j334TGz8ZRqUJoMtS2lmZo72V2xJ8pxay8tKyumX3mgSEAD4zhSAAMBGUstjH7FWznvifNrGcw5ToKRdXEwzN3esv3CUIxuCX1trPevSD747F99oOQgAcO88GAMAG8ORjb+Hy0VPHWZm1MbJX6ZAOz+XwcJC7uewapPknyX5udrk3PHaai654Zq+PyQAYB1SAAIA06/W5JRth8rF55ZsWRi4949p0MzMpl1cSsoDfiS/JCm/NBoM/tGwLeWZN17T94cGAKwzCkAAYLrVmizMr5Znnt9k1w4bf5kKZTjMYMtSSts+8Hd2xBNr8oa1Sf0XXc3AJCAAcE8KQABguo2G43LRU7vykDNmlH9Mg69v/B3e58bfY/XQJD+b5PvHXTdzsRIQALiLAhAAmGbjcvbjDpXHPWIUG3+ZBqVJu7jlWDb+HqtdSX5k0DSXpdTFix0HBgCiAAQAplWtXXnMI1aPbPxtPdMwFQYLC2nn5k/0b7M1yZWllh8uqTsuvfE9fX/YAEDPPCwDANOn1pQzT1stzzhndGTjr6O/rH/t3HzahcWknJRh1bkk/yW1/Eyt9UGXXP+eXHLDu/v+FAAAPVEAAgDTpdZk+9aD5ZLzYuMv06KZmUm7ZSlpTurj9yDJv07y2pR6VgYll1x/Td+fCgCgBwpAAGB61JrMz602l5xXsrzTxl+mQhkMjyz9OH4bf49Fk+R/SvKGOs7Zi/Pb8vQPvqvvTwkAcJIpAAGA6TEaTpoLn9Ll4Wcq/5gKpW0zWFo6ERt/j9WlJfn5/Yduf/ptj96Siz90Td95AICTSAEIAEyHknF58mMO5fGPtPGX6VDKXRt/Z/tOcrdzk7xh598d+EeTQzPl4g++t+88AMBJogAEANa/WrvyqIetlPOeNJvBwPMLU6FdWDwZG3+P1eOTvH4ws/K/tnWtudRxYADYFDxAAwDrW60pD9q9Vi4+dyazM5Z+MBWak7vx91g9LMmrurb9t3XQDC658Zq+8wAAJ5gCEABYv45s/D1ULjm/ZmlR+cdUaEYzGWxZSjm5G3+P1WlJXp4u/7nWOnPxDe/uOw8AcAKt66cSAGATqzWZm11pLjmvZreNv0yHMhikXVrqa+PvsTolyQ+XlGenNPMX3/ievvMAACeIAhAAWJ+Gg0m58Ck1Dz9zTvnHNChNk8GWrWmGo76jHIstSZ5ban1uSbflkhtNAgLARqQABADWn1Im5UmPOVwe/ygbf5kOpaTdspRmdt1s/D0W80melVpeVLtm+8XXmwQEgI1GAQgArC+1duURDz5Uzn/STIY2/jId2oWF9bjx91jMJvl/Sqk/mtRTL7nhmr7zAADHkYdqAGD9qDXl9OW1cvG5s5mbtfSDqdDMzmWwsGW9bvw9FqMk/6GUvCzJaUpAANg4FIAAwPpQa7Jt6+Fy6fnJtiXlH1OhGY0y2LKUrO+Nv8dikOT/TPIzSc5UAgLAxrBhnlQAgClWazI7s9JcfM4kp506Uv4xDcpgkMHS1pTBoO8ox1uT5F8keXVSHq4EBIDppwAEAPo3GEyaC59S88iHzKfWqT9HycZ3ZOPvUsp0bfw9pg8xyfcm9bVJHn3p9e/NxTYEA8DUUgACAH3rypMfs5InnmXjL9OhlLSLW9LMzvWd5GT4H5K8tpbusTVNLjUNCABTSQEIAPTnyMbfA+X8Jw0zaD2XMBXa+YW08wt9xziZvjvJ65qaJ46bmktveE/feQCAY+RBGwDoR60pu09dLRefN5u52aF7/5gGzexc2sUNsfH3WF2a1Ne0XfOUOlNyyfXX9J0HADgGCkAA4OSrNdm2tFouPb/J9iXlH1Ph7o2/ZeNs/D1WFyf1tVnpzs0kueRD1/SdBwA4Spv26QUA6EmtycxopbnoqWs5Y1n5x1Qog0HaLRty4++xelqS19VBnjZcGeei3/6NvvMAAEdBAQgAnFyDdlzOf/Ikj36ojb9Mh6bJYHEpzWjDbvw9VueW5LWrg/bCxcEgj3/nL/WdBwC4DwpAAOBk6soTHzMuZz92Ns3mu0SNKVRKBgtb0sxtio2/x+IppZTXHjp0+MKdO0/pOwsAcB8UgADAyVFrVx525sFywZPaDAdNnPxlCrTz82kXNtXG32NxdinltV2Xi575oWvyDItBAGDdUgACACderSm7d66US88bZX7OvX9MhWZ2Nu3i0mbc+Hsszi4lr6uTPKOUcS69/j195wEA7oUCEAA4sWpNtm5ZLZde0Gb71pHyj2lQhqMMtmzdzBt/j8WTaslrSwYXd/W2XHKDEhAA1htPNADAiXPXxt/yjHPWcvouk39MhdK2GSwt2fh7bJ6Y5NWl2X5xV/crAQFgnVEAAgAnTtuOy3lPGpdHPXQuiXOUrH9Nk3bLUprRTN9JptGTkvqqpiw8Y99im++69t195wEA7qIABABOlFqe8Ohxecpj59IUzxysf6VksLCYdna+7yTT7MlJXrW4b+3CuS2zOff97+g7DwAQBSAAcCLUWstDzzhYnvbkNsOhjb9MhXZuPu3ColnVB+7sUsqr7zy0cv787EwuuOHtfecBgE1PAQgAHF+1ppy641C55LxBFubd+8dUaGZm027ZYuPv8fPUkrw6qeeO6qjvLACw6SkAAYDjp9ZkaXGtPPP8QXZsn1H+MQ3KcHhk6UfT9h1lozkvyatLKWc/44Z359Ibruk7DwBsWgpAAOD4OLLxd7V5+jlredBuk39MhSMbf7emDIZ9R9moLkjymiblyaV2udh2YADohQIQADg+mmbcnPvE1Tz6YbNxixrToDQZ2Ph7MlyU5FW1NI9PU3Pp9df0nQcANh0FIABwPHTlCY8e5ymPm7fxl6lQSgaLi2lm5/pOsllcXJNXli5nTdqSZ37wmr7zAMCm4gEdAHhgjmz8PVwuPHuQ0dCzBVPhGxt/DaueRN+d5Gfarj68a5N/eM01fecBgE3DQzoAcP/VmuzcfqhcfF6ThfmBe/+YBs3MTNpFG3978j01eXmpOXNlqe8oALB5KAABgPun1pTFhbXm0gva7Nw+q/xjGpTBMIMtW1NaG397UpL8s5r8VE057RKbgQHgpFAAAgD3z2i0Vp7+1HEefNpI+cc0OLLxdyllaONvz0qS/29J/YmSbuelH3x333kAYMNTAAIAx66UcXnq4w/nMY+YiY2/TINS0i4upZmZ7TsJRzRJ/lVN8yNpyvZLb7gm3/Whd/WdCQA2LAUgAHCsanncI9fKuY+fT9t4lmAKlAwWt6Sds/F3nWmTfF9NXtSlLq11/i4BAE4UD+0AwNGrtZaHnHG4XPSUYUaj1tFfpkE7N5d2fsHSj/VpmOT7S8oVXVcWnv7Ba/rOAwAbkgIQADg6tdbs2H6wXHxuyeKCjb9MhWZmJu2WpcSw6no2k+QH2ib/ddBmxmIQADj+PAkBAPet1mRxfq155vltTj3Fxl+mQhkMbPydHgtJrqg1/7EmQyUgABxfCkAA4DurSUajcfP0c7o8+HTlH1OhtO2R8s/G32myNclVJfk/m0nTXnr9e/rOAwAbhgIQAPjOSsblKY89lMc8fNR3FDgqpaRd3JJm1sbfKbQzyY90bfe/1PmVconNwABwXCgAAYBvr9auPObhq+XcJ86nbT03MBXahcW0c/N9x+D+Oy3Jy8qh4f/41dma7/6gSUAAeKA8yAMA967WlAefvlaece4oMzb+Mh2aufm0C4s2/k6/h9SUn9l5qL1kXPzZAwAPlAIQAPhWtaacsu1gueS8mi02/jIdmtFMBlu2pNj4u1E8OjWvqMlT/8EN780zPug4MADcX56OAIBvVmsyP7eSS84r2bXD0g+mQhkM0i4tpbSDvqNwfD0lJT89SffoNm0uvvHdfecBgKmkAAQAvuHIxt9JueipKQ97kPKPqVCaIxt/m6E9NRvUpUl+qpbuQSVN/sGed/SdBwCmjgIQAPiGpozL2Y89VB73yGESl6ix/tn4u1n805TyI7XWneORohcAjpUCEAA4otauPPqhh8u5T5jNwMZfpkM7v5B23sbfTaBJ8q9K8oKSunTJDdf0nQcApoqHewDgyNKPM09bK884dzazM5Z+MBWa2bm0i1ts/N08Bkn+Y1Ke1U4y+8zrr+k7DwBMDQUgAGx2taZs33qoXHJ+srSo/GMqNKNRBktLNv5uPrNJfmjS5vtTmsGlN7yn7zwAMBU8MQHAZlZrMje7Ui4+r2Z5x4zyj2lQBoMMtmy18Xfz2pLk+V26/300OFSeeeO7+s4DAOueAhAANrPhYNJc9NSaR5w5p/xjGpSmyWDLUopFEJvdziQ/ujKe/UerJflnH/iNvvMAwLqmAASAzaqUSXnyY1fy+EeNYuMv0+DrG3/n+k7C+vDgJC8bds35t8+Mc+n1jgMDwLejAASAzajWrjzyIYfKeU8c2fjLtDiy8Xeh7xisL0+oyctrylmTkjzzBseBAeDeeOAHgM2m1pQzdq+Vi8+dzdyspR9MBRt/+Q6ekeTH29qdXmuTC294Z995AGDdUQACwGZyZOPvSrn0vGTrFuUfU6EZjY7c+2fjL9/e99ZSXtI12T4sw76zAMC64ykKADaLWpPZmcPlGeeOs/vUkfKPaVDaQdotW1MGNv7yHTVJ/m2peU7bNXOX3uA+QAC4JwUgAGwGNclgMG4ufErNIx88n1qdo2T9a5oMlpbS2PjL0Rkm+a+T0v2H8dqkvfiD7+47DwCsGwpAANgMmtKVJz92LU88ayY2/jINSsnAxl+O3WKS57XD5p/P7ZvLpR80CQgAiQIQADa+Wrvy8DMPlPOfOLTxl2nRzs/b+Mv9tZzkRw9vPXzpuK35Zx/4zb7zAEDvvAgAgI2s1pTTdq2WS86z8Zep0czOpl1csvGXB+IRSV7W1jzx9tm1vrMAQO8UgACwUdWabFtaLc88v8m2paHyj2lQhqMMtmy18Zfj4dwkP15TzrjkxmtyyQ3X9J0HAHrjyQoANqKaZHZmpTzj3LWctkv5x1QobZvB0pKNvxxP35OaF6cr22L3EQCbmAIQADaiQTMuFzx5Umz8ZVo0TdotS2lGM30nYWNpkvyblPpDaevMJR+6pu88ANALBSAAbDSldOVJjxmXJz1mNo1L1JgCpWSwsJh2br7vJGxMoyT/LV3+zWTSlotvsBkYgM1HAQgAG0mtXXnYmQfL+U9uMxw0cfKXKdDOzaddWOw7Bhvb1iRXtWXyPe3g9lxy/Xv7zgMAJ5UCEAA2ilpr2X3q4XLJeaPMz7r3j6nQzMym3bLFxl9OhjOT/Hg33vaUWmq+60Pv6jsPAJw0CkAA2AiObPxdK8+8YJDtSyPlH9OgDIdHln40bd9R2DyelNSfaFIfMu68FAJg8/BVDwCmXa3JzGilefo545x2qsk/pkJp2wy2bE0ZDPuOwubz/6nJC0vNtktveHffWQDgpFAAAsC0a9txOe9J4zzqIXNJnKNk/St3bfydsfGXXpQk/7qW/Pekmbn0hmv6zgMAJ5wCEACmWy1PPGtcnvK4uRSXqDEFSslgcTHt7FzfSdjcRkl+oKb+668d+Ep52t539J0HAE4oBSAATKtaa3nogw6WC548yHDgazpToZ2bS7uwYOkH68HWJFedsrDzu0ajUS5xHBiADcyLBQCYRrUmu3YcKpecN8jC3MC9f0yDZmYm7eJSUjyCsm48JCk/muQxtSSX3vjevvMAwAnh6QsApk2tydYtRzb+7tg2o/xjGpTh8MjSj9bGX9ad81PzI6nl1K52fWcBgBNCAQgA06TWZHZmtXn6OeNyxrKNv0yFr2/8Hdr4y7r1vSW5vNTMX2IpCAAbkAIQAKZJ26yVc5+wmkc/dCY2/jINSkm7uMXGX9a7QZL/OyXf13Wlufj6a/rOAwDHlQIQAKZHLU84a1LOftx8ikvUmA7twmLaufm+Y8DRWEhyZdPU7yldcsmN1/SdBwCOGy8eAGAaHNn4e6g87cmDjIa+fjMV2rn5DBYWbfxlmpyR5EfS5klxwwIAG4gXEACw3tWasvOUg+Xic5sszNv4y1RoZmbSbllKGo+bTJ2zk/xwTXZfagoQgA3CExkArGe1JlsWVsszLxhk5/ZZ5R/ToAxs/GXq/eOSPKdLnbv4xnf3nQUAHjAFIACsZzOjtebp53Q5c/dI+cc0KG2bwdKSjb9MuzbJfyy1/Nv5yaR81/Xv6jsPADwgCkAAWK9KGZenPv5wHvPwUWz8ZRp8fePvbN9J4HhYTPL8Q037XWuDJpd+0CQgANNLAQgA61NXHveotXLOExbSuESN6WDjLxvQg5LyI80kj66l5B/c+J6+8wDA/eIFBQCsN7XW8tAzVstFTxlmNGwc/WUaNHPzaW38ZWO6oCYvSppTJp1/vwGYTgpAAFhPaq3ZecrBcvF5yaKNv0yHZjSTwZalFMOqbFz/PKX7rynd6JIbruk7CwAcM09pALBe1JosLqyVS89rbfxlWpTB4MjSDxt/2dhGSX4gyT+fWdiWS298b995AOCYKAABYD2oSWZG4+bpT+3Kg09X/jEVStNksGVrynDUdxQ4GU5JctXKgdvP7eok//C3f7PvPABw1BSAALAeNGVcnvK4uzf+wvp398bfWRt/2VQek+TFTcrpq+Nx31kA4KgpAAGgb7V25TEPXynnPGEurUvUmA7t/ELa+YW+Y0Afvqcmz+om3ezFH3x331kA4Kh4kQEAfao15SFnrJannzOTmVEbJ3+ZAs3cXNrFLTb+slk1Sf5DaZt/3Ww/XC75rXf1nQcA7pMCEAD6UmuyY9vBcsl5yZYFG3+ZCjb+QpJkKcnz6x1zzyid/y8AsP75agUAfag1WZhbKZeeX3LqKZZ+MBXKYJB2aSmlHfQdBdaDhyZ5Sa158CU3vjsXX/++vvP8/9u7tya7zvw87P//Wmufeh8aJxI8AQTBAwgCIEGgAcwM0A3McKQZHyTPxCPZli3JsmTLduJDLCsqx65yvkBufBPf5C5XljMDSkkcZ4bgKHFVLlyVKn8Bu5KKU5WqVMUVaYhDd+83F01SoxEPAIjutdfev98neC661l7v03u/DwB8KgUgABy0EhH9/m51/XLki88r/+iEvcXfWVQWf+HH3YyIf1B263GU3bazAMCnUgACwEH7aPH37Mu9iHCJGovv48XfUdtJYNFkRPxSVvNfjLKdm3eMggCwmBSAAHCQSpnnmZfu5eXzg6hrn8N0gsVf+ExrEfFbWdebUSK23r/ddh4A+GMcPADgoJQSeeK57bx+eRjDvtEPOqEaWvyFh3AqIv5xZp6w5g7AIlIAAsBBKCXyyKG7efNKxGyi/KMTql7f4i88vFsR8ZulKqOt9/0UGIDF4m0OAPZbKRGj4b3cvFLi6aMD5R9dkPWHi7+NxV94SFVE/OWc5y/EPHPrzu228wDAxxSAALDfer3d6vrliNMvjJR/dMHHi7/9QdtRoGumEfGfR8aX2w4CAD9OAQgA+ylzN99+436ce6UfFn/pgo8Wf0cWf+ExnY6I/yJKPLf1np8CA7AYFIAAsF9Kmecrpz7IjfN9i790hcVfeCLeiYzfKFEPN9/7nbazAIACEAD2RSmRLzzzILc2RjEcGP2gEyz+whNTRcSvZs6/vRu78fXf++/azgPAilMAAsCTtrf4ez9vXq0s/tIVFn/hiVuPiH/YZHVhZ74b17/vm4AAtMcbHgA8SR8t/t7Y2Injx3rKP7rA4i/sm3MR5R/uxvxw1ey2nQWAFaYABIAnpUREr9mpvvR2idMn1qIUv6Nk8WUV9XRq8Rf2z7ez5F/dqR5U13/4z9vOAsCKUgACwJNS5TzfOrsdF14dRFr8pQMyo5lMoh6ttZ0Ellk/Iv5Oszt4p573YvOOZWAADp4CEACehFLm+fLJH+WVN3vRND5f6YR6tBb1eNJ2DFgFz2XEP44oL/n/EABtcEABgC+qlMjnjt/PrSvDGFn8pRuq4TDqqcVfOEBfiYi/H1Gtbd15t+0sAKwYBSAAfBGlRB5ef5C3rtaxPjX6QSdkr/fh4m/ddhRYJRkRvxgx/7nf+Oqfius/+G7beQBYIQpAAHhcpUQMB/fyxsZ2PPOU8o9OyLqOZroe2fTajgKraBoRv/Vfvv+7b9eVoxgAB8enDgA8rqbZqb50cR4vn7T4SzdkFfVkFtXA4i+06GxE/lYpcWjzvdttZwFgRSgAAeBxZM7zrdd34s0zQ4u/dMLHi7+jtpMAEd/KjF/Nwbza+qFVYAD2nwIQAB5VKfM8feKDvPJmY/GXrvh48dfoByyCQUT83XhQ3Ui3RwBwABxaAOBRlFLimafu5+aVfqwNLf7SCdVgGPXE4i8smBci4h/N5/nMzfdvR/y1f9p2HgCWmAIQAB5WKRGHZjvVrWt1HJ71lX90wceLv7XFX1hAX8uMv1V2s7f1555tOwsAS0wBCAAPY2/x9351Y2M7nn1K+Ucn7C3+ziJ7Fn9hQdUR8etRlW9m2Y3N999tOw8AS0oBCAAPo6538uqbO/HKSQsKdENm1JNpVINh20mAz3Y0Iv5BqapT6Z9LAOwTBSAAfL55vvX6Tr51dhTpEjU6IDPq8STq0VrbSYCH86WI+DtRYrD13u22swCwhBSAAPBZSil5+uTdvPpWEz2Lv3RDPRxFY/EXuiQj4i9Hxs/ubt+Lm+//Ttt5AFgyDjIA8GlKKXn82Ae5udFY/KUrqv4g6uksovKaBx1zKCJ+qx4MXysxbzsLAEvGmyEAfJJSItan23nrWi+OrA+Uf3RBNr1oZusWf6G7LkWJv1fmOdp6zyAIAE+OAhAAflIpEYPBg+r65d14/nhP+UcXZF1HM7P4Cx2XEfELmeU7/X4vbvzgu23nAWBJKAAB4CfV9XZunH8Qr50aRCkuUWPxWfyFZTKNiN96sP3gXFU7rgHwZPhEAYA/ap4XXtvNS2+sRZU+J+kEi7+wdM5FxG9GicnWndttZwFgCTjYAMBHSil5+sT9vHaxiV6vCr/8pQPq0VrUFn9hGX0nIv5szHdj63/9l21nAaDjFIAAEBFRSomnjn6QNzaqGI8s/tIJe4u/00iLv7CMxhHx90tVn8379+Pav/hnbecBoMO8LQJAKRGzyXbeutbE0UMWf+mEbJqoZ7PIumk7CrB/zmfEb5T5fG0w6LedBYAOUwACsNpKRAwG23nj8jxfOK78oxOyqqKZzqLqKQRgBfx8RHx7NyPcBwjA41IAArDaqtzOy+fu5WsvaVLoho8Wf4ejtpMAB2MaEb/ZlHImXU4LwGNSAAKwyuZ5/tXtvHTO4i+dUY/HUa+N244BHKy3SuTfm5dqtPXe7bazANBBDjsArKZSSp564UF++VI/+r3alyrogmo0ino8tfgLq+kvZJZvPWiauPne99rOAkDHKAABWD2llDh2+IPc3EiLv3RF1e9HM51Z/IXVNY2I3+jt7LxS/BMAgEfkDRKA1VJKxHT8oLp1rY5jh41+0AnZNFFP1y3+Apcy429F5GDrzrttZwGgQxSAAKyOUiIG/Z3q+uWIE88OlX90wceLv307NUBkRPyliPk3Son42g9/u+08AHSEAhCA1VFVO3np3L0481Kv7SjwUCz+An/ckYj8zSrLC7tz3woG4OEoAAFYDaXM8+wr9/PSuVHULlGjG+o1i7/AJ/pKifhrmaW5+b5BEAA+nwMQAMtvb/F3O69fGsagb/GXTqiGo6gnFn+BT1RFxK+VUm3Oi2cEAJ9PAQjAcisl4tjhu7m1ETFZq937RxdY/AUewrMl4j+LKMc27/gWIACfzVslAMurlIjx6F5182rGsSMWf+mErD9c/G3c7QV8rncy8pcno6Px1R/+921nAWCBKQABWF79/m5e34g4+ZzFXzrB4i/wiHoR8Td/dPf/vTSf78TmnXfbzgPAglIAArCcMnfy0hv38uzpfkS4IInF99Hi78jiL/BITkeUvzvP+Thy3nYWABaUAhCA5VPKPM+cvpeXzw+irn3W0Qn1aM3iL/C4vp0lv3U3m7h153bbWQBYQA5FACyXUkqefO6jxd/GT3/pgmo4jHpq8Rd4bJOI+Dtr893TvgMIwCdRAAKwPEqJOHr4fm5diZhNlH90Qvb60UzXI6u67ShAt12OiF+fZ9XbfN9dgAD8UQpAAJZDKRFro3vV1pV5PH3U4i+dkHUdzWxm8Rd4EqqI+OWqzG9Wuxlv/+v/uu08ACwQBSAA3Vciot/bqa5fijj1/Ej5RydUVdTTWVT9QdtJgOVxPCJ+Y17Nn5r8/tG2swCwQBSAAHRflbv59rkH8cYrFn/phsxoxpOoR2ttJwGWzzsZ8Zemf1Di5nu3284CwIJQAALQbaXM87WXPsiN8/2oK59rdEI9Wot6PGk7BrCcehHxN340yTeLf4kB8CEHJQC6q5TIF555kDcuj/YWf9sOBJ+vGgyjnlj8BfbVqyXiPykZo833b7edBYAFoAAEoJtKiTx66H7evFpZ/KUrstfbG/2oLf4C++47WeKn/KsBgAgFIABdVErEaHgvr1/eiePH+so/uiDrOprpemTTazsKsBoOR8TfLSWOb965HVsPbredB4AWKQAB6J5ebye//HaJ0yfXlH90wkeLvwOLv8CB2syIX/pfvvpn4v6/HrWdBYAWKQAB6JbMeV48u5PnXxtEWvylAz5e/HX4Bg5cExG/fvP9d9/q378XX//+b7edB4CWKAAB6I5S5vnKiz/KKxeaaGqfYXRCPRpFPR5H6KuBdrxcIv5Wxnx0v27azgJASxyeAOiGUko+f/x+bm4MYzgw+kEn7C3+ziLSKxfQqu9E5DcyI7buvNt2FgBa4G0UgMVXSsSRQ9t561oT69Oe8o8uyF4vmqnFX2AhrEfE344SxyPmbWcBoAUKQAAW24eLv9Xmxk4cP6b8oxM+XvztWfwFFsaNiPyLMWhy633fAgRYNQpAABZb0+zkly7O4/SJkfKPTsiMejK1+Assml5E/NW4t3Muim8BAqwaBSAAiytznm+9vpMXzgzDggJdkBn1eBL1aK3tJACf5PXI/PXMGGzdud12FgAOkAIQgMVUyjxfPvlBXn3T4i+dUQ9H0UwmEamvBhbWnyslt9oOAcDBcqACYPGUUvLZp+7ljY1+jIYWf+mEqj+IemrxF1h4T0XE345SDvkWIMDq8IYKwGIpJeLQbCdvXevF4Vlf+UcXZNOLZrZu8Rfoiq9H5ndKRHxVCQiwEhSAACyOvcXf+9Xmxk48+5TFXzohqzqa2cziL9Alw4j4j7PES7uu2AVYCQpAABZHXW9XV9/ajpdPDkP3RxdkRj2dRjUYtp0E4FG9FRm/Um9ndfP777adBYB9pgAEYDFkzPPi2d1468xapAUFusHiL9BhGRG/PO+VS1FH3Hzve23nAWAfKQABaF8p83z5xXsWf+mSarQWzdjiL9BpJ0uUvzGfx3BefPwCLDNPeQDaVUqJ48fu5o2Nem/xt+1A8Pmq/iCa6TSi8ioFdN63qqp8Lap53HrvdttZANgn3loBaE8pkevT7Wpv8Xdg9IMuyKaJejaLrJu2owA8CUdKxN+sSh7xKQywvBSAALSjRMRwsJ03Lu/G88ct/tIJWVXRTNej6vXbjgLwJH2tRHyrHo1i8wffbTsLAPtAAQhAO+pqO69cuB+vnhpEKS5RY/FlRj2ZRTW0+AssnVFk/PXdu3dfrNIREWAZeboD0IZ5XjizkxffWAsnDTqiXhtHvWbxF1hal0rGL0bU1dadd9vOAsAT5tAFwMEqpeTLJ+/nl97qRa+pjH7QBdVoFPVkavEXWGZ1RPxyqXYvhA9ngKWjAATg4Owt/n6QNzaqWBs17v2jC6p+P5rpLNLiL7D8XokSf6WaV/2b7/kWIMAy8SYLwMEoJWJ9+qC6dbWJI+sWf+mEvcXfdYu/wCr5uXk1v1bS5zTAMlEAArD/SokYDrarGxslnjuu/KMT9hZ/ZxZ/gVXzbET8eokYb9653XYWAJ4QBSAA+6+qtvPy+fvx6ouaFLohM+rJNKrhqO0kAG3401niHbeeAiwPBSAA+22e517dzrffGFn8pSv2Fn/HbccAaMt6ZPz1qPLw1vvuAgRYBg5iAOyfUkqeeuFBfuXSIPq92qggXVANLf4CRMRXY16+5doOgOWgAARgf5RS8qkjd3PrSsZ4VDtA0AUWfwE+NoyIvxYZz229f7vtLAB8Qd5uAXjySomYjh/EzWtVHD1k9INOyLqJeroe2Vj8BfjQRpT4+Sy7sXXHT4EBukwBCMCTtbf4u5M3NiJPPKP8oxuqKprZLKq+nRqAH9NExK+UrE5HztvOAsAXoAAE4Mmq6+28fP5evvZSLyJcosbiy4zG4i/Ap7kQJX+h9Er6KTBAdykAAXiS5nn25ft58Y1R1BZ/6YZ6tGbxF+DTZUT8Ym5XZ9sOAsDjczgD4MnYW/zdzuuXRjGw+Es3VMNh1NOZxV+Az/ZalPilah71zTu3284CwGNQAALwxZUSeezw3dzciBivWfylE7LXj2a6bvEX4OH8hXkVF33CA3STN14AvphSIsZr93Lrasaxw0Y/6ISs62hmM4u/AA/vZJT4tSw52HrvdttZAHhECkAAHl+JiH5/t7pxOePUc0PlH51QVdFMZ1H1B20nAeiab5cs10x8AXSPAhCAx1flTl4+dy9ef7kXxXGADsiMZjyJarTWdhKALjoeEb9aShlt+hYgQKcoAAF4PCXm+frpe3np3CBql6jRDfVoLerxpO0YAF32pyLzhu0kgG5xYAPg0ZVS8sXnHuT1y8MY9Bs//aULqsEw6snU4i/AF3M0I/5KiRhvWgQG6AwFIACPppTIY0fu59aVKqZj5R+dUPV6e6Mfdd12FIBl8M3M2PLvFIDuUAAC8PBKiRiP7uXWxjyeOtJX/tEFWddRT9cjm17bUQCWxaEo8asZZXLzzvfazgLAQ1AAAvBwSono93aq65cjXnx+pPyjE6oq6sksqoHFX4An7KdK5FdtgAF0gwIQgIdTVbt56dyDOPtyP8LbPh2QGfV4HPWaxV+AfTCLiF8r8zLb/IFvAQIsOgUgAJ+vlHmeeemDvHy+b/GXrqhHo2jG07ZjACyzr2WVP1XVVdx4TwkIsMgc4gD4bKVEnnj2Qd7YGO0t/rYdCD7f3uLvzOIvwP6aRMSvznfjUBZHS4BF5ikNwKcrJeLo4ft586rFXzoje71ophZ/AQ7IZlblnZIlbt253XYWAD6FAhCAT1ZKxNroXrW5sRtPH7X4SydkXe+Vfz2LvwAHZBIRv5IR67teFQAWlgIQgE/W6+3kl98u8dILFn/phvxo8XfYdhKAVbOVGe9UdcaN77sLEGARKQAB+OOqnOfbb+zkuVeHYfGXTshoxuOoR6O2gwCsomlE/EqZ765Xbl8AWEgKQAD+qFLm+cqpD3LjfBNNrfyjE+rRKOrJxOgHQHtuRuQ7Weq48T//dttZAPgJCkAA/lApJV945l5ubgxiODD6QSdUg0HU01lEeq0BaNE0In+l5HxW7biHFWDReFMGYE8pEUcObefNq03MJj3lH12QTRPNdN3iL8BiuBUR72SVsfHuf9N2FgB+jAIQgL3ybzS8V21u7MTxYxZ/6YSs6mhm6xZ/ARbHJCJ+JeZltjadtJ0FgB+jAAQgomm280sXd+OlExZ/6YbMqKdTi78Ai+dW2fsmIAALRAEIsOoy5/n2G7t54cwo0uIvXZBRjydRj9baDgLAHzeNiF+KjMnW+7fbzgLAhxSAAKuslHm+8uLd3LjQRFP7TKAT6tEomrHFX4AF9rUo+ZXwowKAheGwB7CqSin57NP38sblXows/tINVX8Q9XQaUXmFAVhghyPKL0VWo60777adBYBQAAKsplIiDq9vx1ev9eLQzOgHnZBNE81sFlk3bUcB4PN9I+bzq+FrgAALQQEIsGr2Fn/vV5sbu/nMUz3lH12QVRXNdD2y1287CgAP51hk/NI8q/6NH/5O21kAVp4CEGCVlIho6u289tZ2nD45VP7RCZlRT2dRDS3+AnTMn6zK/HJV5nHzB7fbzgKw0hSAAKukypJvvbGbb55Zs/hLV9RrY4u/AN30TET8xXkpzW7ln44AbVIAAqyKjxZ/r17oWfylK+rRKOrJ1OIvQHf9bBXVhSoytv7Vv2g7C8DKcgAEWAWllHzmqbt5/XIdo2HtPm66oOr3o57MIi3+AnTZiYjy89FkFdv3284CsLK8UQMsu1IiDs2289a1XhyeDdz7Rxdk00Q9XY9sLP4CLIH/KHbKq1F8mxugLQpAgGVWImI03K5ubMzjuaf7yj+6YG/xdxZV3+IvwJJ4NSK+/cEgcvP9221nAVhJCkCAZVZX23nlwv145aTyj27IjHoyjWo4ajsJAE9ORsTPj+6XE64hAWiHAhBgec3zzTM7+dbZtajS855OqNfGUa+N244BwJN3PiN+ZlyN4svv/fO2swCsHAdCgGVUSsmXX7yf1y72o9dU/ttOF1RDi78AS6wXEX/+g/ndp3vpfleAg6YABFg2pZQ4fuyD3Lxcxdqw9tNfuiB7/WimFn8BltzlKPGNzIgb37/ddhaAleItG2CZlBK5Pn1Q3brWxOF1i790QjZNNDOLvwArYBQZv1BKHqpq3/YGOEgKQIBlUUrEcLiTNzZKPPe08o9OyKqKZmLxF2CFXI8oN8L9JAAHSgEIsCzqejuvnL8Xr76oSaEbPlr8HVn8BVgh04j4C1HKaOu9221nAVgZCkCA5TDP869u58Wzo0iLv3RDvbZm8RdgNb1TMi+GXwEDHBiHRICuK6XkSyce5JffHkSvV7cdBx5GNRxa/AVYXccz4udLr6q2fu/dtrMArAQFIECXlVLi6aMf5NZGxtrI4i+dUPX60UzXIyt9NcAK+9O5Mz9Tdr27ABwEBSBAV5USMR3fr25eq+PIIaMfdELWTdSzmcVfAF6JEt+OeRM//Xv/VdtZAJaeAhCgi0qJGA52qs0rGSeOD5V/dEFWVTTTWVT9QdtRAFgM38lq54V7u8+2nQNg6SkAAbqorndy48L9eO1UL3R/dEFm1OOJxV8Aftz5iPhmyQiLwAD7SwEI0D3zfOOVe3nx7DAqi790Qz1ai3o8aTsGAIulFxF/rip5qDIKBbCvHBwBuqSUkqdeeJBffnsU/V7t2390QTUcRj21+AvAJ7oaUa7Po8RXf2ARGGC/KAABuqKUyKeO3sutK1VM1iz+0gnZ60UznVn8BeDTzErEz5Wc93fq3bazACwtBSBAF5QSMV67l1tXIo4e6iv/6IKs62im65FNr+0oACy2r2dUF9LxFGDfeMICLLpSIgb9nWpzI+PksyPlH12QVRX1dBbVwOIvAJ/r+Sjx7Z3dUm3eud12FoClpAAEWHRVtZOXLzyI10/7GhXd8OHib23xF4CH92eaujqZ4b5YgP2gAARYZKXs5tmX7+alN/oWf+mKejT6cPHXIQ6Ah3YmSvlmU5e4/oPbbWcBWDoOkwCLqpTIUy9s5/XLo+j3Gou/dEE1GEY9mVn8BeBR9SLi53Z240jtlArwxHm0AiyiUiKfOvLR4m/j3j+64OPF39riLwCP5UpEXC8R8b/9o3/TdhaApaIABFg0Hy3+bl6Zx7HDFn/phL3F31lkz1WVADy2aUR8p44Y/qdf+3dtZwFYKgpAgEVSSkS/v1NdvxTx4nMWf+mGzKgn06gGw7aTANB9X5tHnPUGBPBkKQABFkld7eblc9tx9uV+WFCgI+rxJOq1tbZjALAcno+Inx0ORnHjve+2nQVgaSgAARZFKfM8c/qDvHSuF3Xl+UwnVKO1aCz+AvDkZET8zN37d5+v0usQwJPiiQqwCEopefK5+3nj8igGfYu/dEI1GEQznUXoqwF4ss5nxFfbDgGwTLyxA7StlMhjRx7kzatNTMYWf+mEbHrRTNct/gKwHwYR8WczY3zzzu22swAsBQUgQJtKiVgb3cvNjd146khP+UcXZFVHM7P4C8C+ulFKvO3NCODJUAACtKnX266+cmkep563+Es3ZEY9tfgLwL47FhHf/v3/515e+53fbjsLQOcpAAHaUlXzvHRuN869MgoLCnREPZ5EPbL4C8CB+BPTo8OXBmPfOAf4ohSAAG0oZZ6vnvogL59roq6Vf3RC/dHib/qTBeBAvBYZ72RdYvO9221nAeg0BSDAQSul5PPP3MsblwcxHBj9oBOq/iBqi78AHKw6Ir5ddmOS4X0J4IvwFg9wkEqJPHpoO29d68VsYvSDTsim2Rv9sPgLwMG7GpmXsqriy//jd9vOAtBZCkCAg/Lx4u+VnTh+VPlHN1RVNNP1yF6/7SQArKajEfFntudRNX3HV4DH5QkKcBBKRDTNdn754m689ILFX7ohM5rJNKqhxV8AWvXNJuNk2kwDeGwKQICDUOU8L53bzfOvrYXFXzqiHo+jXhu3HQMAXo0o75R5xtYP/QwY4HEoAAH2WynzfO3U3dw430RdKf/ohGo0ino8tfgLwCLoRcS3so5JFPfRAjwOBSDAfiql5HPH7+b1y729xd+2A8Hnq/qDaKazSIu/ACyOL8V8/rZrVAAejzd7gP1SSuSR9b3F3/Vp3wsrXZBNE/V0Flk3bUcBgB93LDL+dPSqauv9d9vOAtA5CkCA/VBKxGj4IG9c2Y1njin/6ISsqmims6j6Fn8BWEjfiO35c96rAB6dAhBgPzT1dl5960GcfmHoJZVOyIx6Mo1qOGo7CQB8mtciYqtkxJ//Z++1nQWgUxSAAE9a5jwvvrGbb51Zi7SgQDfUaxZ/AVh4o4j4mSwx+r+O/X7bWQA6RQEI8CSVUvLVU/fyypu9aBrPWDqhGo6inlj8BaATtiLiTNshALrG4RTgSSml5LNPf5DXL9UxGtR++ksXVP2+xV8AuuSZiPgTuTOPzX/1u21nAegMb/sAT0IpEYfXH8Sta704NBso/+iCjxd/G4u/AHRGFRHfLE0eywc7bWcB6AwFIMAXtbf4u11tbpR89imLv3RDVUUzmUbVH7SdBAAe1aWI3IhwdQXAw1IAAnxRdb2dV9+8F6dPKv/ohsxoxtOoRmttJwGAxzGJiJ+dz3eqzfe+23YWgE5QAAJ8MfN86/XtfOv1caRnKt1Qr42jHlv8BaDTvppVfcodtgAPx9MS4HGVUvKVF+/ntbcGFn/pimo4tPgLwDJ4JSM3w48vAB6KAyvA4yilxPFjH+SNy1WMhhZ/6YTs9aOZrlv8BWAZNBHxM7ulGlx/7922swAsPCcAgEdVSsT69EF161oTh9ct/tIJWdfRzCz+ArBUrtU5P1tnia/98PttZwFYaApAgEext/i7U21eiXjuaeUfnZBVFc10ZvEXgGXzQkS8k5mxM/9R21kAFpoCEOBR1PV2XrlwL1452Ws7CjyUzKjHE4u/ACyrP1mirBcnW4DP5DEJ8PDmeeHMg3zr7CgyPT/phHq0FvV40nYMANgvF6PExZhnfPN/+m7bWQAWlgMswMMopeTLJx/kly4Oo9fUbceBh1ENhlFPLf4CsNSORMQ3mix5t3G8Bfg0npAAn+fjxd+NjDWLv3RD9np7ox+VvhqApffT81KOR3hHA/g0CkCAz1JKxHR8v7p5tY4jFn/phqzraKbrkY2rKgFYCa+XyC/NI+PrP3i37SwAC0kBCPBpSokYDnaqzSsZLzwzVP7RCVUV9XQW1cDiLwArYxwRP11l9B5U3tcAPokCEODT1PVObly4H6+d6in/6ITMaMaTqC3+ArB6bpUSz7UdAmBRKQABPtlunnvlXl48O4zK4i/dYPEXgBX2UkRcLyXjqz/8521nAVg4DrUAP6mUkqdP7OSX3x5Fv1e7T5ouqAbDqCcWfwFYWcOI+OkqymB33rSdBWDhKAABftze4u+9vLGRMV6z+EsnZK8XzXQWWVv8BWClbZYqT0b4ZxjAT1IAAnxkb/H3XrV5JeLoob7yjy7YW/ydRfYs/gKw8l6IUm6WmMfXfvgv284CsFAUgAARe+XfoL9T3dio4sQzI+UfnZAZ9WQa1WDYdhIAWAT92FsDXtud3207C8BCUQACROwt/l5580GceanfdhR4WPV4EvWaxV8A+DFfKREv+1cuwB+lAAQoZTfPvnI3L54dRGVBgW6o19aimUzCPUcA8Eccj5K3omS8+e/+SdtZABaGAhBYbaWUPPXCdl63+Et3VINB1JNZRPoYB4Cf0ETE1yLL+NC/O9l2FoCF4eQArK5SIp8+ej+3rlQxXmvc+0cXZNOLZrpu8RcAPt3VUvLltkMALBIFILCaSokYr93NzY15HDts8ZdOyMriLwA8hOOZ5WbbIQAWiQIQWD0fLv7mjcsRJ5+z+Es3ZEY9nUY1tPgLAJ+jjoivR4m1rTu3284CsBAUgMDqqevdvHx+O18/PQwLCnREPZ5EPbL4CwAP6XJkvNp2CIBFoQAEVkspu3nm9Af59hu9qCvlH51QjdaiGU8ijFQDwMN6LiI2w8IbQEQoAIFVUkrJF59/kDcuj2LQb7wP0gVVfxDNdBpR+cgGgEeQEfHTGfXo5p3faTsLQOucJoDVUErEU0ce5M2rTUws/tIN2TTRzGaRddN2FADoordLzM+UKPHGv/2nbWcBaJUCEFh+Hy7+VltXduPY4Z7yjy7Iqopmuh7Z67cdBQC66vmI+EqWiKP/+/G2swC0SgEILL9ebzu/cqlY/KUzMqOezCyJj4hEAAANuElEQVT+AsAXkxHxU7u7ZTC/33YUgHYpAIHlVlXzvHxuN994eRQWf+mIejyOes3iLwA8ARerJl+pe46+wGrzFASWV4l5vnbqg7x8vom6Vv7RCdVwFM14avEXAJ6MExHlStQZm9//b9vOAtAaBSCwnEop+cIz9/L65cHe4q+f/rL4qn4/munM4i8APDl1RHw95/N+1nXbWQBa44QBLJ9SIo4e3s5bV3sxmxj9oBOyaaKerUc2Fn8B4Am7WkqcCK+EwApTAALLpZSI8ehetXVlN54+qvyjE/YWf2dRWfwFgP1wMjKuZRVx4wffbTsLQCsUgMDyKCWi12xXX760G6eeHyr/6ITMqCfTqIajtpMAwLIaRMStecleumYDWFGefsDyqKp5Xjq/G+deWQuLv3REvTaOem3cdgwAWHY3MsozXhCBVaUABJZDKfM8c/pubpzvRVV5t6MTquEo6onFXwA4ACciYiMi4lD5YdtZAA6cAhDovlJKPn/8bl6/1ItB37wbnZC9vcVfP0UCgAMxiYjrEVG9+f5/aDsLwIFz6gC6rZTII4e289a1Xswmfff+0QXZNNHMZhZ/AeBg3YgSR9sOAdAGBSDQXaVErI0e5ObGPI4fU/7RCVlVUU9mUfUHbUcBgFXzWmS80XYIgDYoAIHuaprtvPbWgzh9YqD8oxMyo55Moh5Z/AWAFhyOiBsx342t3/vdtrMAHCgFINBNmfN8++xOXjhj8ZfOqNfWol6btB0DAFbZ9VLX6zHfbTsHwIFSAALdU0rJ107dyytv9qOpPcfohGo4tPgLAO17OyNOhR+PACvGwRnollJKPHf8R3n9chPDQe2nv3TB3uLvemRlpBoAWnYsSlxvOwTAQVMAAt1QSsT2TuSR9QfVrWv9WJ8a/aATsrb4CwALpImIzVLKYPO977WdBeDAOI0AnZBnTkfM57t5/tWIZ44q/+iGqop6OrX4CwCL5VKV+XyJ+LdtBwE4KApAoBPyGzciIqqoqr47W+iEzGjGk6hHa20nAQD+qJMl4s1QAAIrxE+AgW6o64i6zkgLCnRDPVqLemzxFwAW0DAitsbr8/jS//Bu21kADoQCEACesGowjHpq8RcAFtiVH/2H6lh/4KclwGpQAALAE5S93t7oh8VfAFhkb0TGK/5ZB6wKBSAAPCFZ19FM1yObXttRAIDPdjgiroXLpYEVoQAEgCchq2ims6gGFn8BoAMyIrYy5v2b73237SwA+04BCABfWEY9mUQ1GrUdBAB4eBdKVKdKOhYDy8+TDgC+oHptFM14HHtfJgAAOuLFiDgfEbH53vfazgKwrxSAAPAFVINh1JNZhG8PAEDX9CPiRlTzTGMgwJJzWgGAx5S9XjTTWWRt8RcAOupqlGrd//GAZecxBwCP4ePF357FXwDosJejxGtl3nYMgP2lAASAR5VV1JOpxV8A6L7jEXEx5hFbP7zddhaAfaMABIBH1IzHUY/W2o4BAHxxGRHXoyq98C1AYIkpAAHgEdSjtajHkwiXhQPAsrgUVT7ldAwsM484AHhI1WAQ9XQWUfn4BIAlciLmcd43AIFl5gQDAA8hm97e6IfFXwBYNusRcXn3fsbW+7fbzgKwLxSAAPA5sq6jmc0s/gLA8vpyPYhxlLZjAOwPBSAAfJbMDxd/h20nAQD2z4WIeK7tEAD7RQEIAJ+hHk8s/gLA8ns6orzVdgiA/aIABIBPUVn8BYBVsRYRlya9fx8373y37SwAT5wCEAA+QdUfRDOdRVr8BYBVceUPtp9fL47JwBLyZAOAn5BNE/VsZvEXAFbL2VLcAwgsJwUgAPyYrKpoputR9fptRwEADtbRzLzUdgiA/aAABICPZEY9nUU1tPgLACtoGFE2/u//825e//732s4C8EQpAAHgQ/V4bPEXAFbbxePPj47UtQEwYLkoAAEgIqrhKJrx1OIvAKy2sxHxfNshAJ40BSAAK6/q96OZziIs/gLAqjscGe4BBJaOkw4AKy2bJprZemTTtB0FAGhfPyIun6j+v7hx5922swA8MQpAAFbW3uLvLNLiLwDwh87/H/PZ0YzSdg6AJ0YBCMBqyox6Mo1qOGo7CQCwWF6PiOfcCgwsEwUgACupXhtHvTZuOwYAsHiOZMS5tkMAPEkKQABWTjUcRT2x+AsAfKJ+RFydR8RPvffdtrMAPBEKQABWykeLv2nxFwD4dBeaErNtR2ZgSXiaAbAysmminlr8BQA+12sl44V52ykAnhAFIACroaqimcyi6lv8BQA+17Ml4ky4LQRYEgpAAJZfZjTjaVQji78AwEPpRcSV4iuAwJJQAAKw9Oq1tajHFn8BgEfydsR8eOMHhkCA7lMAArDUquEw6snM4i8A8KheyjpfqGrvEED3KQABWFrZ60czXbf4CwA8jhNR8lSUjBvv/27bWQC+ECciAJZS1nU0s5nFXwDgca1FxIWqqiLnO21nAfhCFIAALJ+qino6i6o/aDsJANBtG2U+r9PPgIGOUwACsFwyoxlPoh6utZ0EAOi+10vGkShtxwD4YhSAACyVerQW9XgS4R/1AMAX93yU8nIUDSDQbQpAAJZGNRhGPZ1a/AUAnpSnI/JMiSpuvf/dtrMAPDYFIABLIXu9vdGPqm47CgCwPDIiLtYxr0txfAa6yxMMgM7bW/xdj2x6bUcBAJbPxd3I4a5fGAAdpgAEoNuyisbiLwCwf05mxHNVmbedA+CxKQAB6K7MaCaTqIajtpMAAMvrqYh41cIY0GUKQAA66w8Xf72QAwD7ZhoRZzIiNu/cbjsLwGNRAALQSdVgEPXE4i8AcCAuxDz6VWk7BsDjUQAC0DnZ9KKZrkfWFn8BgANxvlQxLv7vCHSUAhCATtlb/J1F9iz+AgAH5vmIONF2CIDHpQAEoDsyo57MohoM204CAKyWwxFxtu0QAI9LAQhAR2Q0k2nUI4u/AMCBG0XE2Wqnis33v9d2FoBHpgAEoBPq0SjqtbHRDwCgLW/s1vO1cBEg0EEKQAAWXjUYRD2dRVQ+tgCA1rweVU7bDgHwOJykAFho2TQWfwGARfBMlvKC7/8BXaQABGBhZV3vlX8WfwGA9k0j4vW2QwA8DgUgAIspM+rJNKqhxV8AYCEMI+L1rOZx4/u/23YWgEeiAARgIdXjSdSjtbZjAAD8uFfLvBpV9W7bOQAeiQIQgIVTjdaiHk8s/gIAi+ZMZBwKryhAxygAAVgoVX8QzXQaafEXAFg8J6LE8ShtxwB4NE5XACyMbJqoZ7PIumk7CgDAJxlHxNm2QwA8KicsoEvuR8S/jwiTsMuoqqKZzKLq9dtOAgDwWZ5tOwDAo1IAAl3ybyLiRtsh2B9ZVZGDQdsxAAA+S0bEH7QdAgAAAAAAAAAAAAAAAAAAAAAAAAAAAAAAAAAAAAAAAAAAAAAAAAAAAAAAAAAAAAAAAAAAAAAAAAAAAAAAAAAAAAAAAAAAAAAAAAAAAAAAAAAAAAAAAAAAAAAAAAAAAAAAAAAAAAAAAAAAAAAAAAAAAAAAAAAAAAAAAAAAAAAAAAAAAAAAAAAAAAAAAAAAAAAAAAAAAAAAAAAAAAAAAAAAAAAAAAAAAAAAAAAAAAAAAAAAAAAAAAAAAAAAAAAAAAAAAAAAAAAAAAAAAAAAAAAAAAAAAAAAAAAAAAAAAAAAAAAAAAAAAAAAAAAAAAAAAAAAAAAAAAAAAAAAAAAAAAAAAAAAAAAAAAAAAAAAAAAAAAAAAAAAAAAAAAAAAAAAAAAAAAAAAAAAAAAAAAAAAAAAAAAAAAAAAAAAAAAAAAAAAAAAAAAAAAAAAAAAAAAAAAAAAAAAAAAAAAAAAAAAAAAAAAAAAAAAAAAAAAAAAAAAAAAAAAAAAAAAAAAAAAAAAAAAAAAAAAAAAAAAAAAAAAAAAAAAAAAAAAAAAAAAAAAAAAAAAAAAAAAAAAAAAAAAAAAAAAAAAAAAAAAAAAAAAAAAAAAAAAAAAAAAAAAAAAAAAAAAAAAAAAAAAAAAAAAAAAAAAAAAAAAAAAAAAAAAAAAAAAAAAAAAAAAAAAAAAAAAAAAAAAAAAAAAAAAAAAAAAAAAAAAAAAAAAAAAAAAAAAAAAAAAAAAAAAAAAAAAAAAAAAAAAAAAAAAAAAAAAAAAAAAAAAAAAAAAAAAAAAAAAAAAAAAAAAAAAAAAAAAAAAAAAAAAAAAAAAAAAAAAAAAAAAAAAAAAAAAAAAAAAAAAAAAAAAAAAAAAAAAAAAAAAAAAAAAAAAAAAAAAAAAAAAAAAAAAAAAAAAAAAAAAAAAAAAAAAAAAAAAAAAAAAAAAAAAAAAAAAAAAAAAAAAAAAAAAAAAAAAAAAAAAAAAAAAAAAAAAAAAAAAAAAAAAAAAAAAAAAAAAAAAAAAAAAAAAAAAAAAAAAAAAAAAAAAAAAAAAAAAAAAAAAAAAAAAAAAAAAAAAAAAAAAAAAAAAAAAAAAAAAAAAAAAAAAAAAAAAAAAAAAAAAAAAAAAAAAAAAAAAAAAAAAAAAAAAAAAAAAAAAAAAAAAAAAAAAAAAAAAAAAAAAAAAAAAAAAAAAAAAAAAAAAAAAAAAAAAAAAAAAAAAAAAAAAAAAAAAAAAAAAAAAAAAAAAAAAAAAAAAAAAAAAAAAAAAAAAAAAAAAAAAAAAAAAAAAAAAAAAAAAAAAAAAAAAAAAAAAAAAAAAAAAAAAAAAAAA+w/8P+WvsrTybHgYAAAAldEVYdGRhdGU6Y3JlYXRlADIwMjAtMDMtMTNUMTk6MjI6NDErMDA6MDBlmhjGAAAAJXRFWHRkYXRlOm1vZGlmeQAyMDE5LTA4LTA3VDEyOjEyOjIxKzAwOjAwjW0XSgAAAE10RVh0c29mdHdhcmUASW1hZ2VNYWdpY2sgNi44LjktOSBRMTYgeDg2XzY0IDIwMTktMTEtMTIgaHR0cDovL3d3dy5pbWFnZW1hZ2ljay5vcmdkVP6gAAAAGHRFWHRUaHVtYjo6RG9jdW1lbnQ6OlBhZ2VzADGn/7svAAAAGXRFWHRUaHVtYjo6SW1hZ2U6OkhlaWdodAAyNDAwx8F5FAAAABh0RVh0VGh1bWI6OkltYWdlOjpXaWR0aAAyNDAw0oilDQAAABl0RVh0VGh1bWI6Ok1pbWV0eXBlAGltYWdlL3BuZz+yVk4AAAAXdEVYdFRodW1iOjpNVGltZQAxNTY1MTc5OTQxtxvrpAAAABN0RVh0VGh1bWI6OlNpemUANjcuMktCQuDGDAQAAAApdEVYdFRodW1iOjpVUkkAZmlsZTovL2VsYXN0aWMta2liYW5hLWxvZ28ucG5nTB7oEAAAAABJRU5ErkJggg==;" vertex="1" parent="1">
          <mxGeometry x="550" y="137.8" width="117.54" height="117.54" as="geometry" />
        </mxCell>
        <mxCell id="3N7rxfqaKrxfOFPJ_rLn-3" value="Elasticsearch" style="shape=image;verticalLabelPosition=bottom;labelBackgroundColor=default;verticalAlign=top;aspect=fixed;imageAspect=0;image=data:image/png,iVBORw0KGgoAAAANSUhEUgAACWAAAAlgCAMAAAA7k/xcAAAABGdBTUEAALGPC/xhBQAAAAFzUkdCAK7OHOkAAAAJcEhZcwAADiwAAA4sAfmb7hAAAAAZdEVYdFNvZnR3YXJlAHd3dy5pbmtzY2FwZS5vcmeb7jwaAAAC91BMVEVMaXE0ubc9vrDwuxnwvxo+vrA+vrBFxpcyqcEutrk+vrA+vrDwvxo9vrAgLjU9vq8+vrA+vrDwwBo9vrD5uCY9v7A+vrA9vrDruR3vvB4/vq8+vrHwvxrwvxrwvxruuB8+vrA+vrA+vrDwvxo9vrDvvhrwvxoHpd7wvxrwvxrvvxo8vrE+vrHwvxr/gADmtxo+vrE/v7A+vbDxvxnwvxo+vq8GpuDuvhnwvxnwvxrwvxo9vrA+vrDvvhrqthzwwBrvuxzwvxo+v7A+v7E+vrA9va89vrHvvRvzrRAHpd7wwBo+va8+vq8hKjDruRvwvxrwwBrwwBrqth/wvxoHpd49vrE+vrAGpd8Gpd7ZpCgHpd4eND4+vrA+vrAHpd7wwBoHpd4AotoHpd4Hpd4Hpd4Gpd/eqSUbQ1PfqyQdOEQ+vbEGpd8cPUoZUWc9vrAKpeAGpd8Hpd7ZpCjapSfwwBobR1kHpd4Hpd4Hpd4+vrAXVW0WWHDbpiYIpt4Hpd4Hpd49vrAVZ4DZoygWXnnZpSjapScaSl0ZTmQcQE8Gpd/grSMWZYAYWXIIpd8+vrAOcITwvxrwwBrwvxoWWnTcqCY+vrAFpN4ZTGDbpScYU2oGpt/jsCIWXHfapicIpd4Fpt/bpyc+v7DmtCAHpt7bpyfcpybmsyDksCHYpCgHpd4wt6k2uqw9vrALoZQYXXogrqAGnpINopYKoJQCnJDntCDruR0ttacttajcqCYNopYZqZwjr6I1uasGnZEHpd4ss6YpsqUOo5QGnpESpJgJn5QYqpsjHyDwvxo+vrAHpd4Bm4/XoinYoygIn5MFnpEDnJA7va83u60QpJcVppozuKsMopUaqp3suxwosqXapScgraAstacjr6IwtqnquB3uvRsKlcjlsyDbpybotR8hJioiISPjsCHdqSUXVm7hriPfqyQZUGUcQE4OgKoVX3saSVseND4IntUiIyYjICEMjLodOkYTaosNhrMHotsRc5YScJIQeJ4UZoUHCw3OAAAAxnRSTlMACqMW/O77AQMGzP5UM/0R3cTevAV31ecbETuy5e+ACGaRTEQOPLv1s4hNLBn3AgtVRYhmzRUSLW/DouLxXg6SJKurb14iJzQD7pmAHv4gd+ryKtrfmfd0VvHP9tn0u9VpDOfZ+5v42+7xP8bqpVEYpLX63fTQka1ea4x5nTqAiLclPTy9zsWy407hCWofhBanydFdip4svG6WKM9NYEEzNHpqSatKqrp8JM3yfjcw9Pfrqf2UdqjzU9rF6OC+RYfgWZhxgJaN/dU4AAAgAElEQVR42uzBAQEAAACAkP6v7ggKAAAAAAAAAAAAAAAAAAAAAAAAAAAAAAAAAAAAAAAAAAAAAAAAAAAAAAAAAAAAAAAAAAAAAAAAAAAAAAAAAAAAAAAAAAAAAAAAAAAAAAAAAAAAAAAAAAAAAAAAAAAAAAAAAAAAAAAAAAAAAAAAAAAAAAAAAAAAAAAAAAAAAAAAAAAAAAAAAAAAAAAAAAAAAAAAAAAAAAAAAAAAAAAAAAAAAAAAAAAAAAAAAAAAAAAAAAAAAAAAAAAAAAAAAAAAAAAAAAAAAAAAAAAAAAAAAAAAAAAAAAAAAAAAAAAAAAAAAAAAAAAAAAAAAAAAAAAAAAAAAAAAAAAAAAAAAAAAAAAAAAAAAAAAAAAAAAAAAAAAAAAAAAAAAAAAAAAAAAAAAAAAAAAAAAAAAAAAAAAAAAAAAAAAAAAAAAAAAAAAAAAAAAAAAAAAAAAAAAAAAAAAAAAAAAAAAAAAAAAAAAAAAAAAAAAAAAAAAAAAAAAAAAAAAAAAAAAAAAAAAAAAAAAAAAAAAAAAAAAAAAAAAAAAAAAAAAAAAAAAAAAAAAAAAAAAAAAAAAAAAAAAAAAAAAAAAAAAAAAAAAAAAAAAAAAAAAAAAAAAAAAAAAAAAAAAAAAAAAAAAAAAAAAAAAAAAAAAAAAAAAAAAAAAAAAAAAAAAAAAAAAAAAAAAAAAAAAAAAAAgNm7g9zEkTYMwCMRKRuvUBYgEbOwQIAUWBgJg0QMKyIWIYQDcIkcJJm7zBlyrRky/6L/nnQnJAaM/TyrViurxFX1quqrrwAAAAAAAAAAAAAAAAAAAAAAAAAAAAAAAAAAAAAAAAAAAAAAAAAAAAAAAAAAAAAAAEqsXpk9LlpREMTxKuymy+d5e2e4s63uXO9cvP7j4u2fb/+5ffuBtx+dPy/TbriK4yCIWovHWaXutwoAlEezMltEQbzqps+d8Z/Vxr+5KXsX143qn+POc9pdxUG0mFWafvcAQFFcVkatXaBaPndeto2b15O5aWxfOs/LXeBqPVb8YQCAM9OsjaJp0p10xtWL13y63o47yzAJWqNbfy8AIK+u7ltBEi4748369aysN//LWvdX/ooAQC7UF0HSned3r2q/fa32cjWNZpIWAHCaXNWLu5N2IXLVO0lr2JG0AIAj6d9HcXf+0ihmrvrvbcTGeN6No/u+vzwAkL2r2S5ZDZ9eS+mi2l6ugsXAdwAAZKG+CFbLoh4F7n90uNvQqvkqAICvGSym3efhtVT1Ts56ee5O7WcBAHuo/xOtOvasPtRoL5NI01IA4INo1YrTdlV02u/YcLLqzS59PADAz2pRsmw/iEvfqM4Kg9GdDwkA2KlHf02GNyJSFp6GkySq+6YAoMxqvXC+FYuyr81KpyOtswCgdK5G09SJ4EGfOBwvk1bTlwYA5XDbSpZjR4LHaVC6nYc99wwBoNBqvbDTEHuOfmTYCXuakwJAAQ1ayUS51YlTlvJ3ACiMu9E0HWobmosTw4m6LAA4f7Ve2H6SbHKVsobpdKQvKQCcp9tWMndPMK99SduK3wHgzPRHyWQjxeTdZpJolwUAZ+FqYePqnNpltcNIVRYA5NmgtWrrcHWGVVldFwwBIJcqva72oed8wXAZKMoCgDypBelQRjl/1Uk88jUDwOn1R/Gz5uxFakj6HGviAACn3blaClcF9DCP733dAHAClWBZFUUKfFy4nHq/EACOaRB1vX1TipAV3PraAeAI7hZaMZSrhUN05asHgEOaxfNroaNsntqrhbp3ADiI2nSior28lwsnSrIAIGN3i1CjKyVZqdNCAMhKJZg4F+TNuhPbyAKAbxutxu4L8v9l762+gQEAXzXo6SPKex7mU69DA8AXzBLdGPjdRlboaiEA7KMZdTciBB9WvWtECgCfVIs7tq74pBtV7wDwoftETTt72oaPRg4A/MpIsyu+eFiYthRkAcB/9FvKrvhextKGFAB+1IxS/Rj4fveGSa9pNAHAzqCnUTtZeepMXSwEoPTq0/mTVECmFwvbScXIAqC8aq4MchAX40TzBgBKunfVka44ZMayjwVAyQwC6YrDZ6xYPRYApdHsTdRdcZx6rM50YMQBUHx30WRt3eeYGSvQHwuAQuu30gcrPsd2PenJWAAU1UI3UU7lYRJ5SweA4hmFVas8p9TwXiEAxXIfemeQHNiE90YjAMXQDNpWdnJC6wYAiqDfWro0SL6uFc57d0YmAGfsfqXwijyWY3VnRicA5+l26miQ3BomdWMUgHPTj3RrJ+dHhTqQAnBeHvVk4CyOCtOR0QrAeajHYys352K7qhizAORdvze/sWhzXrcKo76RC0COVdwa5DxvFWpACkBeN6+i+YWlmvN00Q40xwLA5hXYxgLA5hXYxgIAm1eUcRurZkQDYPMKbGMBYPMKbGMBgM0rbGMBwHHUk411mOLaJLdGOQBHNkvXlmCK7WbipUIAjqgfday+lMHYSSEAR3Ibby28lEV1VTfmATi4Wfpk0cVJIQBkxtkgJT0pvDL6ATgQZ4M4KQSATDkbxEkhAGTJ2SA4KQQgU4PEgziwOylMBuYDADJRCR8srPCvdeqdQgC+b5beWFThx2KsR/MCAN+ymHjOGX5y0WmZGwD4qn5vbC2F9wyn3tAB4CuuprpewS9tkqZZAoA93SYNSyj8zkOo+SgA+7jvXls+4SPr5cxsAcAnjVS2w2fr3RdmDAA+oaVnO+xh3Ls0bQDwW/1gaMGE/QyDvrkDgF/Hq554BV+wnXqlEID3XU03Fkr4mmosYgEgXkHWEUtjLAB+jlextlfwTQ0RC4AfDHQVhSw8hLfmEwDEK8g6YmnvDsAff9yuNG2HDK27IhZA2VVC8QqyjlhpxdwCUOp4tbYYQvae0pr5BaCs8Sq9sRDCYdzYxQIopbrdKzjoLpZaLIDSGShth4PXYnU1bQAoVbxKHix+cHgPK61HAcpC13YQsQDIVD/w5iAckWegAYrvUryC40esO3MPQJFFQ4sdHN82uDT9ABQ2Xr1Y6OA0XnpmIIBCarUtcnA648gsBFA4o7kFDk6rvTATARTKTLyCHJjPzEYAhVHvenQQcuFi6YlCgGJoehUH8mMd/s3e/bNWmWdxAF9III2VpLiB/CkkQQNJighOBBOtEiyi3lS3sluscy1vFbzNVDuSQhgCMsSZvIEB38NJH9I4REHRV7Gss+vsuBsnf+6f53eez+dFfM/h+Z3nHJtHAcq3eOWqkgZVMmktFkDpLL6C6nlsZwNAyZrXlTKoorlb8gmgUI37o+oYVNPovU0ZBVCgpWm/DkKFLdxYlVMAhRlffqiAQbU9fOCHQoCizG8pXlB9V+84Ag1QjNkVhQvK8MOsxAIogrM4UBLT7gAFMNsOhVlYM+0OUG1j9rZDeSaNYgFU2brhKzCKBUAvTaxZLAqluj0iwwAqp7Hf+XVKjYJyPZq2FQugWsZftCLeHilRULItN6ABqmSnG/9y+E6FgqLNNeUZQEU0OvEf7xUoKNqolQ0AlfD5dfCLD7+pUFC0yeVFuQYwbP9+Hfzi+I0CBWW7aWUDwHCNdOJrhyfqExTOygaAIdr40+vgFx89E0LhHn03LuEAhuPr18Ev7GuA4j33TggwDBOdOJV9DeCdEIDz22vFt9jXAMWbWnYCGmCgNp/FX/hkEAuKt3JL2gEMzCnD7QaxIJvRtSWJBzAYL7txFgaxIIGr7hMCDMLSbpyVQSxI4Pqm3APot1ftODuDWJDA02lLsQD6amQ/zsUgFmRgKRZAHy3uteKcDGJBCpZiAfRLsxsXYBALMrAUC6AvNg6240IMYkEKK005CNBrL7txUQaxIIUFw+4AvTVz0c9XBrEgkefr0hCgd3bacTknKhNkMHpjRiAC9Ojz1W5c2ieVCVLYuiYTASrx+eqzD0bdIYf7q2IR4LJWd6M3jt8oTJDCpPOEAJf0qh29YtQdsrhn7SjAZT5fdaKX7ByFJB7ekY8AF/581YresnMUsrjeEJEAFfh8ZecopOJ2DsBF7LSjD4y6QxordwUlwPnM7EZ/GHWHNJ4+2BCWAOfwsh19Y9QdfMQCqKHxg+gnW90hjYUHiyIT4Eya3egvW90hjzm/EwKcwcbBdvTb8ZGqBFlMLctNgL+y2Y0BMOoOidiJBfBtY3vbMRgnihKk8fCK9AQ4XeNZDIyfCSGRexMCFOAUr1sxQEbdIZHJeREK8P8sdWKw3M2BTO4viVGA/9HP3aLu5kANXJ0VpAB/tnEQQ+BnQshk9MaMMAX4L41uDIefCSGT5+viFOCL19sxLB+VJMj0EWva/WeA363uxxC5TAipuP8M8NlOK4bKugZI5ZHTOQB/29iNYXOZEHKxdRSovbvtGD7rGiAXCxuAmtvbjiqwrgFyMesO1NlMJ6rCugbIZa4hYoGaarajOqxrgFymrghZoI7GXkSlWNcAydx2nBCon9VnUTHWNUAyj2+JWqBmXraict4eKUiQysJ3Y9IWqNPz4EFU0aEOC5KZGxG4QG2MdKOaDi3EgmQezotcoCZetaKqLMSCdNbGpS5QA+OdqLBDC7Egm5t3BS+QXqMd1fZeOYJkHt0RvYDnQStHgR6zEgtIbWw3CmDlKHgmBCjHRDeKYOUo5HsmdDkHyGqnFYV4q8OCdO77mxBI6SDKcXykGkG6Z8JNOQyks/QsSnJs5SikY+kokE6zFWWx1B0SsnQUyOXFdpTGUndIaKUhj4E0ZvajQDosyPhMeE0kA0ncbUeZnM2BhG4sSmUgg9fbUSpncyChuRG5DBRvrBMFczYHEpqcFc1A4Va7ETosoFJGpz0TAkV72YrCOUwIGV1flc9AuV5E+RwmhIy2bklooFAb+xE6LKCSXH8GCjXRjhycfoaU7GsASrTTiizeHilFkHEQa0JSA6V5cRh5HOuwwCAWwNAlGb/SYYFBLIDKGGlH6LAAg1gAvZNo/OqP089vVCIwiAUwPKnGr3RYYBALYPjKPj6owwKDWADVs9SNtN6pRJBzEGtDdgPV1mxF6LAAg1gAvbO3HaHDAgxiAfROJ7I7UYjAIBbAII13I3RYQJFGb4xJcaCKGk8idFhAqe4tyXGgena2I3RYQLmeb0pyoGpybhfVYUGdTK7LcqBaOlEj79UhyGnhjjQHKqQW4+06LKiBaaPuQGVMfB+hwwIy+MeMTAeqIff2dh0W1MsPI1IdqIK94wgdFpCFUXegCnYPo5Y+KkOQ1KN5yQ4M289RV75hQVajD2Q7MFQzP0Z9+YYFad0fl+/A8Gw+iTrzDQvSWjHqDgzN7HaEDgvIaKsp44Hh+OkwQocF5DR1TcoDw9AJdFiQ1+iynAcGbuwX3ZUOC3JbczcHGLCZtt7qdyeKEKR128+EwECNfK+z0mFBfnOr8h4YnOa2vkqHBXXwvCHxgUG5pr/SYUFNTN6S+cBgWM/wtXeKEKQ1NSv1gUHY1V/psKBGFu7IfaD/9vVXOiyol2nJD/TZeFczpcOCullblP5APy1Zz3CaN2oQ5HV9Rv4D/dN4opE6zaEOC/Ia/WFEBQD6Zf3v+igdFtTT1l01AOiP+WNd1LccH6lBkNfkuioA9MNP+isdFtTY03l1AOg96690WFDzQaxllQDotZ/1V2fw9jc1CBKzEAvorbFf9Fc6LMBCLKCXNn7UOp21w1KBILPb4yoC0Csz+quz++AbFmRm5SjQK6vWt5/HJxUIMltZVRWAXrC+XYcF/OGmpe5ADzStbz+vjyoQZPa4oTIAlzWrvzq/9yoQZHa1qTYAl/PK+vaLOFGBILN/snf/KnFmYRyAixGmsRKLGfBPERRX0CkSUANOTDWSwjV6AduF1NmUabex2oR0shACqzegkItILzYJKkSSq9iFbbZIdGYynjnnvM9zE78f33m/9511Ngf4KZP61XCuJBDU7Ok9+QAMz/nBYX3UsKBqK5MSAhjWqfXtw/skgaBmE5syAhjOiX71M9+wziQQVG1dSgD6VXrnGhbU7Rc5AQyseaRfaVjATZx+Bga1faxf/fzhZ2cJoW5OPwODcd7Z4Wfgdk4/A4PoOO/sLCHQh0UNC9CvnCUERmyjIzMA/cpZQmDEDasrNYB+tJ+rRY7mAP160JYbgH6lYQEaFpBaQ79yNAcYrGE1ZAdws5Z+5WgOMKDfWtID0K+sdAc0LEC/stIdyNu+hgX80NYzXeiOVrqLH6jc1I4MAfQrK92BETesLSkCfM+efmXhKDC0GQ0L+I41/epOXYgfqNzumiQB9CvrsAANC7hbPf3qztdhaVhQu9meNAH+b0G/snAU0LAA/co6LEDDArwPci19QMMCojDfbh0WMCom3YH/2H9lHRYwwoa1J1cA/SqxK+kDGhZQvx39yrIGYKTsdAf0K8sagFFz+RnC96vnGk9q55Y1gIYFVK2lX1nWANyB/ZaEgbga+pVlDcDdNKyGjAH9CssagNF6o2FBUG39yrIG4O4aVlvOQERd/WqMLGuA+j3QsCCgzoGWM85fCc+ED1RvoytrQL8iqUvLGiBAw+pIG4hlXr/yKyGgYQEjNX2o4PiVELh7i/MSByL1q4/6zfhdyB6o39K0zIEomsf6VQ7cfYYIHq5KHQjiSL/KpGGdyR6o3yOpAzGc6FfZ/EooeiCAObkDEcydKzZ+JQQSWpc8UL91/cqvhEBam7IHarepX+XFVUIIYGJS+kDdli9Vmsz4lRACWFmQP1CzBf0qO+du5kAAT3sSCOq190yfyc+16IEAdvdkENRqR7/K0lfRAwHM7EghqFPjuS6TJzdzIIL9hhyCGnX1q2w3uht0hwjetCUR1Gf+QJHJt2GdiR4IYGNeFkFttg/VmIxd+pUQIlialkZQl+axA4RZczMHQni4Ko+gKkf6lUF3YPweySOoyYl+ZaM7kIM5iQT1OHWA0KA7kIf7MglqMelAjkF3IBMTy1IJ6uAAYSFsdIcQXjpLCFXYciDHoDuQkd0tyQTlcyCnoDEsg+4QgqM5UD4L3EtybgwLQnjdkU5QttVDraUk14IHQljalk9QNAtGDboDGXoin6BkFowW50rwQAinEgrK9d6CUYPuQJ42ZRSUatkCLIPuQKZW7kkpKNOaBVhF+iZ4IITZNTkFJWrpV/aNAhmbaUkqKE/XglFjWEDW3rRlFZRm2gIsY1hA5hanpRWUpXmsptg3CuTuz6a8gqIcKSlF+yJ3IIY5eQUlObUAy75RoAT3JRaUwwKs8gfdz+QOhDBhHRYUY8+CBmNYQCFmt6QWlKFtQUMNnH2GIPYta4AiTB8oJ/aNAuXYsKwBSmBBgzEsoChPJBfk7+SjalKJS7EDQazLLsjdpgUNxrCAwkwsSy/IW8+CBtuwgOI8XZNfkLOGBQ3GsIACTTUkGORr3g+ExrCAIm3MyzDIVfNQI6mNo4QQhbvPkK0n+ogxLKBUv0oxyNN7CxqMYQHlmpRjkKMFPxBW6VrqQBArPUkG+Wn5gdAYFlC0mZYsg9zMu/BcrU9iB4J40JFmkBc/EFbs/LPYgSAer8ozyMqRAXdjWED55uQZ5MQFwrpdSB2Iwq+EkBEXCGvf1WAMC6JwlRDy0TbgbgwLqMR+W6pBHlZdIKzfV6kDUSxuyzXIwpH6EYCTORCGQXfIggs5McawzqQORGHQHTLQ8wOhXQ1AVQy6w/g1XMixqwGojEF3GDcD7nY1APUx6A5jZsDdrgagQgbdYawMuNvVAFTJoDuMkQF3uxqAOhl0h/FpG3C3qwGolEF3GBcD7nY1APUy6A5jYsA9oC9CB8Iw6A5jYcDdrgagagbdYQzWDLiHdClzIAyD7pBe+7mu4ZEQqNt+V9pBWs1DTSMqj4QQx+OmvIOkTgxghWWhOwSyLu8gpQ/6VWAWukMcEwsSD9Jp2TAamoXuEMdMQ+ZBKjaMeiQEolgyhgWp2DAa3TeZA2FsWOgOiWwawPJIKHQgiClPhJDIzgv9IjxXnyEIu0YhlWkbRnH1GYKYWJZ6kMixcsG/LiQPBHBf6EEi71ULPBJCEI+EHiSy58QzHgkhiCU/EIIBLDwSAiP1uiP1wAAWHgmBUdq3oAFSOdUq8EgIMexuCT1IpGcAC4+EEMNLV54hlY4BLDwSQgwWYEE6hxoFHgkhBguwIJm3+gQeCSGGOZkHqbwzgIVHQojhicyDVGzAwiMhBPHYglFIxgYsPBJCDIvzMg9ScYIQj4QQgwXukM7OC00Cj4QQwZu2zINUmgd6BB4JIYKplsyDZF5pEXgkhAgcyIGE/v6oRfBj32QS1GJ2TeRBMt1nOgQ3uZJKUIenPZEH6RxqENz8SPhZLkENHHiGlJzI4TZfBRNUYOWexIN03hnA4lafRBOU36+WJR6ks+1EDrc790gIpZvQryAlJ3LwSAgR+tWkwIOE/vJAiEdCCNCvNgUeJNRwIof+XAooKNl9gQcp/a440KcvEgp8vwL6cqI20C8Xc0C/AvrSM4BF/66lFOhXwO2mbWhgEBdyCorsV/4fhLRsaGCwR0LLsKBA9otCYh80BgZjGRboV8Atus8UBgZkGRboV8DN/lAXGJRlWFCYl+47Q2LvtQUGZxkWFGV2QdpBWla4M9Sc+5nEgnLsrkk7SMwKd4ZyLbKgGFNbwg4Se6spMJwroQWF2G8JO0hszwp3hnRuGRaU4UFD2EFizQM9gWFZhgVF2OgKO0jtlZbA8CzDggIsdmQdpPbuH/buXiXONAwDcOGAzVRioTBqMSgzwmihkHHAvyoyhT+TKpXnkE1pJabZSsUiTSCFgRzCnsE26SVNlmxAiUex6ReWTZzve5/3nes6ifvl/p7veXwg5Aksw4L4LmdlHdRt7aU3Ak/h6DNEt7sm66B2t14IPImjzxDckaSD+p37QIg5dyhYrynpoH6zPhBizh0K5jwOJHHhdYA5dyhXy3kcSOGDxwHm3KFcp4eCDhJYcuMZc+5Qrq15QQc+EGLOHRinyyU5B0k+EPqDEHPuUKxFMQdpPhD6gxBz7lCq3raYAx8IMecOjNOx9QyQ6gOhRwHm3KFQfh8EHwgx5w6M18qOlINE3CDEnDsUajgr5CCRcw8CxutBqEEMjb6Mg1QOfCBk3L7JNYjguC3jIJkzzwHG7bM5dwhg03g7pPPeilHG7160QXKX6yIOkln73WOACtwJN0g8fnU0LeIgnRtPAarwKN4gqZNVAQcJ7flASDWsaoCUTvcEHCQ0/ZuHANVwkhCMX8HE+ugdQFWcJIR041fiDZKae+UZQFWsaoBEWo47Q2I+EFIhJwkhia0p6QZpvfUGoEp3kg7q1z2QbpDWjg+EVMqqBqjdQlO4QWoXXgBUy6oGqNmV4ziQ3Af5T8WsaoB67c7KNkht9qX8p2pWNUCNji1vhwDOpD+Vs6oB6rMyJ9kgvUM3cqjBvdCDejQW/T0IEViBRS3u5B7UwXJRiMEKLOph2yjUYX9erkEE81ZgocKCUvT603INQrACi7o8CD+o2NWeVIMYzsU+tbFtFCrV6Fp+BUFYgUWNbBuFKs2YbocwboQ+NfomAqEyg3WZBlEcinzq9Mm2UaiI3e0QyRuRT61sG4Vq7E9JNIjjncBHhQUF1FdNgQaBrJtwp262jYL6CkrnyDP1V1h3whDUV1C0kSPP1O9RHIL6CormyDMp2DYKY9RSX0E0jjyTxINIhLEZuuwM0ZhwR4UFeXvRlmUQzq2gJw0Hc2AsGt0lUQbhmHAnGQdzYAy2RpIMAjLhjgoL8rXQXxNkEJAd7iT0VTrC03Tm5BhEZMKdlBzMgScx3A5R2eGOCgsy9XrRcDsENZLwqLAg06+Dh0IMonoj4UnrXkqCr4NQGhPuJK+w7gQl/MrXwVkRBmEtmXAnue+iEn7awL+DENmNdEeFBdm5WpZfENncK+mOCgsy09qwWRRiu5DtRKDCgp8ZvrKaAYI7l+yosCArDcNXEN60I4SosCArK89kF4RnRQNRPMpN+B+uVyUXxOcIISosyGq2/UByQQYcIUSFBdk47ptthywcWtFAIF/kJ/yH190dsQV5sKIBFRbkoTecElqQCSsaUGFBFhqDQ5kFuVizogEVFuTwvNrfE1mQj7cCHRUWeF4BY7VjRQPRPMhS+NfHQc8ryMuNOEeFBdHbq5G0grzMWdGACguCt1eeV5CdW2GOCgsC6/k4CBkaiXJUWBDXye6cpIIMvRHlqLAgqtaRre2QpQ+CnJjswoI/Z9wchEwd2DGKCgtiumoeSCnI1DsxjgoLAmp02iIKsrVkxyhx3clYJniy3clByNlHIY4KC8KNXh3NyyfI2ZQdo6iwIJgto1eQuzMRTmTfRS2T921w+Ew2Qe72JDgqLAjk1LdBKMGFAEeFBVH09tvTggkKcC6/Ce6TCouJ0eq6iANlmHYkBxUWRCmv1qQSFOIP6Y0KC0JMXk2JJCiGIznk4F74UriF4bJAgpI4kkMWFdZfApiCNbY21sURFGVWgUUWvspgyv00uLgnjKA0byU3WfgshSlTq2ujKBRo3ZVnVFiQbPBqsOocDhTJlWdUWJDG6/3VJSkEZdpRYJGNbwKZgvQ62zsyCIp1I7XJxt8ymWK6q862nwahZFOvpDb5+CKXKWTuypdBKNyZzCYjD6KZ7LWGq7OyB0p3KLJRYUFtTrvL05IHJsCtxCYrjxKafIfaV/pzUgcmw0hgk5k7MU2WXuwau4IJciGvycx3SU12Tlb6h/IGJsl7cU1unHwmL43NbttMOyiwILp7kU0+I+27zXlJAwosUGHBmJqr693mlJgBBRbkwslnwj+uToeaK1BgQV6cfCayhZXFtguDoMCC/Dj5TNjianu0Jltg0p0LavL0IMkJp9VRXAEKLPLmXg7B3larxtkBBRbZcy+HGHrXg/6y3gpQYFGGT3eincTjVjOd7vZzt28ABRYlsWyUZE429xebI7vZAQUWBVZYYp7aLWxedreXDVsBCizKZdko9T2srju7R15WgAKLCVtYFBQAACAASURBVGDZKFUPWbU2O4PFjfZoXV4ACiwmhmWjVNBVzVxvdQbd/vbySF8F/IppBRaZe/Aa4Jf0Fn44nvlh82qlsz8YdrtH/Y1m+/nevB3sAAAAAAAAAAAAAAAAAAAAAAAAAAAAAAAAAAAAAAAAAAAAAAAAAAAAAAAAAAAAAAAAAAAAAAAAAAAAAAAAAAAAAAAAAAAAAAAAAAAAAAAAAAAAAAAAAAAAAAAAAAAAAAAAAAAAAAAAAADwD3v3sxLXFYABvK4cN76Gb9B3mIU7wUFhmPoHkSQ4LhwHg4oE0gymZCEoSjCLrrrpYxR8iywiBGKSRm3+L2ob2qQycz3n3GtK7v39HmK+j3u+OQcAAAAAAAAAAAAAAAAAAAAAAAAAAAAAAAAAAAAAAAAAAAAAAAAAAAAAAAAAAAAAAAAAAAAAAAAAAAAAAAAAAAAAAAAAAAAAAAAAAAAAAAAAAAAAAAAAAAAAAAAAAAAAAAAAAAAAAAAAAAAAAAAAAAAAAAAAAAAAAAAAAAAAAAAAAAAAAAAAAAAAAAAAAAAAAAAAAAAAAAAAAAAAAAAAAAAAAAAAAAAAAAAAAAAAAAAAAAAAAAAAAAAAAAAAAAAAAAAAAAAAAAAAAAAAAAAAAAAAAAAAAAAAAAAAAAAAAAAAAAAAAAAAAAAAAAAAAAAAAAAAAAAAoKLWfgMGe3zEN2GufmFmYmqqubw639lodXuHu0vDfuKB/8uCBIUM71SXb7l1zUw125ut3qMlv/XA11Ubl6CQ4ZmWUgpjs83OZG93yI8+8HXsCFDIMqqblMpEs9Na/95PP3Dd9gQoGGFVzUxzs3FQEwDA9ZmWn2CEVc1Twxud7oEZPHAtts7kJxhhVVe9udFzYggUbl98ghFW5YdZ7dZP4gAo0j3xCUZYXJSs+a67HICibD+RnmCExT8lq+G4ECjCfeEJRlh8NtecPBANQF53hScYYXH5Q1ZvRDwAebikAYyw6HOFQ7vxg4QAUv0qOsEIi/4da7ll9Q6kcUkDGGExeJC13PUdC0iwIDrBCIvM71gNeywg0vC46AQjLLLV59fFBRDjoeCEEB+UjIqb3XDTOxDuR8EJIZ5qGOZYjgqBYDcFJ4T4Q7/g6Ghm02csIIR3ciDM8Svtgr80GzXRAVzFOzkQ6LlqwScTk14rBK6wJzYhzAvFgn8vbmjvig8gy6LYhDAnagVfDN6bPw9LEGCQB6diE8KcvtUq+NJU138KgQFuS00Ida5ScHmM5RUdoK8VoQmhXisUXFbfsHcH+pgWmhDqpTpBn737pooFXLZ1JjQh1LgyQd+K1VmSJsB/rMlMCOe9Z3zFAkIsiEwI906TYGDFMncHPhsVmRDOe89kzN0nh2QK8MkdiQkRvPdM5qUNXY8UAn+7JTEhgveeyTZ1KFeAC/ckJsR4o0KQremNQuC74XGBCTE+KhBcYa7jD4VQeQ/lJURx1Sgha3dTLKg4EyyIM6o9EDLFWpcvUGkmWBDJVaMEabvbHarMLVgQ6YPqQJAx54RQXW7BglgvNAecEwLZ9qUlRDrRGwg27/UcqCYPEUKs07dqA8FmeoIGTLCAAOdaAxFWXYoF1bN1Jiwh1nudgaiPWF1hA1WzJish2jOVgciPWG5sgIpZkZUQ7XeFgUh1H7GgWqZlJUQ7e6UwYIkFDPbgWFZCvDfqAtEmDmUOVMZtSQkJXmsLJOiMSB2oiLuSEhJYuZNkdlfsQDUsSkpIYOVOmrFJuQNVsH0qKSGBlTu27sBg9wUlJLFyJ3nr/kj2QOntyUlIYuWOY0JgoJtyEpJYueOYEBikNi4nIYmVO/5NCAyyIyYhzbGVO7mOCRsSCErslpiERFbu5NOpySAorQUpCYms3MmpaYgFpTUqJSGRlTu572swxIKS2jqTkpDIyp38Q6yeHIJS8tIzJLNypwAbggjKyDWjkO5cOyC/+RFRBOXjmlFI9145oAA3TN2hfFwzCume6gYUYfYXYQQlc0dEQroT1YBC1NfFEZTLvoiEdE80A/yZEOhjRURCDo81A4ox1xJIUCaLEhJyeK4YUNh1DcMiCUpj+1RCQg4f1QIK0/YyIZTGjoCEPF5qBRRndUgq8Sd7d7BS5RbGcZgzyib7NryD7qHBngmJgqgZIinZwAqlIgItKhoExYnoDM6oSZdwrqWBGwLL0jQtG5xJk5p+613r/drPcxO/D93r//KHWBNI6MKxHEqaW5Al+DMsCyR08cWxHEoyOQp/iFmBhE5OfBNQ0owvLPgTPB3pI3TiWA5lXb4mTdB/W/II3TiWgy8s4Hcv5BG6cSyH0qaeiBP03QN5hG4cy8EXFvC7gTxCR47l4AsL+NVbcYSuHMvB77CAX22KI3T11dcAvrCAX2yLI3TlGSG+sIBfrYojdOUZISEsjkKP+Y07dOYZITGuuksIfXVPG6E7zwiJMXdepqCf7LhDAZ4REuTmhE5BL+1II3TnGSFR1s8JFfTRsjRCd54REuaOUEEfzUojdOcZIXHmlQr659FIGqE7zwiJs/RQq6B3nikjlOAZIXEmb4sV9M2aMEIJnhESaPGNWkHPbAgjlOAZIZGmTLpDz6wII5TgGSGhrhochV45tyuMUIJnhMS6IljQJ/d1EYoY+gIg1iXFgh7Z1EUo48AXALGMNUCPbMsilHHkA4BYk881C3pjVRahjDMfAHhKCPw0kEUoY1//iTY3oVrQD/dUEQrZk3/C3ZUt6IctVYRCjtWfeNO6Bb2wo4pQiHPP+KE78NOyKkIpzj1TweUF5YIemBVFKOVE/KlgXbkgv4lDUYRSvms/NcxrF6TnUA6UY6eBKpZuixdk5xEhlPNJ+qnC3iik5xEhlPNZ+anjpnpBch4RQjmjU+WnjlvyBbmtaCKUY6eBSiZf6hektiuJUM5H4aeSmb8EDBJ7q4hQkJ0GqrmhYJCYR4RQkp0G6nktYZDXmiJCQXYaqGfRVgPktaGIUNCx6lPPuoZBWh4RQkm7ok9F0yIGWQ0VEUo6EH3quXhNxSCne3oIRR2JPhVdlzHI6bEeQlFnmo9/EgIeEUJZPySfqv8k9JIQUvKIEMp6L/l4SQis6iEU9UHxqeuhkkFCAz2EogaCT11TC1IG6Tz9oodQ1OhU8anLTULI55kcQmHvBJ+6lv4RM8jmbzWEwj4KPpXNTKgZJLOthlDYd72ntnk1g2QeqCEUti/31OZiDmQzq4ZQ2J7cU926nEEuu2oIhRnCooHXegaZOPUMxRnCwu/cYdxZaYDiDGHhd+4w7qw0QHmGsGjxO3dHnyGRF1oIxZ2IPQ3Yc4dElrUQijvTehpYeq5pkMaKFkJxP7SeFm5qGqQx0EIo7r3U04SpBsji6RcthOI+KT1NmGqALF5JIZR3rPS0cUvWIIdNKYTyhkJPG1PndQ1S2JFCCHCg9LQxr2uQwoYSQoAjoaeNxQVhgwxWlRACfBR6GrkkbJCBlQaI8E3nacTBHMhg4lAJIYClUZq5K23Q3n0hhAiWRmlm0p+woL0tIYQIlkZp5462QXNrQggRLI3iV1gwzraFECIMVB5/woIx9kAIIcLoVOXxJywYX7NCCCHeqTz+hAXjywwWxDDlTss/YZlzh7YejXQQQphyp6V5fYOmzGBBkO8aT0NTEwIHLT2WQYixr/G0NC1w0NLfMggxTLnT1Mw5hYOGdmQQYphyp63/FA4a2pBBiGHKnbauKxw0ZGcUgphyp7GXEgft2BmFIKbcaeyGxEE7QxmEIKbcaWvSvRxo5tEXFYQgptxp7JLIQSt2RiGMKXcaMzYKzdgZhTDfBJ7GHqocNGJnFMJ81Xcas9QArdgZhTBu5dDcE5mDNuyMQhi3cmjujsxBG3ZGIYxbOTS3eF7noAk7oxDGrRz8zB3GlZ1RCPNZ3fEzdxhPdkYhzq6609zSNaWDBuyMQqADeac5a+7Qgp1RCOQYIe1dVjpoYFMCIY5jhCRwW+qgPjujEMgxQhK4InVQ37YEQpxv4k57F01hQX3LEghxfog7CZjCgvpWJRDiOEZIButaB9WtSCDE2dN2EphcEDuobSCBEMcxQlKYFjuobVcCIc4HaScD53KgtqcKCIEcIySFpQtyB3W5lAORBtJOCrfkDup6poAQ6FDZSeGm3EFdLuVAKNee8Y4QxtGaAEIk157xjhDG0QsBhEiuPZPDut5BVRsCCJFOlJ0U3COEupwihFBnyk4OrwUPanKKEEJ9E3ZyuCF4UNOsAEKkH8JODlOCBzUNBRAi7Qs7SbxRPKhnYiSAEOm9rpPEJcmDeu7pH4Ta03WSmJM8qOeV/kGoD7pOEkvG3KGeLf2DUMe6Thb/ah5U4xQhxPos62RxV/OgGqcIIdZQ1sliRvOgGqcIIdahrJPGNdGDWrb1D2KdyjpZTIse1OLWMwQ7kHWyuCJ6UMsD+YNY72SdLC6LHtTi1jMEO5J1/AgLxs6K/EGsE1XHj7Bg7AzkD2J9VHXSuKF6UMlQ/iDWmaqThiUsqOVQ/iDWd1UnjwuyB1U8Uj8I9lXUycM5QqjjrfpBsH1RJ487ugdVvFI/8IHF+JjTPajimfpBsPeiTh4XJ4QPathSPwi2J+ok8lL4oIZN9YNgnzSdRG4JH9Swpn4Q7IOmk4ipUahiR/0g2LGmk8hV4YMattUPgn3WdBKZ9Ct3qGFD/SDYQNPJ5I3yQQXL6gfBhpJOJtPKBxWsqh8E25V0MrmrfFDBivpBsJGkk8l15YMKZtUPop1qOoksKh9UMBA/iHag6WRyQfog3lD8INo7SSeT29IH8XbFD3xgMVYcy4EKRuIH0Y4knf/Zu5+VrNMwjOO0ambznoZn0Dm0cCcUCmGWhJSMLcwwKobAGmpoEUwU0SxazWaOqYWCkJk5aX9sMSfxXs9zvzyfz0l8L3x/Prd/I4SxPNU+iPsq6fg3QhjLc+2DuI+STiUL2gdx/2ofGFgM5lfxg7RH2gdxZ4pOKa/FD9LeaB/EfVd0SnknfpD2Qvsg7oeiU8ol8YO0Z9oHcaeKTil3xA/S7mkfxP1UdErxTgPEbWsfGFgM5pr4Qdor7YO4Q0WnlDnxg7R17QMDi9FcUD8wsGDm7Qs6tfytfhD2WPvAwGI0f6gfhL3UPjCwGM2y+kHYjvZB3AdBp5aH6gdhm9oHBhaj2VA/CLuhfRD3SdCp5Yr6gYEFBhZM16L6QdgT7QMDi9GsqB+E3dI+iDsQdGq5fl7+wMACAwumy1PuYGDBzDvRc4p5LX+QtaZ9YGAxnPvyBwYWzLojPacYt3LAwAIDC6bsrvxB1pL2gYHFcJblDwwsmHUTPaeYB/IHBhYYWDBdrj2DgQUGFkzZqvyBgQUGFkzXlvxB1kT7IG5ezynmtvyBgQUGFkzXFfkDAwsMLJium/IHBhYYWDBdi/IHBhbMul09p5hr8gdZ89oHBhbDWZE/MLDAwAIDC2bKrvaBgcVwLsofGFgw6471HAMLxnKsfWBgMZw5+QMDC2bdnp5jYMFY9rQPDCyGc13+IOs/7YO4//ScauQPDCwwsMDAAj8RAn4ixE+EMDIfuYOBhY/cAQMLZo5nGjCwYDAeGgUDi/F4aBQMLJh5TuVgYMFgHHsGA4vxOPYMBhYYWDBlC/IHWRPtAwOL4VyTPzCwYNbN6znFLMofGFhgYMF03ZQ/MLDAwILpuiJ/YGCBgQXTdVv+IGtJ+yBuoucUsyF/YGCBgQXTtSp/YGCBgQXT9VD+wMACAwum65L8gYEFs+5IzylmWf4ga037wMBiOJflDwwsMLBgut7JHxhYMOtO9Jxi7ssfZN3SPjCwGM4/8gcGFsy6Az2nmKvyBwYWGFgwVXPqB2FPtA/iPgk6tSyoH4Td0D4wsBjNTfUDAwsMLJiuLfWDsE3tg7gPgk4tbj1D2o72gYHFaB6oH4S91D6I2xd0armrfhD2WPvAwGI0b9UPwta1DwwsRuMhdzCwYPYdCjq1nFM/CHulfWBgMZgV8YO0be2DuJ+KTineGYW4e9oHBhaD2RA/SHumfRB3quiU4hksiHuhfRD3Q9EpxTNYEPdG+yDuu6JTyn3xg7RH2gdxZ4pOKb+JH6T9q30Q91HRqeSi9kHcc+0DA4uxLGofxD3VPoj7KulUsqF9kLcnfpD2RdKp5JL0Qd6u+EHae0mnknfSB3nz4gcGFkP5U/ogbyJ+kPZZ0ilk7hfpg7wl8YO0b5pOIU49Qwtr4gdhe5JOJavKBw3cUj8I25V0KllWPmjghvpB2LykU4lLhNDCpvpB2ETSqeSq8kEDO+oHYUeSTiHXhA9aeKx+EHai6RSyIXzQwrr6QdiBplOIQznQxLb6QdgnTcc37jCae+oHYR80nTqu+8YdmnihfhC2L+rUsah70MQb9YOwQ1Gnjju6B038rn5gYDGOy7oHTTxVPwg7FXXq+Ef3oI1j+YOsH6JOGSuqB43Myx9knak6ZWypHjSyJH+Q9VHVKWNZ9aCRNfmDrK+qThl/qR40ckv+IOuLqlPmE6zzqgeNPJE/yHov6/gEC4azKX+Q9VnW8QkWDGdH/iDrm6xTxWvRg1Zeyh9EHas6ZT7B0jxoZl3/IGpe1qliVfOgmW39g6gjWacKhwihnWf6B1Ensk4VFzQPmnmjfxB1IOsUcVPyoJ3f9Q+iPug6RTyQPGjn/J4AQtK+rlPE35IHDc0LICQd6jo1uJMDTS0JICSdCjs1eKQBmnLtGaK+Czs1/CF40NINAYSkM2GnhLmrggctufYMUV+VnRJu6x005RghRH1Rdkq4q3fQlGOEEPVe2angumfcoa17AghJ36SdCq7IHbT1QgAh6FjZKWFZ7qCtRwoIQRNlp8QvhL/JHbT1XAEh6Eja8QshDGlXAiHnQNrxCyEMaSKBkPNJ2vE/hDCkNQmEnH1tp4AtrYPmnkgg5BxqOwVc1jpozjFCCPqp7fR38ZzWQXM7Egg538Wd/lalDtpzKweCPoo7/b2VOmhvWwIhx61n+ls4L3XQ3jMJhBy3nunvgdJBB27lQJBbz/T3p9JBB0/3NBBSdsWd7m4LHXQxL4KQ4hQh/XkEC/pYEkFIcYqQ7lZ+1TnowlPuEOMUId09lDnoY1MEIcUpQnziDqN6LIKQ4hQhPnGHUb0SQUg51Xc6e6dy0ImXRiHmTN/pa+EXlYNOvDQKMU4R0tklkYNevDQKMU4R0tfcBZGDbiYqCCFOEdLXHYmDftZUEDL2nCKkr9cSB/14aRRCJgJPV1sKBx15aRRCThSert4qHHTkpVEIcSmHrhYFDnralkHIcCmHri4LHPTkpVEIcSmHnjwyCn15aRRCfmg8HS3rG3TlpVEI8ZA7Ha2c0zfoy0ujkOEhdzpyJQd689IoZHjInX4uXlU36MxLoxDhIXf8AQtGtiOEkOAhd/wBC0a2LoT/s3cvK1mtYQDHdyNt8t2Gd9A9OHAmKAri6UNEJR1kopRIoIWJg6AoIgeO9qRLaN5d7IFC0GHnoaxssGG3iXJ7WId3re9da/1+N/F/WOt9nxeKYJE7PmBBk1mEBYWwyB0fsKDJLMKCQljkjg9Y0GTdh0oIBfgu83TIuA9YEAOLsKAIX3WeDhkVNojBrBJCASxyp0P6rwsbxOCWEkIB7BmlQwZ1DaKwoYRQgAOhpyOGunUNorCihBBen9DTGbuyBnF4LoUQnj2jdMaIqkEkto+0EIKzZ5TO2FE1iIU9DRCePaN0RFvTIBrTWgjB2TNKJ/Tc1DSIxpQWQnCnWk8HeCQHIvJECyG4E62nfP3XJA3isayFEJw9o3SAHaMQk0daCKHtfxF7SmdFA0RlTQwhtI9iT+kmnwkaRGVPDSGwd2pP6VblDOIyrIYQ2Fu1p2zjY3IGcbmvhhDYB7nHCXdounU1hMC+yT0lWxAziM1TNYTA3us95er5U8wgNvY0QGjWYFEyO9whPttHcghBWYNFyYauaxnEp6WHEFRL8CnV5I6SQYRm9RCCsgaLclmBBVG6pYcQ1BvFp0wTHnmGKM3pIQT1XfIp0x0dgyg91EMI6lTy8YMQ8NwzhHWs+fhBCPzRJ4gQ0oHoU94NQj8IIVrTgggB7Yk+5bmrYRAt1wghpE+iT2msGIWIuUYIIf2t+pSl55mEQbxWFBEC+iD7lGVUwSBiLxURAvom+5RkoUvBIGZ7kgjhvNd9yjF+U78gaq4RQkB/CT/leCVfELcpSYRg9r8IP6WwoQFit6GJEMxH4acUMzY0QOxcI4RwbGmgFL1b4gWxu6eJEIwtDZTigXZB9LoPRRFCsaUBB7CAH4ZFEUI50X6KN9KtXFABrhFCMLY0ULz+G8IFVeAaIYSyJ/4UbvKObkEluEYIoXxSfwo3KltQDWtHsghhvFV/iraoWlAVLVmEMGxpoGg2jEJ1zMoihHGq/xR8wN0Tz1Ad67IIYRwbAChUz45kQXUsyyKEcWACoFCDigUV4rEcCKPPAEChBgQLqqRrTxghhHcmAIrU1iuolmlhhBDeGAFwgRD46ZYwQgifzQAUZ8ILOVA1c8IIIbw3BFCY8S2xgqp5JIwQgqeeKYwFDVBBm/vKCPl56pnCTO5KFVTQsDRCfi4RUpgloYIqmpJGyM8lQopiARZU04Y0Qn4uEVKQRZmCalqRRsjPJUKK0e6SKaimNWmE/FwipBC3u1UKqqqljZCXS4QUYsQCd6iuWXGEvFwipJD56ppEQXWtiyPk5RIhBZgZUyiosGVxhLxcIsR8BfzupThCXi4REtyQB56h4pxyh7xcIsR8BZxxXx0hH5cIMV8BZ9nlDjm5REjo81fmK6i+h/II+bhEiPPtwFnb+/oIuXwzERDSiPkKamFYHyGXEyMBAS3YLwr1MKWPkMf+gZmAcOa9jwM1MSeQkMdHMwHhLHrfGerikUBCHm8NBQSzqklQG5t7Cgk5fDcVEMqAJEGNTCsk5OChHALpGRQkqJNbCgk5eCiHMHpf6BHUyrJCQnYeyiGM8cdyBPVyTyIhOw/lEMTQlhpB3fRpJGTmoRxCWLC+HepnViMhMw/lEEDb+iuooScaCZkdGw7Ia3JUiKCOVjQSsvJQDvnXM+zqENTS2pFKQkYeyiGviWcyBDXVUknIyEM55D3efkOEoK6mVBIy+mxAIJdVx9uhvuZUEjI6MSGQ5/iV13Ggzp6rJGTjjDu5jl/Z3g611m3VKGTjjDs53Hb8CmrOqlHIxhl3MpscEB+ouw2dhEyccSer/jvaA7X3UCchE2fcsZ0BuNDmoVBCBs64k/H24IDtDNAI00oJGTjjTrbbgzuyA82wrpSQgTPuZDE/pjrQEN57hiyccSe9XstFoTm296US0nPGndRGbkoONMiwVEJqR864k/p0e5fgQJPc0kpIzRl3Upp5JjfQLMtaCak5447lDMCl1o7EEtL6ZmTA5yvAISwI69jMgM9XwKWmxBJSOvxiaiDx5cEtnYFGeqqWkNI7UwMJjS+pDDTUPbWElD6YG0hm3svO0FwtuYR0Tg0OJDF0R2Ggwe7LJaTzl9GBq/U63A7NNieXkErL7ECCv4NexoGGe66XkMrfhgf8HQSu0tUnmJDGd+MDV90d9PAg4BAWpHNigOAyPatjwgI4hAXp7B8YIbjEbZtFgX/ZhAVpfDJCcLGRx6IC/McmLEjhjSGCi8y8UBTgJ88RQgpfjRGcb2LQ2XbgF8uSCclZM8oF45XFosBv1o40E5LqM0lwjv5R4xVw1rBoQlLWjHLO16sl4xXwf+uiCUl9Nk1wxpCfg8C5VkQTkjo2T/D7zcEHjrYD59s+VE1IZu+LiYJfLHh0ELjYtGxCMu+MFPzU0/5TP4BLPJFNSOaDqYL/jN+9oR7ApR7KJiTz3lzBj6NXTrYDV9rc001IwkvP/PtvcH5HOIAEZoUTkvDSM69fTwz4NwgksyGckISXnn28ars3CCT2XDghiVMDRrMNjY4JBpBCSzkhAS89N1n/XVsZgJSmlBOu1jJkNFbv/Csb24HUnkonXO2tOaOptwZ3LWUAsnh5pJ1wpa9GjSZ+u7q95OAVkNWwdoIjWPxvumrvXhcIILt17QRHsPj9VPviK9MVkI/XcsARLH45drUwuqUMQG6bfeoJjmDx49NV+8E1WQCCuK+e4AgWryfagzcVAQjGogZwBKvxX67m/RcEAluzqAEcwWrwmauR1QfecAYKMK2f4AhWI2erofboY4tEgYI80U9wBKtpa65GFpceW8UAFOmRfoIjWM0ZrWbaoy+cZgeK19VSUHAEq+4mx2fadwd3HLcCSjP1D3t30xJVHMUBuC6YqQw5yIwwbZyhXS10wJWtdAyilmkRFUG0MWiZFUT6AapV6/ADCL2sWhT0sogg7R0p+y7ZqkUE0Yvdc+7zfInfn9899xwJCkawss5ZnbuweOn45Ws3fA8EtttVCQpGsBK8pQ5vOXbu5IUzi4vnrx8/e+LxnRvWhgIAAAAAAAAAAAAAAAAAAAAAAAAAAAAAAAAAAAAAAAAAAAAAAAAAAAAAAAAAAAAAAAAAAAAAAAAAAAAAAAAAAAAAAAAAAAAAAAAAAAAAAAAAAAAAAAAAAAAAAAAAAAAAAAAAAAAAAAAAAAAAAAAAAAAAAAAAAAAAAAAAAAAAAAAAAAAAAAAAAAAAAAAAAAAAAAAAAAAAAAAAAAAAAAAAAAAAAAAAAAAAAAAAAAAAAAAAAAAAAAAAAAAAAAAAAAAAAAAAAAAAAAAAAAAAAAAAAAAAAAAAAAAAAAAAAAAAAAAAAAAAAAAAAAAAAAAAAAAAAAAAAAAAAAAAAAAAAAAAAAAAAAAAAAAAAAAAAAAAAAAAAAAAAAAAAAAAAAAAAAAAAAAAAAAAAAAAAAAAAAAAAAAAAAAAAAAAAAAAAAAAAAAAAAAAAAAAAAAAAAAAAAAAAAAAAAAAAAAAAAAAAAAA5ffoJeTz4QX8kl193wxvaQ6OLE0Xc+3uSmNsfKJ16MCAgAB+36osJqENDwf+3Pxos75UtBu9Ts1rC1BhwdprSmbrLwAAIABJREFUjwP+sr5mvWjPXKwd6BcbgAqLavrkOcC/+6g4XC+6VzqHdFqACouKeeMVwDZ0WvW5xnhtpxABflJhrctjcnkn+9k2Q1Mjc1cWJkUJ8IP7AplcPkt9tr3OGiwanVnzWcB3/csqLFKxo4H/9swaaff27xYrgAqLhDblPP91Cr5ZzLSMZgE7diw/kMnksW5HA2V4Zd0e02WBCksok8dH4U5JnK63e7MSBlRYkMF7uU6ZTE3PtOzMAhUWBPdWolPCKqs7YSoLquioCossNqQ55ZzKGux29kgbqJqncpkc1gQ5JX5k1W8u+FwIlXJLhUUOzhBScvMjjZqFpKDCglDWnSEkgNHpsaNiBypSYd2VzSRgRwNBDDW7LXuyoAqey2YSsKOBQPqme8beIb2dKizis6OBcP8WHqnJH8jtmXQmvM8Cm3iG2wum3iGxgXvimeBeyWqCfiwsOtY3QFpP5DPBbQpqAr+xxi17h5z6HwpoQlt7LaWJ7GBx0RsLMlqV0IRmySjhze8d960Q8lFhEZkloyT5Vjhh5h1UWFAa70QzSUy1WwIJUnkkpInri1wmj+aKYzqQyKybz4RlySi5DNXHjLxDGvfFNFFtSGSyOTjnUyEkcUuFRVCWjJLzU2FjUjJBBk8FNTFZMkpSu/Z2dssmCG+fm8+EtG7JKHmNdk28Q3jPRTURfRTC5K6xLMeC4AZUWERkySjZnTKNBbG5+YwCC8po/nZNREFgDuYQz3vhSyUM9pwqhLAczCEcV3KozsD7kT1iCoJyMIdoXMmhSl8Ki6/s3c1KnecWB3AU3NsPxIiooBMVZzrQgCMd+TVJpjpKbsCBc2degffQaZpDOZMemlNID6VQCu6dqFs2ftzLObSlpK1J5OR9n6/397uJ/2I961lrRU5Bjtq2jZKZnsylWSaX/CmEHDmYQ176ApemmVkwjAX5GbCqgZy4koNhLCALto2SE1dyaKatxVVxBZmNYf1TaJONjis5NHfefV9gQVZsGyUfN2KW5moNWj4KWbFtlFx0Xcmh2aaUWJCRf3QFN3lwJQcllhIL8vFGcJMHDSz4eWpOakEmVm0bRQMLsjF5JLcgD7aNkgVnnuE3p7pYkIUR20bJgDPPYBYL8vKj8EYDC3Iytm0vFmTAtlGSdyFS4UOtA9vdIXlWNZC8e4EKfy2xNsQXJO6N/EYDC3Lz8umy/IKkbZxLcJJ2K0vhgVGsoZ1hCQYp+0mCk7KeJIWHvViSYJCwYXPupKwvRuFjplZkGKTrPzIcDSzI86Fw0IdCSNd3UhwNLDDtDlRrvyPGSdS5/ITP2NxtyzFIk5OEpOpOesJn3wlHnc+BNDlJSKoNrHfCEx4zimXxKCTJSUI0sCBntmJBmqxqQAMLsjY6J8ogPU4SooEFub8TWtkA6XkjzNHAgrxteSeE5EyYc0cDC7J/J/SfEFLzVpyjgQW5ay0OyDNIStucOxpYkL/NY4EGSVm3zx0NLCjA/HOJBikx544GFpRg68TxHEjI6oVMJx0dDSz4v03uyzRIhzl3NLCgDIfTNjZAMobNuaOBBYWwsQHScXQu19HAgjK0no6INUiEOXc0sKAYM5pYkIgJc+5oYEEpxlrPNLEgDdOOPpMCO7BAEwuK8p1sRwMLynE4bScWpGDFnDsaWFCSyT3RBgn4VroTXV8mQnW2FkQbxDdgGRYaWFCW7Q3hBtGtOfqMBhaUZXZJuEF0bwQ8UfWkIVRtbNHCBojN0Wc0sKA4MyviDSJ7axkWGlhQmsMd8QZxDf9byBPPrSCEemxPCDiIaq4n5YnlQgpCXTbnBBxEZRkW0dwLQahN69mwhIOIJr6R82hgQYGmVkUcRLTgYg4aWFCi2XURB/G0X0l6YrgUf1D7M6HzzxDP/qWsJ4Ir6Qe1m/ebEOJ562IO4V2LPghgc1zIQSzDP0h7Quu+l3wQgqWjEM+KizmEdiP3IJDBATEHkRy4mENYnXdSDwIZm9kTcxDHiIs5hHUn9CCcIfsaIJI5j4SEdK6BBSG1pu1rgDi+9UhIQH2BBwaxoAkGPBISTk8DC0IbNYgFUax7JCSYW2EHBrHAIyFUypVniDOIJekgguVvBD9huPIMcRyMyDoIb80jIUG48gyxTG7IOgjv1CMhIbjyDNE82Zd1ENyqR0ICcOUZIho6EnYQ3K5HQmrnyjNE1VoQdhDcK4+E1M2VZ4hs0VZ3CO25R0Jq5kgORLdtqzuEtuORkHr1hRtEN+ozIQTW9khIrXqiDRLgMyGEtueRkDo5kgNJGJqTdxDWiUdC6mPHKCTicE3eQdhHwqmOMoCadO0YhVS0TgQeBGXdKLWxYxQSYl0DhLV7qRCgFh07RiElg24/Q1Dz50oB6mDHKKTl1EIsCGnjX0oBamDHKKRmdELkQUBL14oBqteXZpCamVWRBwENeiSkcnaMQoKe7Ik8CGf5B+UAVbsXZZCg2RWZB+Ec3agHqJYdo5AmS90hpMWeioAqda1ogES9XJd5EMzA964+UyUrGiBZh8dCD4IZv1MTUB0rGiBhrV2hB8GcWehOdfoiDFRYwP+MvHL1mapcCDBI2pjTzxDMSl9dQEWu5BeosIDfTFvoTjWupRckX2HtSD0IpD1poTtV6FjRABn4SuxBIHuuPlOFO8kFOXgt9iCQNbsasKIBVFhAxQYvlAd8qVuxBV4JgQ8NfG9XA1/IEULIx7TcgzDGbxUIfBFHCEGFBfzNV3Y18EUcIYSc2IcFgbSnemoETLhDYyqsBcEHQax+3VUlYMIdVFhApZbsasCEOzSHy88QyMGlOgET7tCcCutY8EEIIzNO5mDCHRpUYa1LPghhxckcTLhDg7yck3wQwsmNWgET7tAcQ+OSDwJozzuZgwl3aJDZPdEHAWzMGsPChDs0yJNV0QcBHDmZgwl3aJKZCdEHATw1hoUJd2iS0QHRB/UbGTWGhQl3aJLTEdkH9dv7uqNmwIQ7NMhgW/ZB/XaNYWHCHRrlTPRBAAfGsHi0O9EEBTgRfWAMi4T0BBOUwFlCCDOGZRsWj3MvmKAIh47mQABL9yoHHuNaLEEhhvZlH9Rv0RgWj9CxAguK8WRD9kH9Y1iTxrD4vL5MgnJYOAoBPLcNi8+6kEhQkm3rsCDEGFZXAcEnda8EEhTFOiwI4OxOBcEnOfIMpRmXfVC74alLJQSf4MgzlGZqWPZB/TZmbcPiExx5hsLMrko+COHoyhgWH2UFFhSmdST3IIzXzj7zMR1HnqEw01IPAmmfXiskeFhfGkFZTi1pgGAmNu0b5UFWYEFhNi1yh4Dm3ht05wFdD4RQ2ACWY88Q1I6zzzzgThxBWU7kHYQdw5q3b5S/6UkjKMu2uIPAlmcMuvNXbuRAWV4sSzsIbX+rp6DgT9zIgbJs7cs6CG/pqqOk4MMHQjdyoChjS5IOYjizb5QP3csjKMprOQdRtOdvFBX8wY0cKMu8DaMQyfLMpbKC3517IISiGHCHeAy684dbeQQl2VqRcRDP8XuD7vzqUh5BScaOJRzEdHbbVVvwyy8dN3KgKAbcIS4b3flVXx5BSQy4Q2w2uuOBEEpjwB3iM+iOB0IoiwF3SMHx+3MVhgdCoBgG3CENZ/cG3T0QAsV4JtcgCe35vhrDAyFQCAPukAqD7h4IgVK8mJBqkIr9rQtlhgdCoAAvDbhDQo7fGXT3QAjkb2xNokFKzq4MunsgBLJnwB3+y97d67SVbmEAHiNhY1vItqzYUmgCcoeLBIkKKv6a0IaK3ABF+nRcwXRcQPpcSBrABoMQxvdypHPOaJrJJIB/vvXt57mI/b7ae+210lJZGqsaPhACwe0ZcIfElGpu5vhACMRWK0kzSE1/x6+EPhACkXWPZRmkZ/WzXwl9IATiOlmVZJCiLwNXCX0gBKJyIQdS9W10pXP4QAjE9EaKQaIqSxOdo0juJRLk40KIQbKqLVcJC+RyIJIgG62qDIN0bTf9SlgcY5EE2WhuSzBI2ebureLhAyEQzK4LhJC4D34lLIg7HwghG+UN6QWp2x+6+1wE1xOZBNn4KrsgfZ/cfS6CR5EE2fgkuSCAatuvhD4QAnG0VyQXRNA4fVRAcv9AOJJJkIvThtyCGA6XLWvI3JNMglwsH0ktiOKsbFlD1m5kEuSifCazII53gxstJF9uPEM26gcSCyL507KGjD0IJcjFd3kFoVQuRleKSKZuZRLkwoVniKZ6PrEOK09uPEM2zi1ogHB6Neuw8tzQYIU75KJWklUQT3/HOqwcWeEOuWj2JRVEtGkdlg0NQLIswIKozk6sw7KhAUjTyVspBVG9H9ypJDY0AAmqv5dRENeboYZlQwOQoH0JBZGtW4dlQwOQni35BKFV9qzDyogNDZCJvYp8gtiqrbFeYkMDkJRWVTpBdI1TC0czcSeVIA+dhmyC+I67T7pJDq5taIA8dI8lE+Rg9bOFozY0AKnYXZVLkIeNsoYV371YgiyUP0glyMVB3Ur38ANYNjRAFuoHMgny8X1wo6LEHsAaySXIwjeJBDnZcjQntiexBFlYl0eQlcrF8FJLicuJHMjDkgWjkJmVPUdz4nIiB/KwtiKNIDfVc0dzwg5gOZEDWWhb4A4Z6tXGGlZMTuRAFmo9SQQ52u44mhPSjVyCHJxuyyHIU7/paE5AV07kQA52HMiBbB06SxjQWDBBBrpHMgjytbn8qLAYwALmzgFCyNtbh5+jDWDZ0AAZODmTP5A3h58NYAHzVt6QPpA7h58NYAHzVX8veyB/X384/GwAC5ijfckDRfB9oGHZgAXMzTe5A8WwPrjTXSK4NIAFGViXOlAQlYuhhhWAE4SQg6WK1IGiWFkbXuovyXuSTBDf2orMgeKoaljpu5VMEN95VeJAkZTaIw0r8QEsG0YhvnZJ3kDhGtaVEmMAC5illn4FxWtYrYmGZQALmGW/6skaKJ5eTcMygAXMTq0haaCgDetakzGABehXwDQ1NKxEXY1kE0TX0a+gsLY7GlaSHmQTRHfalzFQ5IY11rDS48Qz6FdAaP2mhpUcJ54hvKZ+BQV3rGElN+DuxDNEt3MsXUDD0rBsGAWm2q8OZQtw2H3Qagy4A1PTPZIswB9/HHUfvMNKxr1wguj9alOuABpWWu5sGIXglvUr4P82l30lTGTDqAF3iN6vVmUK8JfVZe+wkjCWTqBfARoWU/UknUC/ArL6SuhfwsW7lU6gXwF5Oerah2XAHXgN/w8C/9CwdjSsxQ64j8QT6FdAdux0N+AOvJz97YCGZcAd0K+AeTWsiYZlwB14gaZ+BfxUvzO50nUW4caAO4R22pcgwM9td7zDWoRLG9xBvwKyblgj77Dm7noinyCy2rb0AP5do+Yr4dw9yCfQr4DMG1bLO6w5u5dPELpfNSQH8Gul9uhS6THgDvyeVk9uAL/XsIYalgF3QL8CNKywA+4u5EDoflWSGcDvqq4N71QfA+7Ar5zrV8CzGtbgRveZh0cBBYGtVeUF8BwrFxqWCznAv1takRbA81S2ftzqP34gBH5uvSIrgGd78+NeA/IDIfAzW3ICeImvdQ1rpq78QAhx1felBPAyB2UNa5bGIgrCKh/ICOClNk4e1aCZeRJRENbJFwkBvNzZ7pMiNCMuEEJcy2/lA/Aaq90HVWg2PxCKKAiruyodgNc5bI6vtSE/EAJ/2zmSDcBr9TuTK31o2lwghLg6x5IBeL1Ga+T087T7lR8IIazatlwApqHUHmpYfiAE/qvdkwrAdFT3BndK0RS58AxhrZVkAjAtKxcDhwmnx4VnCMt5Z2CanH6eojsXniEq552BKfvu9LMFDVBw9W+yAJi2g7KzOdPgwjNEVX4nCYDp+7D7YOXo61nQAEF93pADwCxs7ljq/moPUgpich4HmJVjS90taICCsr4dmB1L3V/pXkpBTC3r24EZqi4NrRx9uRspBTHtWS8KzFRla3CjKL10QYMFWBCT9VfAzO3XrRy1AAuKpP7Gkx+YvS8nFmK9xLUFWBDSyXvPfWAe3i4/qEsWYEFBLJ956gPzcbQztq7BAiwohOaRZz4wL/2adQ3P9CSnIKJO3xMfmJ/SuXUNFmBB/to9z3tgnlY+WdfwDLdyCiK6qHraA/NV+Ti4V5x+d8GoBVgQ0Zb1V8D8vStb1/B77vQrCKh84DkPLMLbrnUNFoxCrqxnABblsDOxruGXriwYhYBOrWcAFqbRHvmZ8FcL3CeSCuJpNzzhgcVZWfczoQWjkJ9Pfh8EFutd2c+EFoxCXsquOwML92H3SY36qUdRBeHsbniyA4u32XSZ0AJ3yEdz03MdSEGj5TKhBe6Qi9a2pzqQhurF0Kj7P/UrC0YhnCXj7UA69ge3+pQF7hBe/aPnOZCSL5/dzdGvILrPXzzNgaRUNncerpUqB3Igsu6qhzmQmn5tYtRdv4LAasee5EB6qktDd3McIISw9kqe40CSnwn/HNjq7gAhxFT/WPEUBxK1Yav7/4ylFcRivB1I2VHHVncHniGeU9vbgaT11kYGsRx4hmDOG57eQNoqbwq/c1S/gmDjV1vGr4D0bewWe+foo7iCUHaNXwEhFHsQ615cgfErgBno7RV3EEu/gljWjF8BYRR3EOtWXIHxK4BZ2Vgu5CDWrQPPYPwKYHaOOgU8/nyjX4HxK4BZ6u2Ninb8+U6/+g9796/TSJbFAXhsyTY2soxlGUuQYOQMB7YlIoiwTQIpRPACBJN3xvN0r7TZbLAj7YSTAAs0FqLpd9ldzWh2e3vo5k+VfW/V971DnXN0763fgaieX/VUaiA+uXuIZb4Cz68A0pevh1h31zoWeH4FkL48JWJdmK8gpudX+yo0EK/e3vWN+QoIzZ7nV0DcNsoz8xUQlHLb8ysgdvWVHOQ1mK8gIjtrKjMQv8Z55vMaLj5qWRANy3GAbKiMy9nOa7g0X0E814MHrgeBrDjrPJivgAB0hioykB3b59nNazBfQTxaffUYyJKlg6zmNZivIBrLoyXVGHBNaL4CElRyPQhk0GEzg9eEl581LYhE7VAdBlwTRuHKfAWxXA92q6owkFGbpZnzK2ABdgcqMJDha8Jalq4JzVcQzfXgVP0Fsqzazc41ofkKYlEsqL5AtlUGuw/mK8D1IECy14TZ+JvQfAWuBwECkom/Cc1XEAd/DwL5cbYT+zWhfFGIw86ZigvkR2Mv7mtC8xXEYb2h3gK5Mvlwa74CUnU8VmuBvNmvPV6Zr4D0rG6ptED+VLsf76Kcry7MVxCB5SPhV0A+DTsz8xWQis6mGgvk1fZ5fG/dzVcQg1ZfhQXyqzK+juyt+8W1zgXBKx9U1Fcg1+onjzHNV3fmKwjfSV1tBfKu0P18Z74CkmO1M8C/DUqxvHW/+6fWBaHbnaiqAP8xbd5H8db9xnwFwWseqqkAv6lsfLgxXwFvdtxeUlEB/rAVfq77rfkKQie7HeBLS+3Ac93NVxC68qiqlgL8n/rJQ8Dz1UzzgtCPr4QzAPyJ6ujzhfkKeBWrBwGesrYSaGDDg+4FYds5U0EBntI7+hTiIdaj7gVh22uonwBPqww7t+Yr4EU6PyqeAN/WKIaWOnqvfUHYx1fbKifAdw0+hHSIdfVJ+4KQ7W6omgDP0V8PJ3X08rP+BSE7txoH4JnCWZ1z8VH/goAdjysqJsCzTZtBHGKZryBozalqCRDdIdbdtQYG4TptO74CeKnFv8QyX4HXVwCZM1jsIdaN9c4QrtKG4yuA19kuPi4uE+tWB4NwrfdVSIBX2/x5UYdY1jtDuES3A7xN72gxwe7WO0O4bB4EeLOznxcQ7G79IARrZaguArxdYTTvQyzrcSBYy0cFVREgEWvzPcSyHgeCtbqmIgIkpdr+dCG+HXKvPKqqhwAJ2qrNxItCztXqaiFAspbGf7sQLwo5dtxeUgkBErffekh/d86t+QrC1LLYGSAd6ceOiheFMHUmNuMApKXRTXd3jnhRCNJyUbQoQJrq71NMbLjXxyBENdkMACmrbKT12F38FQRpd+xxO0D6+sUH8VeQG+uHqh7AXJz9cif+CnLB4kGA+akePF6Jv4LMk9wOMF/TVqKP3WfmKwhPa1+tA5izzQQfu4tngPB0JuocwPz1ugndE17da2UQGtFXAIuSTCiWeAYIj+grgMVJYgO0eAYITumd6CuARWp037gBWjwDhHc7uK22ASzY2+4Jb/0+CG4HAfhKZfD3C78PQkZ0JhVVDSAIhdHM74OQBeVuT0UDCMbhT7d+H4TorU9VM4CgvHw/oeftEJYTewcBgrP07q+Xtg9CtEpj0QwAIWoczWwfhDiJZgAIV/39zTPnq0cNDQLS2lK/AAK2+azIhstPGhqEY0c0A0DgCn/5frS77TgQkNNRQeUCCN7h+XciG278PggBPb46VLUAolB//63IhpmWBsFo2osDEI/hk0+xrmzHgWCcDFQrgJg8lYrleTsEQ/IVQHwK/5hJb4dwnY6sHQSIUf+rBYW30kUhDMvFvhoFEKn9L1+7e34FgRAsChC1tV/+eO1+da+rQRBqZ2oTQNwqk99fu0sXhTDsbMhtB4hftT2TLgqhKLWrqhJAJjR+upEuCiEoH22rSACZMS0ua22waMvFqWoEkClbe0YsWKxWXSUCyJy1lgYHi9P06yBARkespiYHCxqvhioQQGYNaxodzN/qQDIDQJZVNlc1O5jzeDUxXgFkfsQarGh4MD87G0vqDkAOVDd2ND2Y03g1lisKkJ8Rq6PxQfpK7YJ6A5AjhXZJ84OUx6uDnloDkDO99q4GCOk5HTXUGYAc2u6eaoKQ1nhl6SBAbkesA6dYkMZ41e2rLwA51jjwFgsStutyECD3emN/FEKCSgfGKwB++KFgxIKkdPw5CMDvRI9CMuOV3CsA/nfEmligA28ktR2Ar0esEw0SXm/FeAXAn6gMVjVJeJ3ViZXOADwxYm3WNEowXgGQ8Ij1oxELXqi2WVE7APi2tfVlHROerWm8AuA5to6OdU14jvJeXcUA4Jn6NujA9512D1ULAF6gN5Y9Ct/UsRMHgBerTqQ2wJNOxF4B8CqV4bo2Cl62A5CwerGsl8KXltfX1AYA3mTaPdVQ4b+Oi/vqAgBvtt3uaKrwm9KoryYAkIjCuxWNFX799eRdQT0AIDGVoXx3cv/0qjWwcRCAhE1HwkfJsd2jLVUAgBT0NiRjkVMrbaGiAKTFTSG51HQ3CEC69t0Uki+n7gYBmAM3hbgbBIDEuSnE3SAAJM9NIe4GASBxvbH0UbJ8Nzju+coBWIDKcM8qaDKpLFMUgAXabjvGInN2Roe+bQAcY4HDKwAcY4HDKwBwjIXDKwBwjAUOrwBwjAWLO7za23R4BYBjLEjOSnvb1wtA2MdYx/o1MTneG1Z8uQCErjdp2VRILGpjh1cA/Iu9e9dNY4vCACxGIuCxRjBCg6WhmUHuoBiQUuGKW4NbXNkvkCK9uzyBOz+A3/Q4yTnSiXK1A3gu31fadOwtfu291toVsd25KqQKde251wYBqJJOur/z+025rwbVtQNQPa3CVSHlvRrMvOUMQEVd6yqklFeD843dCUCVRfsrv+eUyVWgaxCA6jsrRgaQUhLncdayJwGoh+unWz/tvL3hk9dwAKiVyU7G4m0Lr/LUPgSghhlrfuFXnrdxkacKrwCoqU6ay1icXDsw8QqAeuum2go5bdPg+My+A6D+zsaBKe+cxM1orWkQgMZojZdGN3D8dGVaOwAN01sbj8XxnMer93YZAE30/n4gY3EE7wb30hUATT7HKtRjceibwUy6AqDxWuOgLRVwGO2luisA+KprPhaHSFcmMgDANzqRt3T4G32z2gHgRyZJfC4o8ArDuXcGAeCnrlcaC3nhQIZwt7VzAODXptlIYyF/6E7LIAD8obPZfCg78Nuyq33hIRwAeIlNNroRIfiZd3ES2SUA8HKtWb6QJPjeRVCYdgUArzdJVL3zzdFVuIvMYwCAv9Ur9saQ8kV7mU3tCAA4jE5kRBbD+axrLwDAQU3XjyqyGmvxWBjHAADHscmWHoZunKuBhkEAOK5OlAzMb2iMm8HOvSAAnEQ30lvYiH7B+ezMageAE2rN5qEMUl/9fdGzygHgDUyLvbr3GrpYZtdWNwC8nc42C4SsOp1cBdnWsgaAUpxk5aExWbUIVxurGQBK5HK2011Y5YL2XM0VAJRSK01GV8JK1dzF87G3mwGgzLoTw0gr5GqQpEYxAEAVdCbZ41BRVsmdDx+zScdqBYAquUxXQV+MKekghtFurOQKACpqOt6NXBiWrOIqX0+sTACouO5kncde1ilDq+AwWKm4AoD6aKWrYCjiuBQEAA7s84WhsqzTzw99zlZTqw8A6uwyzfLYSNJT3Qkm4/fWHAA0Q3dS7EYXEtARB1zFeabeCgAaaDpOAvOyjlFuVRhwBQCNdvlh9Rh6YOcwx1bh433q1RsA4KtemuUDd4av1g6DZLxxbAUAfB+zovV81Hdp+KJoFe9Xs421AwD80mVU7JZDo0l/W2s1yLOZHkEA4M+1ovVDEHpn50fJKg4eiqhljQAAr3O2ma32g77zrP8qrYpIFTsAcKiclc2X4V1DB4b2B/vEmRUAcBSd6Yf1QxAvGnKg9W4RBw/r1Ds3AMAp9KJxNg/qenXYDkf7ZD3bdH3RAICkJVcBAPXRvU6L+12+jG8rNhX+6jZe5rv7Ir2WqwCA0jqbTtJitduP4tKea7WHn1NVNk4nWgIBgKrpbdOPWfKQB6N4uHjDHsSrxTAeBflDkn1Mtz3fCwBQG93eJpoV2epL4Ar7i/bNceLUTXvRD78EqlX2cRZtem7/AIAGuexttlE6GxdZljzN832w/DQYDMIwvO33++2v/lfV9e9f2s//vH3+0PNHPy2DfT5/SrKsGM/SaLvpufUDAAAAAAAAAAAAAAAAAAAAAAAAAAAAAAAAAAAAAAAAAAAAAAAAAAAAAAAAAAAAAAAAAAAAAAAAAAAAAAAAAACGCkZAAAACBElEQVQAAAAAAAAAAAAAAAAAAAAAAAAAAAAAAAAAAAAAAAAAAAAAAAAAAAAAAAAAAAAAAAAAAAAAAAAAAAAAAAAAAAAAAAAAAAAAAAAAAAAAAAAAAAAAAAAAAAAAAAAAAAAAAAAAAAAAAAAAAAAAAAAAAAAAAAAAAAAAAAAAAAAAAAAAAAAAAAAAAAAAAAAAAAAAAAAAAAAAAAAAAAAAAAAAAAAAAPinPTggAAAAABDy/3VDAgAAAAAAAAAAAAAAAAAAAAAAAAAAAAAAAAAAAAAAAAAAAAAAAAAAAAAAAAAAAAAAAAAAAAAAAAAAAAAAAAAAAAAAAAAAAAAAAAAAAAAAAAAAAAAAAAAAAAAAAAAAAAAAAAAAAAAAAAAAAAAAAAAAAAAAAAAAAAAAAAAAAAAAAAAAAAAAAAAAAAAAAAAAAAAAAAAAAAAAAAAAAAAAAAAAAAAAAAAAAAAAAAAAAAAAAAAAAAAAAAAAAAAAAAAAAAAAAAAAAAAAAAAAAAAAAAAAAAAAAAAAAAAAAAAAAAAAAAAAAAAAAAAAAAAAAAAAAAAAAAAAAAAAAAAAAAAAAAAAAAAAAAAAAAAAAAAAAAAAAAAAAAAAAAAAAAAAAAAAAAAAAAAAAAAAAAAAAAAAAAAAAAAAAAAAAAAAAAAAAAAAAAAAAAAAAAAAAAAAAAAAAADAWm9F2f+mtkmKAAAAAElFTkSuQmCC;" vertex="1" parent="1">
          <mxGeometry x="330" y="148.64" width="106.7" height="106.7" as="geometry" />
        </mxCell>
      </root>
    </mxGraphModel>
  </diagram>
  <diagram id="KD6MYO6Vx51OgZDe6CV8" name="Page-3">
    <mxGraphModel dx="2314" dy="811" grid="1" gridSize="10" guides="1" tooltips="1" connect="1" arrows="1" fold="1" page="1" pageScale="1" pageWidth="850" pageHeight="1100" math="0" shadow="0">
      <root>
        <mxCell id="0" />
        <mxCell id="1" parent="0" />
      </root>
    </mxGraphModel>
  </diagram>
</mxfile>
